<?xml version="1.0" encoding="utf-8"?>
<!-- Generator: Adobe Illustrator 28.3.0, SVG Export Plug-In . SVG Version: 6.00 Build 0)  -->
<svg version="1.1" id="Layer_1" xmlns="http://www.w3.org/2000/svg" xmlns:xlink="http://www.w3.org/1999/xlink" x="0px" y="0px"
	 viewBox="0 0 640 480" style="enable-background:new 0 0 640 480;" xml:space="preserve">
<style type="text/css">
	.st0{fill:#EF5223;}
	.st1{fill:#BF2728;}
</style>
<g id="Logo_00000066485403454005183530000000362883178491029121_">
	<g>
		<g>
			<g>
				<path class="st0" d="M235.51,322.8c-1.35,0-2.54,0.11-3.52,0.32c-1.02,0.22-2.01,0.63-2.96,1.23c-1.03,0.65-1.8,1.64-2.28,2.96
					c-0.46,1.24-0.69,2.78-0.69,4.57v24.6c0,1-0.06,1.81-0.17,2.41c-0.11,0.56-0.33,1.14-0.66,1.71c-0.28,0.49-0.73,0.84-1.36,1.08
					c-0.71,0.27-1.65,0.4-2.8,0.4c-1.13,0-2.06-0.16-2.75-0.49c-0.64-0.3-1.14-0.83-1.54-1.63c-0.42-0.85-0.66-2.02-0.71-3.48
					v-24.52c0-3.61-0.88-6.08-2.63-7.34c-1.66-1.2-4.09-1.81-7.2-1.81c-2.62,0-4.83,0.93-6.56,2.77c-1.72,1.83-2.59,4.2-2.59,7.05
					v22.42c0,7.07,1.97,12.46,5.87,16.01c3.87,3.53,9.96,5.33,18.1,5.33c8.54,0,14.73-1.68,18.4-4.98
					c3.69-3.33,5.57-8.83,5.57-16.35v-22.42c0-3.42-0.82-5.94-2.43-7.5C241,323.58,238.61,322.8,235.51,322.8"/>
			</g>
			<g>
				<path class="st0" d="M375.88,324.61c-1.62-1.2-3.99-1.81-7.06-1.81c-6.08,0-9.3,3.4-9.3,9.83v31.82c0,4.26,0.74,7.16,2.27,8.88
					c1.53,1.73,3.9,2.6,7.03,2.6c3.2,0,5.64-1.01,7.24-3.01c1.56-1.94,2.36-5,2.36-9.08v-31.9
					C378.42,328.29,377.59,325.89,375.88,324.61"/>
			</g>
			<g>
				<path class="st0" d="M439.34,322.87c-3.14,0-6.11,1.64-8.81,4.87l-7.07,8.24l-8.57-9.98c-1.86-2.13-4.01-3.21-6.4-3.21
					c-1.73,0-3.68,0.81-5.83,2.42c-2.31,1.76-3.48,4.17-3.48,7.18c0,1.97,1.1,4.19,3.35,6.76l11.39,13.32l0.08,11.9
					c0.05,4.24,0.8,7.15,2.3,8.9c1.51,1.76,3.86,2.65,7,2.65c3.24,0,5.7-0.97,7.31-2.88c1.59-1.9,2.37-4.91,2.37-9.2v-11
					l10.65-13.01c1.57-1.88,2.74-3.45,3.46-4.65c0.77-1.3,1.17-2.56,1.17-3.76c0-2.12-1.12-4.3-3.32-6.51
					C443.59,323.56,441.71,322.87,439.34,322.87"/>
			</g>
			<g>
				<path class="st0" d="M494.7,340.52c-1.03-3.38-2.37-6.19-4-8.34c-1.63-2.14-3.55-3.96-5.72-5.41c-2.17-1.44-4.34-2.48-6.47-3.08
					c-3.89-1.09-7.96-1.2-11.88-0.23c-1.77,0.44-3.62,1.1-5.49,1.97c-1.9,0.89-3.69,2.14-5.3,3.73c-1.6,1.57-3.04,3.41-4.3,5.46
					c-1.27,2.07-2.28,4.61-3.03,7.56c-0.74,2.93-1.11,6.2-1.11,9.71c0,3.99,0.09,7.31,0.26,9.87c0.18,2.6,0.43,4.86,0.76,6.71
					c0.35,1.97,0.89,3.44,1.64,4.5c0.76,1.07,1.67,1.84,2.7,2.3c1,0.45,2.27,0.67,3.79,0.67c3.54,0,6.01-0.66,7.53-2.01
					c1.53-1.35,2.3-3.46,2.3-6.24v-3.19h10.89v3.19c0,2.78,0.77,4.88,2.3,6.24c1.52,1.35,3.98,2.01,7.53,2.01
					c2.58,0,4.54-0.72,5.82-2.15c1.24-1.38,2.1-3.7,2.6-7.07c0.48-3.22,0.72-8.2,0.72-14.82
					C496.24,347.71,495.72,343.89,494.7,340.52 M467.74,338.25c0.88-1.07,2.24-1.59,4.16-1.59c1.21,0,2.21,0.21,2.96,0.62
					c0.7,0.38,1.28,1.13,1.71,2.22c0.46,1.18,0.7,2.79,0.7,4.79v4.62h-10.89v-4.46C466.37,341.43,466.83,339.35,467.74,338.25"/>
			</g>
			<g>
				<path class="st0" d="M189.52,327.75c-5.07-3.87-10.78-5.71-17-5.46h-0.01c-12.24-0.44-19.23,7.14-21.67,10.43
					c-0.53,0.74-0.9,1.47-1.07,1.82c-1.9,5.14-1.11,8.78-0.1,10.96c0.72,1.37,1.76,2.73,3.09,4.03c1.41,1.38,3.07,2.51,4.93,3.36
					c1.36,0.63,2.77,1.25,4.22,1.86c1.45,0.61,2.61,1.11,3.51,1.5l2.68,1.16c0.88,0.38,1.56,0.69,2.06,0.94
					c0.17,0.08,0.32,0.18,0.56,0.34c0.37,0.27,0.68,0.54,0.84,0.73c0.19,0.29,0.14,0.41,0.12,0.45c-0.05,0.13-0.45,0.78-3.13,1.29
					c-5.93,1.06-12.24-3.76-12.5-3.97c0,0,0,0,0,0c-2.43-1.9-5.74-2.16-8.43-0.63c-3.64,2.07-4.93,6.71-2.87,10.35
					c0.52,0.93,1.23,1.72,2.12,2.38c0.25,0.18,0.51,0.35,0.74,0.48c2.09,1.31,9.52,5.66,17.44,6.45c1.13,0.11,2.27,0.17,3.41,0.17
					c5.59,0,11.23-1.36,16.81-4.06c0.08-0.04,0.14-0.09,0.2-0.14c5.35-2.82,7.77-7.5,7.2-13.9c-0.23-2.56-1.21-4.8-2.92-6.64
					c-1.65-1.78-4.42-3.58-8.22-5.32c-1.17-0.55-2.61-1.18-4.31-1.9c-1.68-0.71-3.01-1.27-3.97-1.7c-0.94-0.41-1.92-0.91-2.92-1.47
					c-0.81-0.46-1.44-0.92-1.89-1.39c-0.07-0.07-0.14-0.14-0.26-0.32c-0.2-0.32-0.18-0.54-0.16-0.61c0.01-0.01,0.06-0.15,0.06-0.15
					c0.01-0.01,0.01-0.01,0.02-0.02c0.55-0.74,2.1-1.27,3.47-1.21c2.07,0.1,3.76,0.75,6.11,1.64c0.5,0.19,1.04,0.4,1.61,0.61
					c0.01,0,0.02,0.01,0.03,0.01l3.06,1.28c0.04,0.02,0.08,0.03,0.11,0.04c2.19,0.96,4.71,0.84,6.77-0.33
					c1.83-1.04,3.16-2.82,3.66-4.99C193.28,331.6,190.96,328.97,189.52,327.75"/>
			</g>
			<g>
				<path class="st0" d="M294.45,327.75c-5.07-3.87-10.78-5.71-17-5.46h-0.01c-12.23-0.44-19.23,7.14-21.67,10.43
					c-0.53,0.74-0.9,1.47-1.07,1.82c-1.9,5.14-1.11,8.78-0.1,10.96c0.72,1.37,1.76,2.73,3.09,4.03c1.41,1.38,3.07,2.51,4.93,3.36
					c1.36,0.63,2.77,1.25,4.22,1.86c1.45,0.61,2.61,1.11,3.51,1.5l2.68,1.16c0.88,0.38,1.56,0.69,2.06,0.94
					c0.17,0.08,0.32,0.18,0.56,0.34c0.38,0.28,0.68,0.55,0.84,0.73c0.19,0.29,0.14,0.41,0.12,0.45c-0.05,0.13-0.45,0.78-3.13,1.29
					c-5.93,1.06-12.24-3.76-12.5-3.97c0,0,0,0,0,0c-2.43-1.9-5.74-2.16-8.43-0.63c-3.64,2.07-4.93,6.71-2.87,10.35
					c0.52,0.93,1.23,1.72,2.12,2.38c0.25,0.18,0.51,0.35,0.74,0.48c2.09,1.31,9.52,5.66,17.44,6.45c1.13,0.11,2.27,0.17,3.41,0.17
					c5.59,0,11.23-1.36,16.81-4.06c0.08-0.04,0.14-0.09,0.2-0.14c5.35-2.82,7.77-7.5,7.2-13.9c-0.23-2.56-1.21-4.8-2.92-6.64
					c-1.65-1.78-4.42-3.58-8.22-5.32c-1.17-0.55-2.61-1.18-4.31-1.9c-1.68-0.71-3.01-1.27-3.97-1.7c-0.94-0.41-1.92-0.91-2.92-1.47
					c-0.81-0.46-1.44-0.92-1.89-1.39c-0.07-0.07-0.14-0.14-0.26-0.32c-0.2-0.32-0.18-0.54-0.16-0.61c0.01-0.01,0.06-0.15,0.06-0.15
					c0.01-0.01,0.01-0.01,0.02-0.02c0.55-0.74,2.1-1.27,3.47-1.21c2.07,0.1,3.76,0.75,6.11,1.64c0.5,0.19,1.04,0.4,1.61,0.61
					c0.01,0,0.02,0.01,0.03,0.01l3.06,1.28c0.04,0.02,0.08,0.03,0.11,0.04c2.19,0.96,4.71,0.84,6.77-0.33
					c1.83-1.04,3.16-2.82,3.66-4.99C298.21,331.6,295.89,328.97,294.45,327.75"/>
			</g>
			<g>
				<path class="st0" d="M401.67,347.41c-0.31-3.51-2.3-7.56-9.99-7.23c-2.96,0.13-5.26,1.02-6.84,2.67
					c-1.39,1.44-2.14,3.24-2.24,5.36l-0.04,5.01c-0.02,0.32-0.02,0.64-0.01,0.98c0.12,2.88,1.17,4.98,3.1,6.23
					c1.67,1.09,3.74,1.65,6.15,1.65c0.24,0,0.48-0.01,0.71-0.02c3.02-0.13,5.35-0.88,6.91-2.21c1.63-1.39,2.38-3.69,2.24-6.81
					l0.01-3.2c0.05-0.59,0.06-1.22,0.03-1.87l-0.02-0.37C401.69,347.53,401.68,347.47,401.67,347.41"/>
			</g>
			<g>
				<path class="st0" d="M350.62,324.61c-1.62-1.2-3.99-1.81-7.06-1.81c-1.81,0-3.41,0.32-4.74,0.94c-1.38,0.65-2.51,1.74-3.37,3.27
					c-0.84,1.49-1.27,3.38-1.27,5.62v9.23h-13.67v-9.91c0-3.66-0.8-6.05-2.46-7.33c-1.57-1.21-3.97-1.82-7.15-1.82
					c-2.8,0-5.1,0.81-6.82,2.39c-1.74,1.61-2.63,4.11-2.63,7.44l0.23,31.74c0,4.25,0.73,7.16,2.22,8.91c1.51,1.76,3.86,2.65,7,2.65
					c3.3,0,5.76-0.96,7.31-2.85c1.54-1.87,2.29-4.89,2.29-9.24v-5.41h13.77l0.05,5.94c0,4.25,0.73,7.16,2.22,8.91
					c1.51,1.76,3.86,2.65,7,2.65c3.19,0,5.62-0.97,7.23-2.88c1.6-1.9,2.37-4.91,2.37-9.2v-31.9
					C353.16,328.29,352.33,325.89,350.62,324.61"/>
			</g>
		</g>
		<g>
			<polygon class="st1" points="479.97,107.37 501.24,103.62 505.25,141.94 489.38,144.74 			"/>
			<path class="st1" d="M509.52,156.69c0.93,5.29-2.6,10.34-7.9,11.27c-5.29,0.93-10.34-2.6-11.28-7.89
				c-0.93-5.29,2.6-10.34,7.9-11.28C503.54,147.87,508.58,151.4,509.52,156.69"/>
			<polygon class="st1" points="396.75,122.69 389.6,143.42 375.78,126.38 353.33,130.34 382.86,167.91 386.45,188.29 
				387.26,188.14 407.16,184.64 407.97,184.49 404.36,163.98 419.2,118.73 			"/>
			<path class="st1" d="M449.28,160.28l-2.5-0.42l3.88-23.08l3.55,0.42L449.28,160.28z M444.82,154.53l-2.48-0.04l-0.72-23.42
				l3.55,0.06L444.82,154.53z M451.36,113.06l-19.82,3.49l-14.45,66.33l29.54-5.21l-0.3-1.72c-4.67-1.36-8.41-5.25-9.31-10.36v0
				l25.97-4.58c0.9,5.09-1.26,9.99-5.14,12.87l0.31,1.76l13.87-2.45l15.59-2.75L451.36,113.06z"/>
			<path d="M145.4,121.51h-14.48v-2.4h14.48V121.51z M146.13,123.55c-0.02,1.74-0.32,3.39-0.9,4.92c-0.58,1.54-1.53,2.81-2.84,3.83
				c-1.31,1.02-2.8,1.71-4.47,2.09c-1.66,0.37-3.4,0.59-5.2,0.65l-0.56-2.47c3.54-0.19,6.11-0.79,7.72-1.8
				c1.6-1.01,2.64-2.58,3.1-4.72h-12.65v-2.49H146.13z"/>
			<rect x="149.87" y="125.58" width="17.48" height="2.53"/>
			<path d="M184.96,118.64c-0.48,2.92-1.5,5.61-3.06,8.06c1.54,1.1,3.1,2.34,4.69,3.73l-2.1,2.28c-0.93-1.01-2.36-2.25-4.29-3.69
				c-2.54,2.94-5.71,4.95-9.53,6.05l-1.21-2.36c1.48-0.42,2.96-1.13,4.45-2.11c1.49-0.98,2.78-2.1,3.89-3.34
				c-1.07-0.74-3.05-1.93-5.97-3.57l1.68-2.03c2.28,1.19,4.26,2.31,5.91,3.36c1.33-2.2,2.18-4.44,2.54-6.72L184.96,118.64z"/>
			<path d="M207.71,125.1c-1.61,2.98-3.71,5.24-6.31,6.8c-2.59,1.56-5.88,2.53-9.85,2.92l-0.65-2.66c2.17-0.2,3.98-0.53,5.43-0.99
				c1.44-0.46,2.71-1.07,3.8-1.82c1.09-0.75,2.02-1.52,2.78-2.29c0.76-0.78,1.6-1.94,2.52-3.48L207.71,125.1z M199.99,122.77
				l-1.74,2.36c-0.94-0.6-1.77-1.11-2.5-1.52c-0.73-0.41-2.37-1.26-4.92-2.55l1.5-2.18C194.32,119.68,196.87,120.97,199.99,122.77"
				/>
			<path d="M220.56,125.46c-0.24,0.42-0.53,0.88-0.85,1.37c1.91-0.03,3.36-0.08,4.34-0.13c-0.34-0.36-0.63-0.64-0.87-0.85l0.9-0.39
				H220.56z M214.1,120.85h11.62v-1.13H214.1V120.85z M229.04,135.21l-15.9-0.08v-2.07h6.54v-1.15h-5.08v-1.99h5.08v-1.09
				c-1.99,0.09-3.6,0.14-4.84,0.14l-0.24-2.09l2.34-0.02c0.25-0.41,0.51-0.88,0.79-1.41h-3.15v-1.96h14.35v1.96h-2.93
				c1.37,1.26,2.39,2.26,3.07,3l-2.44,1l-0.95-1.03c-0.79,0.08-1.84,0.16-3.13,0.25v1.25h5.4v1.99h-5.4v1.15h6.48V135.21z
				 M228.21,122.49h-14.12l-0.01,3.39c-0.01,2-0.25,3.9-0.72,5.7c-0.47,1.8-0.98,3.08-1.53,3.84l-2.09-1.12
				c0.57-1.11,0.99-2.35,1.26-3.71c0.27-1.36,0.41-2.66,0.41-3.9v-8.72h16.81V122.49z"/>
			<polygon points="373.71,145.76 360.03,145.76 360.03,162.06 345.65,145.76 345.33,145.76 331.56,145.76 331.57,188.25 
				345.65,188.25 345.65,170.08 361.04,188.24 361.04,188.26 361.06,188.26 361.38,188.26 372.4,188.26 373.72,188.26 			"/>
			<polygon points="301.99,172.31 319.64,172.31 319.64,161.7 301.99,161.7 301.99,156.38 324.05,156.38 324.05,145.76 
				301.99,145.77 301.99,145.76 288.3,145.76 288.3,145.77 288.3,145.77 288.3,156.38 288.3,156.38 288.31,161.7 288.3,161.7 
				288.3,172.31 288.31,172.31 288.31,177.64 288.3,177.64 288.3,188.25 288.31,188.25 302,188.25 302,188.24 324.05,188.24 
				324.05,177.63 301.99,177.63 			"/>
			<polygon points="265.66,145.76 265.66,145.77 254.25,158.68 242.84,145.77 242.84,145.76 229.16,145.76 229.16,188.24 
				242.85,188.24 242.84,165.73 254.25,178.49 265.65,165.73 265.65,188.24 279.33,188.24 279.34,145.76 			"/>
			<path d="M196.05,171.55l3.87-9.74l3.87,9.74H196.05z M206.72,145.79h-13.6l-17.44,42.5h16.24l2.42-5.72h11.16l2.42,5.72h16.24
				L206.72,145.79z"/>
			<path d="M152.85,162.53L152.85,162.53L152.85,162.53h-8.24v-5.81h8.23v0h0.01c1.6,0,2.9,1.3,2.9,2.9
				C155.75,161.23,154.45,162.53,152.85,162.53 M162.46,172.79c4.35-2.54,7.27-7.25,7.27-12.64c0-8.07-6.56-14.63-14.63-14.63
				h-10.79v0.01h-13.88l0.01,42.73h14.15l0-13.47h3.1l7.42,13.47h16.62L162.46,172.79z"/>
		</g>
	</g>
	<g>
		<g>
			<g>
				<g>
					<path d="M338.3,216.2c-1.68-0.76-2.67-0.6-2.96,0.02l-35.29,82.09c-0.2,0.47,0.01,1.02,0.48,1.24h0
						c0.47,0.21,1.02,0.01,1.25-0.46l38.45-80.66C340.51,217.82,339.98,216.96,338.3,216.2z"/>
				</g>
				<g>
					<path d="M300.91,301.15c-0.34,0-0.68-0.07-1.01-0.22c-1.21-0.55-1.77-1.99-1.24-3.21l35.29-82.09c0.4-0.88,1.22-1.4,2.27-1.44
						c0.77-0.04,1.68,0.18,2.69,0.64h0c1.02,0.46,1.78,1,2.26,1.6c0.66,0.82,0.81,1.78,0.43,2.63l-38.46,80.68
						C302.72,300.63,301.83,301.15,300.91,301.15z M336.56,217.22l-23.67,55.05l25.79-54.09c-0.16-0.14-0.46-0.35-1.01-0.6
						C337.12,217.33,336.77,217.24,336.56,217.22z"/>
				</g>
			</g>
		</g>
		<g>
			<g>
				<g>
					<path d="M301.69,216.2c1.68-0.76,2.67-0.6,2.96,0.02l35.29,82.09c0.2,0.47-0.01,1.02-0.48,1.24l0,0
						c-0.47,0.21-1.02,0.01-1.25-0.46l-38.45-80.66C299.47,217.82,300.01,216.96,301.69,216.2z"/>
				</g>
				<g>
					<path d="M339.07,301.15c-0.92,0-1.81-0.52-2.23-1.4l-38.45-80.66c-0.2-0.45-0.96-2.62,2.67-4.26l0,0
						c3.63-1.64,4.77,0.36,4.96,0.78l35.3,82.12c0.53,1.22-0.03,2.66-1.25,3.21C339.75,301.08,339.41,301.15,339.07,301.15z
						 M301.3,218.18l25.78,54.08l-23.66-55.04c-0.21,0.03-0.56,0.11-1.11,0.36l0,0C301.76,217.83,301.46,218.04,301.3,218.18z"/>
				</g>
			</g>
		</g>
	</g>
</g>
</svg>
