<?xml version="1.0" encoding="utf-8"?>
<!-- Generator: Adobe Illustrator 28.3.0, SVG Export Plug-In . SVG Version: 6.00 Build 0)  -->
<svg version="1.1" id="Layer_1" xmlns="http://www.w3.org/2000/svg" xmlns:xlink="http://www.w3.org/1999/xlink" x="0px" y="0px"
	 viewBox="0 0 640 480" style="enable-background:new 0 0 640 480;" xml:space="preserve">
<style type="text/css">
	.st0{fill:#E72329;}
</style>
<g>
	<g>
		<g>
			<path class="st0" d="M299.28,161.32c-2.08,0.98-4.05,2.15-5.9,3.48v62.4c0.93,0.66,1.88,1.29,2.86,1.87
				c4.41,2.36,10.51,3.77,17.37,4.05v-74.77l-2.74,0.37c-0.86,0.12-1.64,0.21-2.38,0.3C305.25,159.43,303.29,159.67,299.28,161.32z"
				/>
			<path class="st0" d="M373.15,116.51c3.88,0,7.76,0.25,11.59,0.88c3.87,0.64,7.82,1.65,11.14,3.23
				c13.71,7.38,23.04,21.85,23.04,38.51c0,18.71-11.61,35.45-28.28,41.29c-4.48,1.57-13.39,1.97-17.44,2.07
				c-1.8,0.05-3.6,0.17-5.37,0.49c-16.09,2.87-29.3,14.8-34.26,30.19h19.91c3.73-11.56,12.15-21.02,23.02-26.14
				c5.75-2.39,8.22-2.34,13.03-3.01l12.29-1.68c20.96-3.23,37.02-21.35,37.02-43.22c0-19.35-12.57-35.74-29.98-41.51l0.02,0
				c0,0-1.28-0.47-3.9-1.11c-5.83-1.43-18.3-3.73-38.3-3.73h-0.01h0h-2.04c-0.11,1.25-0.27,2.5-0.48,3.73h1.24L373.15,116.51z"/>
			<path class="st0" d="M309.04,112.78c-8.65,0-15.65,7.01-15.65,15.65v18.11c0.1,0,0.2-0.01,0.3-0.01
				c7.15-0.18,13.2-0.86,15.81-1.77c0.94-0.33,1.87-0.7,2.78-1.11c0.83-0.38,1.35-1.23,1.35-2.14v-13.1
				c0-6.57,5.33-11.89,11.89-11.89h7.87c0.25-1.23,0.45-2.48,0.58-3.73h-20.34v0H309.04z"/>
			<path class="st0" d="M436.96,289.14h-41.3c-7.51,0.01-16.07-1.23-22.66-4.8c-12.67-7.43-21.27-21.06-21.62-36.72h-0.95l-18.49,0
				h-0.46c0.43,18.83,12.76,34.72,29.77,40.44c0,0,15.67,5.29,39.18,4.82c0.77-0.02,28.98,0,36.56,0c1.03,0,1.86-0.84,1.86-1.87
				C438.83,289.97,437.99,289.14,436.96,289.14z"/>
			<path class="st0" d="M293.38,292.87h20.23v-45.4c-8.05-0.32-14.88-1.13-20.23-2.01V292.87z"/>
			<path class="st0" d="M350.42,242.26c0.39,0,0.78,0,1.15,0c2.51,0,4.62,0,6.02,0c1.03,0,1.86-0.84,1.86-1.87
				c0-1.03-0.84-1.87-1.87-1.87h-5.48h-19.9h-15.92c-0.04,0-0.08,0-0.12,0c-0.84,0-1.69-0.02-2.54-0.05
				c-6.82-0.26-14.17-1.6-20-4.74c-0.08-0.05-0.16-0.1-0.24-0.14c-12.81-7.62-21.4-21.6-21.4-37.59c0-15.99,8.59-29.96,21.4-37.58
				c1.21-0.72,2.45-1.38,3.73-1.99c5.75-2.39,8.22-2.34,13.03-3.01l3.48-0.47l8.82-1.2c18.35-2.83,32.94-17.06,36.29-35.23
				c0.23-1.23,0.4-2.47,0.52-3.73c0.14-1.4,0.21-2.82,0.21-4.26c0-19.35-12.57-35.74-29.98-41.51l0.02,0c0,0-1.28-0.47-3.91-1.11
				c-5.83-1.43-18.3-3.73-38.3-3.73h-0.01h0h-53.04v0h-4.58c-8.65,0-15.65,7.01-15.65,15.65v164.44h20.23V77.79
				c0-6.57,5.32-11.89,11.89-11.89h39.87h7.77c3.88,0,7.76,0.25,11.59,0.88c3.87,0.64,7.82,1.65,11.14,3.23
				c13.71,7.38,23.04,21.85,23.04,38.51c0,1.43-0.08,2.85-0.21,4.26c-0.12,1.26-0.29,2.5-0.51,3.73
				c-2.61,14.49-12.15,26.85-25.2,32.38c-0.77,0.33-1.56,0.64-2.36,0.92c-4.48,1.57-13.39,1.97-17.44,2.07
				c-0.15,0-0.29,0.01-0.43,0.02c-1.66,0.05-3.31,0.18-4.94,0.47c-20.53,3.67-36.38,22.08-36.38,43.62
				c0,19.28,12.47,35.62,29.79,41.45c0,0,4.15,1.32,11.53,2.58c5.23,0.89,12.08,1.75,20.23,2.09c2.3,0.1,4.7,0.15,7.2,0.15
				c0.07,0,0.15,0,0.22,0c0.1,0,0.62,0,1.49,0c1.83,0,5.18,0,9.14,0C337.56,242.26,344.81,242.26,350.42,242.26z"/>
		</g>
	</g>
	<g>
		<path class="st0" d="M178.49,331.2h8.61c5.18,0,7.59,0.62,9.28,1.7c2.68,1.61,4.51,5.13,4.51,8.88c0.05,2.23-0.58,4.6-1.96,6.47
			c-1.96,2.68-4.33,3.3-7.36,3.61l8.21,12.36h-4.02l-9.33-14.42h1.07c2.32,0,5.53-0.04,7.32-1.7c1.74-1.7,2.5-3.7,2.5-6.07
			c0-2.46-1.2-5.04-3.26-6.38c-1.65-1.07-3.7-1.21-6.69-1.21h-5.18v29.77h-3.7V331.2z"/>
		<path class="st0" d="M213.1,364.23h-3.97l13.79-33.03h3.57l13.66,33.03h-4.02l-3.84-9.28h-15.4L213.1,364.23z M224.57,335.35
			l-6.56,16.56h13.17L224.57,335.35z"/>
		<path class="st0" d="M253.28,364.23V331.2h5.18l12.23,27.72l12.18-27.72h5.18v33.03h-3.48l0.09-29.37l-12.81,29.37h-2.37
			l-12.85-29.37l0.09,29.37H253.28z"/>
		<path class="st0" d="M304.6,331.2h18.3v3.26h-14.64v11.47h14.55v3.26h-14.55v11.78h14.64v3.26h-18.3V331.2z"/>
		<path class="st0" d="M361,358.78l-0.04-27.58h3.57v33.03h-3.57l-19.59-27.8l0.09,27.8h-3.57V331.2h3.75L361,358.78z"/>
		<path class="st0" d="M198.7,384.23h8.61c5.18,0,7.59,0.62,9.28,1.7c2.68,1.61,4.51,5.13,4.51,8.88c0.05,2.23-0.58,4.6-1.96,6.47
			c-1.96,2.68-4.33,3.3-7.36,3.61l8.21,12.36h-4.02l-9.33-14.42h1.07c2.32,0,5.53-0.04,7.32-1.7c1.74-1.7,2.5-3.7,2.5-6.07
			c0-2.46-1.2-5.04-3.26-6.38c-1.65-1.07-3.7-1.21-6.69-1.21h-5.18v29.77h-3.7V384.23z"/>
		<path class="st0" d="M235.4,384.23h18.3v3.26h-14.64v11.47h14.55v3.26h-14.55v11.78h14.64v3.26h-18.3V384.23z"/>
		<path class="st0" d="M270.05,408.06c0.54,5.49,4.55,6.65,6.61,6.65c3.44,0,6.61-2.63,6.61-6.29c0-4.64-3.97-5.67-7.81-6.92
			c-2.68-0.8-8.44-2.5-8.44-8.75c-0.09-5.85,4.78-9.1,9.82-9.1c4.11,0,8.84,2.28,9.37,8.52h-3.66c-0.4-2.14-1.47-5.4-5.85-5.4
			c-3.3,0-6.03,2.23-6.03,5.67c-0.04,4.02,3.21,5,8.21,6.69c3.12,1.21,8.03,2.95,8.03,9.02c0,5.4-4.06,9.68-10.22,9.68
			c-5.53,0-10.13-3.48-10.35-9.77H270.05z"/>
		<path class="st0" d="M301.77,384.23h18.3v3.26h-14.64v11.47h14.55v3.26h-14.55v11.78h14.64v3.26h-18.3V384.23z"/>
		<path class="st0" d="M334.91,384.23h8.61c5.18,0,7.59,0.62,9.28,1.7c2.68,1.61,4.51,5.13,4.51,8.88c0.04,2.23-0.58,4.6-1.96,6.47
			c-1.96,2.68-4.33,3.3-7.36,3.61l8.21,12.36h-4.02l-9.33-14.42h1.07c2.32,0,5.53-0.04,7.32-1.7c1.74-1.7,2.5-3.7,2.5-6.07
			c0-2.46-1.21-5.04-3.26-6.38c-1.65-1.07-3.7-1.21-6.69-1.21h-5.18v29.77h-3.7V384.23z"/>
		<path class="st0" d="M367.73,384.23h3.88l10.93,28.25l10.98-28.25h3.88l-13.12,33.03h-3.53L367.73,384.23z"/>
		<path class="st0" d="M410.55,384.23h18.3v3.26h-14.64v11.47h14.55v3.26h-14.55v11.78h14.64v3.26h-18.3V384.23z"/>
		<path class="st0" d="M410.52,317.15c-0.5,0-0.91,0.4-0.91,0.9v6.26v0.96c-0.25,7.49-6.39,13.48-13.94,13.48h0
			c-7.55,0-13.68-6-13.94-13.48v-0.96v-6.26c0-0.5-0.41-0.9-0.91-0.9h-4.44c-0.5,0-0.91,0.4-0.91,0.9v2.69
			c0,5.74,2.41,10.91,6.26,14.59c2.48,2.37,5.57,4.11,9.01,4.97c1.16,0.29,1.99,1.32,1.99,2.52v20.56c0,0.42,0.34,0.76,0.76,0.76
			h4.74c0.42,0,0.76-0.34,0.76-0.76l0-20.65c0-1.18,0.8-2.2,1.94-2.51c3.44-0.92,6.53-2.72,8.98-5.17
			c3.68-3.66,5.95-8.72,5.95-14.31v-2.69c0-0.5-0.41-0.9-0.91-0.9H410.52z"/>
		<path class="st0" d="M447.96,321.92c-0.96-2.92-3.68-4.89-6.76-4.89h-3.75c-3.08,0-5.8,1.97-6.76,4.9l-13.52,41.22
			c-0.05,0.17-0.03,0.35,0.08,0.49c0.1,0.14,0.27,0.23,0.44,0.23h5.16c0.24,0,0.45-0.15,0.52-0.38l6.46-19.69
			c0.48-1.47,1.85-2.46,3.39-2.46h12.21c1.54,0,2.91,0.99,3.39,2.46l6.46,19.69c0.07,0.23,0.28,0.38,0.52,0.38h5.16
			c0.18,0,0.34-0.08,0.44-0.23c0.1-0.14,0.13-0.33,0.08-0.49L447.96,321.92z M445,339.06h-11.34c-1.12,0-1.92-1.1-1.57-2.16
			l5.64-17.19c0.09-0.26,0.33-0.44,0.6-0.44h1.99c0.27,0,0.52,0.18,0.6,0.44l5.64,17.19C446.91,337.97,446.12,339.06,445,339.06z"/>
	</g>
</g>
</svg>
