<?xml version="1.0" encoding="utf-8"?>
<!-- Generator: Adobe Illustrator 28.3.0, SVG Export Plug-In . SVG Version: 6.00 Build 0)  -->
<svg version="1.1" id="Layer_1" xmlns="http://www.w3.org/2000/svg" xmlns:xlink="http://www.w3.org/1999/xlink" x="0px" y="0px"
	 viewBox="0 0 640 480" style="enable-background:new 0 0 640 480;" xml:space="preserve">
<style type="text/css">
	.st0{fill:#FFFFFF;}
	.st1{fill:#F9B1A2;}
	.st2{fill:#EF5A28;}
	.st3{fill:#D8372B;}
	.st4{fill:#F0F0F1;}
	.st5{fill:#F9CAA0;}
	.st6{fill:#F99787;}
	.st7{fill:#FA4F03;}
</style>
<g>
	<g>
		<g>
			<path d="M406.5,294.58L406.5,294.58c0-13.23-10.83-24.06-24.06-24.06H261.46c-13.23,0-24.06,10.83-24.06,24.06v0
				c0,13.23,10.83,24.06,24.06,24.06h120.98C395.68,318.64,406.5,307.82,406.5,294.58z"/>
		</g>
		<g>
			<g>
				<path class="st0" d="M286.96,283.63l-0.04,3.87c-5.79-0.23-9.69-0.35-11.72-0.38l-0.26,6.16c0.6,1.45,0.9,3.21,0.9,5.26
					c0,4.03-0.88,6.88-2.63,8.55c-1.75,1.67-4.52,2.99-8.31,3.96l-2.33-3.34c2.63-0.73,4.59-1.52,5.86-2.37
					c1.28-0.85,2.3-1.95,3.08-3.31c-1.65,0.63-2.99,0.94-4.02,0.94c-1.43,0-2.76-0.61-3.98-1.84c-1.23-1.23-1.84-2.73-1.84-4.51
					c0-2.2,0.57-3.95,1.71-5.24c1.14-1.29,2.71-1.94,4.72-1.94c0.95,0,1.94,0.14,2.97,0.41v-2.74c-6.79,0.05-12.79,0.36-18,0.94
					l-0.53-4.21c6.81-0.33,12.99-0.53,18.53-0.6c0-2.61-0.01-4.41-0.04-5.41l4.28,0.23c0.3,0.03,0.45,0.11,0.45,0.26
					c0,0.15-0.03,0.3-0.08,0.45c-0.2,0.58-0.34,2.05-0.41,4.43C278.93,283.27,282.82,283.4,286.96,283.63z M270.91,294.6
					c-0.5-1.1-1.35-1.65-2.56-1.65c-1.78,0-2.67,0.88-2.67,2.63c0,1.2,0.14,2.07,0.43,2.59c0.29,0.53,0.86,0.79,1.71,0.79
					c0.85,0,1.46-0.1,1.82-0.3c0.36-0.2,0.64-0.61,0.85-1.24C270.7,296.79,270.84,295.85,270.91,294.6z"/>
			</g>
			<g>
				<path class="st0" d="M323.44,297.93c-1.23,4.11-3.18,7.23-5.84,9.36c-2.67,2.13-5.68,3.19-9.04,3.19s-5.88-0.99-7.57-2.97
					c-1.69-1.98-2.54-5.07-2.54-9.28c0-6.91,0.14-13.52,0.41-19.8l4.51,0.34c0.23,0.03,0.34,0.13,0.34,0.32
					c0,0.19-0.03,0.46-0.08,0.81c-0.43,2.78-0.72,5.27-0.88,7.48c-0.16,2.2-0.24,4.97-0.24,8.29c0,3.32,0.13,5.64,0.39,6.95
					c0.26,1.32,0.84,2.17,1.73,2.57c0.89,0.4,2.26,0.6,4.11,0.6c4.73,0,8.54-3.71,11.42-11.12L323.44,297.93z"/>
			</g>
			<g>
				<path class="st0" d="M339.15,301.53l-8.51-8.51l8.65-8.65l8.51,8.51L339.15,301.53z"/>
			</g>
			<g>
				<path class="st0" d="M378.94,284.98c1.15-0.15,2.17-0.23,3.04-0.23c2.71,0,4.63,0.74,5.77,2.22c1.14,1.48,1.71,3.07,1.71,4.77
					c0,1.28-0.32,2.53-0.96,3.76c-0.64,1.23-1.7,2.2-3.17,2.91c-1.48,0.71-3.16,1.07-5.04,1.07c-0.65,0-1.35-0.04-2.1-0.11
					l-1.35-3.91c0.55,0.05,1.09,0.08,1.62,0.08c1.83,0,3.38-0.21,4.64-0.62c1.27-0.41,1.9-1.25,1.9-2.5c0-2.28-1.48-3.42-4.43-3.42
					c-1.08,0-2.47,0.16-4.19,0.47c-1.72,0.31-4.25,0.92-7.61,1.82c2.28,7.77,4.01,14.2,5.19,19.32l-4.25,0.71
					c-1.43-6.91-3.09-13.22-5-18.9c-2,0.53-4.77,1.18-8.31,1.95l-1.01-3.68l8-2.18c-1.33-3.68-2.39-6.39-3.19-8.12l3.53-1.05
					c0.15-0.05,0.31-0.08,0.47-0.08c0.16,0,0.26,0.1,0.28,0.3c0.07,0.43,0.29,1.06,0.66,1.9c0.36,0.84,1.13,2.84,2.31,5.99
					c4.21-1,6.76-1.6,7.67-1.8c0.08-3.23-0.13-5.45-0.6-6.65c-0.03-0.07-0.04-0.14-0.04-0.19c0-0.2,0.18-0.33,0.53-0.38l3.57-0.41
					c0.27,1.65,0.41,3.08,0.41,4.27C378.98,283.49,378.97,284.38,378.94,284.98z"/>
			</g>
		</g>
	</g>
	<g>
		<path class="st0" d="M413.37,240.6C413.37,240.6,413.37,240.6,413.37,240.6c0.83-0.91,2.29-1.67,3.87-1.58
			c0.66-0.32,1.37-0.77,2.11-1.24l0.32-0.2c1.05-0.67,2.04-1.54,3.03-2.67c0.79-0.91,1.48-2.11,2.12-3.67
			c0.92-2.26,2.45-3.83,3.68-5.1c0.05-0.05,0.11-0.11,0.16-0.16c-0.35-0.3-0.7-0.6-1.05-0.89c-1.06-0.88-1.96-1.97-2.69-3.26
			c-0.55-0.97-0.95-1.96-1.3-2.83l-0.15-0.37c-0.18-0.43-0.3-0.83-0.41-1.18c-0.08-0.23-0.18-0.56-0.23-0.66
			c-0.36-0.67-0.77-1.34-1.2-2.06c-0.23-0.38-0.46-0.76-0.69-1.14c-0.25-0.23-0.48-0.5-0.66-0.79c-0.68-0.49-2.13-1.59-2.51-3.66
			c-0.17-0.94,0.01-1.92,0.51-2.73c0.93-1.52,2.81-3.13,6.49-2.22l0.12,0.03c1.47,0.36,3.01,0.78,4.86,1.33l0.06,0.02
			c0.91,0.27,2.05,0.61,3.16,1.23c1.56,0.87,3.09,1.79,4.58,2.68c0.54,0.33,1.09,0.65,1.63,0.98l0.14,0.08
			c0.38,0.22,0.81,0.48,1.24,0.77c0.91,0.61,1.82,1.23,2.72,1.86l0.48,0.34c0.25,0.17,0.51,0.35,0.77,0.54
			c0.24-0.34,0.49-0.72,0.75-1.13c0.29-0.45,0.59-0.93,0.94-1.41c0.23-0.32,0.45-0.66,0.67-0.99c0.31-0.47,0.63-0.96,1-1.46
			c0.38-0.52,0.77-0.99,1.14-1.45c0.25-0.31,0.51-0.63,0.75-0.95c0.46-0.6,0.91-1.21,1.36-1.82c0.89-1.2,1.82-2.44,2.81-3.66
			c0.88-1.08,1.98-2.03,3.18-2.75c1.42-0.86,2.86-1.62,4.32-2.37c-1.29-1.68-2.27-3.12-3.09-4.52c-0.96-1.66-1.71-3.41-2.38-5.05
			c-0.49-1.19-0.73-2.39-0.91-3.43c-0.46-2.56,0-4.86,0.44-6.57l0.13-0.52c0.23-0.89,0.46-1.8,0.79-2.77
			c0.4-1.18,0.94-2.16,1.42-3.02l0.23-0.42c0.01-0.02,0.03-0.05,0.04-0.07c-0.08-0.31-0.16-0.64-0.23-0.98
			c-0.18-0.95-0.05-1.74,0.03-2.21c0-0.03,0.01-0.06,0.01-0.09c0-0.02,0-0.04,0-0.05c-0.09-0.4-0.16-1.05,0.01-1.83
			c0.1-0.41,0.2-0.82,0.3-1.22c0.07-0.28,0.14-0.57,0.21-0.85c-0.02-0.13-0.04-0.28-0.05-0.44c-0.1-1.52,0.14-3.02,0.71-4.45
			c0.11-0.27,0.2-0.55,0.3-0.83c0.24-0.68,0.51-1.46,0.92-2.26c0.94-1.81,2.57-3.06,4.59-3.53c0.13-0.03,0.23-0.06,0.31-0.08
			c0.23-0.12,0.6-0.31,1.1-0.46c0.61-0.18,1.14-0.21,1.43-0.22l0.07,0c0.13-0.01,0.27-0.03,0.4-0.05c0.49-0.06,1.17-0.15,1.93-0.11
			c0.9,0.05,1.77,0.15,2.61,0.24c0.37,0.04,0.73,0.08,1.09,0.11c0.1,0.01,0.2,0.01,0.3,0.02c0.22,0.01,0.43,0.02,0.65,0.04
			c1.93,0.19,3.57,0.81,5.02,1.36c0.47,0.18,0.94,0.36,1.42,0.52c0.05,0.02,0.09,0.03,0.12,0.04c2.16-0.72,4.3-1.05,6.36-0.98
			l0.38,0.01c1.41,0.04,3.17,0.1,5.03,0.91c0.26,0.11,0.66,0.23,1.08,0.34c1.06,0.3,2.38,0.67,3.69,1.61c0.1,0.07,0.2,0.14,0.3,0.21
			c0.9,0.61,2.57,1.74,3.16,4.06c0.07,0.26,0.14,0.52,0.21,0.78c0.23,0.85,0.5,1.81,0.62,2.88c0.15,1.35,0.25,2.68,0.34,3.98
			c0.07,0.96,0.14,1.93,0.23,2.89c0.09,0.94-0.03,1.76-0.27,2.46c0.28,0.45,0.51,0.9,0.73,1.33c0.22,0.42,0.55,1.06,0.73,1.88
			c0.1,0.46,0.15,0.87,0.19,1.2c0.02,0.15,0.03,0.31,0.06,0.46l0.03,0.13c0.17,0.86,0.34,1.67,0.55,2.43
			c0.29,1.02,0.57,1.92,0.88,2.74c0.27,0.37,0.71,0.98,0.98,1.86l0.02,0.04c0.27,0.62,0.99,2.28,0.14,4.29
			c-0.79,1.86-2.06,3.25-3.73,4.1l-0.1,0.06c-0.19,0.11-0.44,0.26-0.75,0.4c0,0,0,0-0.01,0c-0.04,0.04-0.09,0.07-0.13,0.11
			c-0.02,0.03-0.03,0.06-0.05,0.1l-0.33,0.62c-0.06,0.12-0.12,0.23-0.18,0.35c-0.22,0.44-0.5,0.98-0.9,1.55
			c-0.41,0.58-0.83,1.11-1.23,1.62c-0.22,0.28-0.44,0.57-0.66,0.84c-0.06,0.08-0.11,0.18-0.17,0.27c-0.34,0.56-0.9,1.49-1.93,2.2
			c-0.2,0.14-0.39,0.27-0.59,0.4c0.65-0.05,1.36-0.01,2.12,0.15c0.09-0.11,0.18-0.22,0.28-0.33c0.97-1.04,2.34-1.59,3.83-1.59
			c2.01,0.02,3.67,0.51,5.09,1.5l0.37,0.26c0.88,0.62,1.8,1.26,2.7,2.02c0.66,0.56,1.21,1.14,1.69,1.66c0.18,0.2,0.37,0.4,0.56,0.59
			c0.15,0.15,0.31,0.3,0.47,0.45c0.46,0.43,1.02,0.96,1.54,1.64c0.56,0.73,1.04,1.46,1.51,2.16c0.27,0.4,0.54,0.81,0.82,1.2
			c0.13,0.18,0.21,0.28,0.25,0.33c1.5,0.46,3.09,0.99,4.68,1.88c0.37,0.21,0.76,0.4,1.14,0.59c1.12,0.56,2.39,1.2,3.61,2.21
			c0.66,0.54,1.37,1.07,2.11,1.62c0.89,0.66,1.81,1.34,2.72,2.11c1.02,0.87,1.88,1.83,2.64,2.68c0.17,0.2,0.35,0.39,0.53,0.59
			c0.51,0.56,1,1.2,1.53,2.02c0.29,0.44,0.56,0.88,0.82,1.33c0.27,0.45,0.53,0.88,0.79,1.27l0.21,0.31c0.47,0.68,1.11,1.6,1.51,2.81
			c0.21,0.07,0.41,0.14,0.61,0.22c0.95,0.38,1.9,0.85,2.92,1.46c1.74,1.03,2.92,2.87,3.16,4.92c0.21,1.84-0.35,3.61-1.54,4.9
			c-0.21,2.45-1.66,4.38-4.07,5.38c-1.31,0.54-2.69,0.82-4.12,0.84c-0.03,0.04-0.05,0.09-0.07,0.13c-0.98,1.89-2.42,3.09-3.74,4.01
			c-0.03,0.06-0.07,0.13-0.1,0.19c-0.06,0.12-0.13,0.24-0.19,0.36l-0.02,0.04c-0.08,0.18-0.19,0.44-0.36,0.75
			c-0.17,0.29-0.34,0.58-0.52,0.86c-0.22,0.34-0.42,0.67-0.52,0.89c-1.42,3.24-3.5,5.78-6.18,7.54c-2.27,1.49-4.72,2.44-7.26,2.8
			l-0.11,0.02c-0.41,0.07-1.19,0.21-2.1,0.05l-0.59-0.1c-1.59-0.26-3.55-0.59-5.45-1.76c-0.05-0.02-0.1-0.04-0.16-0.06
			c-0.58-0.23-1.57-0.64-2.37-1.57c-1.04,0.09-2.29,0.12-3.6-0.21c-0.56,0.41-1.13,0.76-1.67,1.1c-0.44,0.71-1.11,1.42-2.12,2.02
			c0.83,1.21,1.55,2.31,2.26,3.46c0.36,0.58,0.62,1.14,0.86,1.63c0.18,0.38,0.35,0.73,0.5,0.96c0.47,0.71,0.97,1.41,1.5,2.16
			c0.84,1.17,1.7,2.38,2.48,3.7c1.08,1.83,2.49,3.47,3.96,5.13c0.28,0.31,0.57,0.62,0.86,0.93c0.75,0.79,1.6,1.7,2.34,2.78
			c1.04,1.54,1.93,3.11,2.79,4.64c0.23,0.41,0.47,0.83,0.71,1.24c0.34,0.6,0.67,1.2,1,1.81c0.43,0.79,0.83,1.54,1.26,2.25
			c0.24,0.4,0.6,0.85,0.97,1.32c0.24,0.3,0.47,0.61,0.7,0.91c0.28,0.38,0.56,0.77,0.84,1.15c0.49,0.68,0.96,1.32,1.44,1.93
			c1.14,1.45,2.35,2.97,3.72,4.67c0.33-0.07,0.67-0.12,1.03-0.14c0.44-0.03,0.87-0.08,1.3-0.14c0.72-0.09,1.53-0.18,2.39-0.21
			c2.26-0.06,4.34,0.78,5.79,2.38c0.69,0.77,1.18,1.56,1.61,2.25l0.24,0.38c0.56,0.88,1.02,2.33,0.09,4.24
			c-0.18,0.37-0.38,0.66-0.52,0.86c-0.04,0.06-0.07,0.13-0.1,0.19c-0.26,0.5-0.65,1.25-1.39,1.94c-1.76,1.65-3.6,2.87-5.61,3.73
			c-0.88,0.37-1.61,0.8-2.14,1.25c-1.59,1.35-3.31,2.12-4.82,2.8c-0.39,0.17-0.78,0.35-1.16,0.53c-2.38,1.15-4.96,1.9-7.67,2.24
			c-2.12,0.27-3.77,0.37-5.35,0.37c-1.18-0.01-2.17-0.3-2.97-0.53c-0.21-0.06-0.42-0.13-0.64-0.18c-3.64-0.88-5.35-3.09-6.11-4.75
			l-0.03-0.06c-0.18-0.34-0.55-1.04-0.63-1.98c-0.91-0.81-1.81-1.62-2.72-2.43c-0.69-0.62-1.38-1.24-2.07-1.85
			c-0.35-0.31-0.71-0.62-1.07-0.93c-0.69-0.6-1.41-1.23-2.12-1.9c-0.96-0.92-1.91-1.86-2.82-2.76c-0.46-0.46-0.93-0.93-1.4-1.39
			c-0.59-0.58-1.18-1.15-1.78-1.72l-0.62-0.6c-0.63-0.6-1.25-1.2-1.89-1.79c-0.67-0.61-1.36-1.2-2.09-1.83l-0.24-0.21
			c-0.27,0.51-0.55,1.03-0.85,1.55c-0.76,1.31-1.71,2.93-3.26,4.27l-0.28,0.24c-1.5,1.31-3.06,2.66-5.02,3.76
			c-0.48,0.27-0.99,0.62-1.53,1c-0.67,0.46-1.44,0.99-2.28,1.46c-2.09,1.15-4.34,2.28-6.67,3.37c-1.45,0.68-3.01,1.27-4.77,1.83
			c-1.36,0.43-2.72,0.65-3.95,0.85c-1.33,0.22-2.64,0.42-4,0.52c0.1,0.23,0.21,0.46,0.3,0.69c0.64,1.56,0.36,3.86-1.4,5.11
			c-0.04,0.03-0.08,0.07-0.11,0.1c-0.49,0.44-1.39,1.27-2.87,1.6c-1.57,0.35-3.07,0.53-4.53,0.53c-0.95,0-1.88-0.07-2.8-0.22
			c-1.94-0.31-3.57-1.06-4.86-2.24c-1.66-1.53-3-3.47-3.96-5.78c-0.66-1.58-1.2-3.17-1.72-4.71c-0.18-0.53-0.36-1.07-0.54-1.6
			c-0.34-0.49-0.56-1.06-0.65-1.65c-0.02-0.11-0.03-0.22-0.04-0.33c-0.51-1.63-0.43-3.36,0.24-5.15c0.3-0.8,0.83-1.5,1.55-2.02
			c0.17-0.12,0.34-0.23,0.51-0.34l0.07-0.04c0.09-0.07,0.18-0.16,0.27-0.23c0.45-0.39,1.06-0.92,1.91-1.34
			c0.03-0.02,0.06-0.03,0.1-0.05c0.12-1.35,0.6-2.65,1.4-3.8c0.23-0.42,0.8-1.42,2.03-2.02c0.82-0.4,1.34-0.76,1.71-1.15
			c0.3-0.33,0.6-0.56,0.79-0.7l0.43-0.38c0.38-0.34,0.77-0.67,1.14-1.01c0.06-0.2,0.15-0.41,0.26-0.62c0.2-0.39,0.41-0.77,0.62-1.15
			c0.26-0.47,0.51-0.94,0.75-1.42c0.33-0.67,0.63-1.38,0.95-2.14l0.09-0.21c0.17-0.41,0.36-0.82,0.54-1.22
			c0.44-0.97,0.82-1.8,0.97-2.56c0.08-0.41,0.17-0.81,0.27-1.18c0.15-0.56,0.31-1.11,0.48-1.66c0.31-1.01,0.59-1.97,0.7-2.81
			c0.14-1.09,0.11-2.4-0.08-4.1c0-0.03-0.01-0.06-0.02-0.1c-0.42-0.06-0.84-0.12-1.26-0.18l-1.63-0.23
			c-2.98-0.42-4.93-2.63-4.95-5.63c-0.01-0.92-0.01-1.84-0.01-2.76c0-0.65,0-1.29,0-1.94c-0.01-1.53,0.5-2.98,1.5-4.31
			c0.24-0.32,0.45-0.65,0.63-1c0.29-0.55,0.4-1.4,0.53-2.39c0.05-0.41,0.11-0.81,0.18-1.21c0.02-0.12,0.02-0.46,0.02-0.7
			c0-0.46,0-1.02,0.07-1.65c0.08-0.64,0.21-1.21,0.33-1.71c0.08-0.33,0.15-0.63,0.18-0.86c0.1-0.74,0.16-1.5,0.23-2.3
			c0.04-0.46,0.08-0.91,0.13-1.37c-0.13,0.09-0.27,0.18-0.4,0.27c-0.26,0.17-0.52,0.34-0.78,0.52c-0.1,0.07-0.19,0.15-0.29,0.23
			c-0.43,0.35-1.08,0.88-1.97,1.25c-2.36,0.99-4.94,1.59-7.92,1.84c-1.9,0.16-3.75,0.08-5.48-0.04c-2.5-0.16-5.15-0.56-7.57-2.38
			l-0.17-0.12c-0.75-0.55-2.6-1.9-2.81-4.41c-0.03-0.12-0.06-0.24-0.08-0.37l-0.01-0.04C412.1,242.98,412.41,241.64,413.37,240.6z"
			/>
		<g>
			<g>
				<path class="st0" d="M521.52,230.92c-0.2-0.26-0.38-0.58-0.44-0.9c-0.38-1.92,0.15-3.58,1.58-4.92c0.16-0.15,0.4-0.29,0.6-0.3
					c0.7-0.04,1.4,0.04,2.1-0.04c1.12-0.12,1.88,0.36,2.75,1.03c0.9,0.69,1.49,1.5,1.99,2.43c0.48,0.9-0.02,3-0.73,3.77
					c-0.87,0.95-2.03,1.05-2.89,1.22C524.72,233.21,522.4,232.09,521.52,230.92z M522.37,229.46c0.33,0.72,0.68,1.43,1.46,1.8
					c1.06,0.51,2.13,1.01,3.35,0.8c0.27-0.05,0.53-0.22,0.76-0.38c0.14-0.1,0.22-0.28,0.34-0.41c1.17-1.36,0.88-2.48-0.22-3.93
					c-0.3-0.4-0.66-0.8-1.07-1.06c-0.58-0.37-1.25-0.63-1.92-0.95c0.15,0.61,0.36,1.05,0.35,1.49c-0.01,0.42-0.13,0.93-0.4,1.23
					c-0.56,0.62-1.06,0.51-2.3-0.33C522.37,228.25,522.07,228.81,522.37,229.46z"/>
			</g>
			<g>
				<g>
					<path class="st1" d="M502.69,203.51c-0.02,0.06-0.07,0.13-0.08,0.2c-0.1,0.64-0.35,1.22-1.01,1.42
						c-0.56,0.17-1.16,0.27-1.75,0.3c-0.58,0.03-1.17-0.09-1.75-0.13c-0.54-0.04-0.96,0.47-1.07,1.29c-0.21,1.51-1.75,2.8-3.26,2.78
						c-0.63-0.01-1.26,0.05-1.89,0.13c-0.58,0.08-1.28,0.96-1.29,1.57c-0.02,0.93-0.26,1.83-1,2.35c-0.57,0.4-1.36,0.6-2.07,0.69
						c-0.71,0.09-1.21,0.35-1.7,0.85c-0.57,0.59-0.81,1.28-1.01,2.03c-0.22,0.84-1.59,1.8-2.45,1.78c-0.58-0.01-1.07,0.11-1.42,0.7
						c-0.59,0.98-1.3,1.88-1.96,2.82c-0.11,0.16-0.2,0.34-0.31,0.52c1.24-0.24,2.45-0.48,3.68-0.72c-0.18-0.39-0.33-0.72-0.49-1.04
						c0.99-0.68,0.68-0.49,1.75,0.71c0.6-0.18,1.2-0.37,1.9-0.58c-0.61-0.52-1.18-1-1.73-1.47c0.27-0.6,0.65-0.61,1.08-0.33
						c0.38,0.24,0.76,0.48,1.1,0.76c0.82,0.67,1.47,0.61,2.15-0.23c0.05-0.06,0.09-0.13,0.14-0.21c-0.67-0.43-1.33-0.85-1.98-1.28
						c-0.5-0.33-0.56-0.97-0.12-1.35c0.08-0.07,0.31-0.09,0.4-0.03c0.5,0.36,0.96,0.77,1.47,1.13c0.33,0.24,0.71,0.41,1.05,0.63
						c0.49,0.3,0.71-0.16,1.05-0.34c0.41-0.2,0.86-0.31,1.46-0.51c-0.88-0.47-1.64-0.84-2.36-1.26c-0.41-0.24-0.86-0.5-1.15-0.86
						c-0.19-0.24-0.23-0.72,0.02-1.02c0.11-0.14,0.44-0.23,0.61-0.17c0.65,0.23,1.3,0.49,1.92,0.8c0.9,0.46,1.77,1,2.68,1.44
						c0.2,0.1,0.54-0.01,0.78-0.1c0.45-0.18,0.87-0.43,1.36-0.68c-0.78-0.83-1.68-1.48-2.71-1.97c-0.5-0.24-1.01-0.52-1.09-1.16
						c-0.02-0.13,0.03-0.34,0.12-0.41c0.09-0.06,0.32-0.05,0.41,0.03c1.23,0.9,2.69,1.49,3.68,2.72c0.3,0.38,0.59,0.48,1.06,0.24
						c0.62-0.31,1.29-0.51,2.12-0.82c-1.76-1.18-3.37-2.26-5-3.35c0.25-0.6,0.44-1.08,0.66-1.6c0.72,0.43,1.27,0.92,1.91,1.08
						c0.64,0.16,1.12,0.48,1.58,0.86c0.53,0.43,0.98,0.96,1.49,1.41c0.33,0.29,0.7,0.53,1.08,0.74c0.12,0.06,0.34-0.05,0.5-0.09
						c0.65-0.16,1.3-0.32,2.05-0.5c-1.2-1.04-2.06-2.31-3.45-3.03c-0.58-0.3-1.06-0.8-1.56-1.24c-0.1-0.09-0.09-0.29-0.13-0.44
						c0.2-0.04,0.47-0.19,0.6-0.12c0.84,0.51,1.71,0.99,2.44,1.62c0.96,0.82,1.82,1.77,2.7,2.67c0.27,0.28,0.51,0.4,0.93,0.25
						c0.37-0.13,0.79-0.07,1.23-0.09c-1.72-2.44-3.87-4.4-6.32-6.09c0.17-0.19,0.31-0.36,0.56-0.64c0.71,0.57,1.43,1.15,2.16,1.74
						c0.43,0.35,0.87,0.69,1.29,1.05c0.2,0.17,0.38,0.37,0.55,0.57c0.88,1.03,1.75,2.06,2.63,3.08c0.09,0.1,0.28,0.14,0.42,0.14
						c0.28,0,0.56-0.06,0.89-0.1c-0.05-0.11-0.07-0.28-0.15-0.34c-0.78-0.59-1.12-1.48-1.59-2.29c-0.44-0.76-1.1-1.39-1.63-2.09
						c-0.17-0.23-0.33-0.53-0.34-0.8c0-0.15,0.24-0.54,0.59-0.24c1.2,1.02,2.44,1.99,3.56,3.1c0.51,0.5,0.78,1.26,1.12,1.92
						c0.25,0.5,0.56,0.74,1.16,0.68c0.64-0.07,1.3-0.02,1.95-0.02c-1.39-1.52-2.78-3.06-4.19-4.56c-0.41-0.44-0.95-0.76-1.39-1.18
						c-0.59-0.55-1.11-1.17-1.72-1.69C504.77,204.41,503.91,203.64,502.69,203.51z"/>
				</g>
				<g>
					<path class="st1" d="M497.27,252.79c-0.54-0.1-1.01-0.18-1.5-0.26c-0.41,1.17-1.22,2.05-2.15,2.81
						c-0.67,0.55-1.44,0.98-2.19,1.43c-0.14,0.08-0.36,0.03-0.55,0.03c0.04-0.2,0.02-0.43,0.12-0.58c0.41-0.63,0.84-1.25,1.29-1.86
						c0.51-0.7,0.42-1.52,0.46-2.3c0.02-0.47-0.39-0.44-0.82-0.34c0.19,1.13-0.17,2.12-0.88,3.02c-0.38-0.41-0.63-0.88-0.36-1.5
						c0.38-0.87-0.01-1.62-0.54-2.23c-0.33-0.38-0.91-0.54-1.42-0.77c0.65,0.86,0.95,1.82,0.9,2.92c-0.08-0.15-0.13-0.33-0.23-0.46
						c-0.95-1.23-1.63-2.71-3.08-3.51c-0.1-0.06-0.21-0.09-0.49-0.22c0.16,0.27,0.21,0.42,0.31,0.52c0.34,0.35,0.79,0.64,1.02,1.04
						c0.76,1.31,1.58,2.6,2.11,4c0.4,1.06,0.41,2.27-0.05,3.39c-0.27,0.65-0.56,1.29-0.86,1.97c0.71,0.32,1.29,0.22,1.94-0.2
						c0.48-0.31,1.14-0.35,1.72-0.51c1.22-0.33,2.36-0.83,3.4-1.56c0.31-0.22,0.7-0.34,1.07-0.44c1.11-0.33,2.21-0.65,3.12-1.45
						c0.3-0.27,0.74-0.38,1.16-0.58c-0.22-0.59-0.42-1.14-0.66-1.79c-0.24,0.27-0.45,0.46-0.62,0.68c-0.47,0.62-1.04,1.11-1.78,1.4
						c-1.11,0.43-2.18,0.91-3.15,1.66c-0.49,0.38-1.22,0.44-1.83,0.64c-0.27-0.72,0.02-1.22,0.62-1.53
						c0.65-0.34,1.26-0.79,1.83-1.27c0.65-0.55,1.23-1.18,1.84-1.78C497.11,253.09,497.16,252.96,497.27,252.79z"/>
				</g>
				<g>
					<path class="st1" d="M426.76,241.35c0.65-0.22,1.3-0.47,1.96-0.65c0.48-0.13,0.99-0.13,1.46-0.27c0.6-0.18,1.17-0.42,1.75-0.66
						c1.77-0.73,3.05-2.04,4.24-3.48c0.46-0.56,0.98-1.01,1.77-1.12c0.89-0.12,1.77-0.38,2.65-0.59c0.11-0.03,0.2-0.11,0.36-0.2
						c-0.26-0.32-0.48-0.61-0.72-0.89c-0.32-0.38-0.63-0.76-0.99-1.1c-0.15-0.14-0.46-0.31-0.59-0.24
						c-0.65,0.32-1.29,0.67-1.88,1.08c-0.54,0.37-1,0.84-1.53,1.22c-1,0.7-2.04,1.37-3.06,2.05c-0.09,0.06-0.18,0.15-0.25,0.25
						c-0.75,1.16-1.85,1.87-3,2.58c-0.82,0.51-1.51,1.24-2.25,1.87C426.71,241.24,426.74,241.29,426.76,241.35z"/>
				</g>
				<g>
					<path class="st1" d="M424.64,244.65c0.54-0.04,1.08-0.03,1.61-0.12c1.81-0.32,3.63-0.63,5.41-1.05
						c0.74-0.18,1.41-0.63,2.11-0.98c0.54-0.27,1.08-0.53,1.59-0.84c0.44-0.27,0.84-0.62,1.26-0.94c0.05-0.04,0.08-0.12,0.13-0.12
						c1.29-0.01,1.71-1.13,2.4-1.91c0.03-0.03,0.05-0.07,0.08-0.09c0.9-0.45,1.31-1.36,1.95-2.06c0.24-0.25,0.37-0.6,0.64-1.05
						c-1.63,0.46-3.06,0.81-4.12,2.02c-0.47,0.54-1.15,0.88-1.66,1.39c-1.13,1.14-2.51,1.89-3.89,2.65
						c-2.28,1.24-4.64,2.27-7.19,2.83c-0.11,0.02-0.22,0.09-0.33,0.13C424.62,244.56,424.63,244.61,424.64,244.65z"/>
				</g>
				<g>
					<path class="st1" d="M442.37,221.05c1.14-0.78,1.16-0.84,0.21-1.95c-1.04-1.22-2.05-2.48-3.18-3.62
						c-0.89-0.9-1.98-1.58-3.21-2.02c-0.44-0.16-0.89-0.37-1.27-0.65c-1.6-1.19-3.44-1.89-5.24-2.68c-0.38-0.16-0.73-0.41-1.1-0.59
						c-0.21-0.1-0.45-0.14-0.68-0.21c-0.02,0.04-0.05,0.09-0.07,0.13c0.07,0.13,0.12,0.29,0.23,0.39c0.84,0.86,1.62,1.79,2.82,2.22
						c0.69,0.25,1.33,0.62,1.98,0.97c1.57,0.86,3.15,1.69,4.67,2.62c1.16,0.71,2.12,1.66,2.9,2.8
						C441.01,219.34,441.7,220.17,442.37,221.05z"/>
				</g>
				<g>
					<path class="st1" d="M429.93,212.91c1.17,1.19,1.95,2.57,3.29,3.12c0.38,0.36,0.64,0.7,0.97,0.92c1.12,0.72,2.31,1.36,3.4,2.12
						c0.51,0.36,0.92,0.9,1.28,1.43c0.47,0.7,0.88,1.44,1.26,2.2c0.18,0.36,0.25,0.77,0.37,1.18c0.01,0,0.07-0.02,0.08-0.05
						c0.26-1.67,0.28-3.29-0.88-4.69c-0.49-0.6-1-1.19-1.47-1.8c-0.67-0.88-1.61-1.37-2.61-1.7c-1.63-0.54-3.1-1.35-4.54-2.26
						C430.8,213.2,430.44,213.12,429.93,212.91z"/>
				</g>
				<g>
					<path class="st1" d="M429.75,236.5c0.42-0.32,0.86-0.64,1.27-0.97c0.49-0.39,0.93-0.84,1.44-1.2c0.8-0.55,1.63-1.05,2.45-1.56
						c1.11-0.68,2.22-1.36,3.39-2.08c-0.04-0.63-0.1-1.44-0.17-2.41c-0.49,0.2-1.04,0.35-1.49,0.64c-1.19,0.79-2.18,1.79-3.17,2.82
						c-1.37,1.42-2.38,3.11-3.74,4.52c-0.04,0.04-0.05,0.11-0.07,0.16C429.69,236.45,429.72,236.48,429.75,236.5z"/>
				</g>
				<g>
					<path class="st1" d="M439.04,225.9c-0.69,0.09-1.28,0.18-1.87,0.24c-2.21,0.22-3.7,1.69-5.14,3.12
						c-0.75,0.74-1.19,1.78-1.78,2.68c-0.39,0.6-0.82,1.18-1.22,1.77c-0.2,0.29-0.37,0.59-0.56,0.88c0.05,0.04,0.09,0.08,0.14,0.12
						c0.42-0.41,0.88-0.79,1.26-1.25c0.73-0.88,1.52-1.66,2.47-2.3c0.47-0.31,0.7-0.95,1.14-1.33c1.33-1.18,2.62-2.46,4.51-2.69
						C438.65,227.05,438.8,226.56,439.04,225.9z"/>
				</g>
				<g>
					<path class="st1" d="M439.36,224.89c-0.52-0.91-1.16-1.52-1.91-2.07c-1.04-0.75-2.01-1.6-3.02-2.39
						c-0.81-0.63-1.64-1.22-2.47-1.82c-0.38-0.28-0.76-0.55-1.3-0.93c0.15,0.38,0.22,0.63,0.33,0.86c0.71,1.4,1.75,2.48,3.11,3.29
						c0.67,0.4,1.2,1.01,1.85,1.45c0.4,0.28,0.9,0.43,1.35,0.64C437.96,224.22,438.6,224.53,439.36,224.89z"/>
				</g>
				<g>
					<path class="st1" d="M430.81,215.39c0.27,0.97,0.93,1.62,1.73,2.1c1.2,0.72,2.3,1.52,3.27,2.54c0.78,0.81,1.77,1.42,2.75,2.03
						c-0.43-0.95-0.9-1.8-1.83-2.37c-1.24-0.76-2.41-1.62-3.59-2.47C432.35,216.65,431.6,216.02,430.81,215.39z"/>
				</g>
				<g>
					<path class="st1" d="M492.81,228.61c1.95,0.77,3.92,1.52,5.85,2.33c0.97,0.41,1.87,0.96,2.81,1.43
						c0.33,0.16,0.71,0.24,1.04,0.39c0.15,0.07,0.24,0.25,0.36,0.38c-0.16,0.11-0.31,0.31-0.47,0.32c-0.27,0.01-0.55-0.07-0.81-0.17
						c-1.67-0.68-3.34-1.38-5.01-2.06c-1.31-0.53-2.59-1.17-3.95-1.52c-1.72-0.45-3.5-0.68-5.25-0.99
						c-0.27-0.05-0.56-0.05-0.88,0.07c0.21,0.09,0.41,0.18,0.62,0.27c2.01,0.89,4.19,1.21,6.28,1.8c1.36,0.39,2.7,0.89,4.03,1.37
						c0.38,0.14,0.74,0.37,1.07,0.62c0.15,0.12,0.21,0.37,0.3,0.56c-0.22,0.04-0.46,0.16-0.64,0.1c-0.64-0.2-1.24-0.49-1.88-0.68
						c-1.38-0.41-2.7-1.02-4.2-1.06c-0.78-0.02-1.55-0.41-2.31-0.65c-0.57-0.19-1.13-0.41-1.75-0.64c0.36,0.57,0.61,1.15,1.02,1.59
						c0.27,0.29,0.73,0.45,1.13,0.54c0.51,0.11,1.06,0.09,1.59,0.13c1,0.06,2,0.05,2.99,0.19c0.68,0.1,1.17,0.58,1.41,1.24
						c-2.12-0.12-4.22-0.25-6.38-0.37c-0.28,0.24-0.65,0.56-1.12,0.97c0.4,0.1,0.77,0.3,1.13,0.28c1.93-0.08,3.85-0.21,5.78-0.31
						c1.98-0.11,3.96-0.22,5.94-0.29c0.24-0.01,0.48,0.22,0.72,0.34c-0.24,0.2-0.46,0.54-0.72,0.59c-1.12,0.17-2.25,0.25-3.37,0.38
						c-0.98,0.11-1.94,0.3-2.92,0.38c-1.34,0.11-2.69,0.2-4.03,0.21c-2.16,0.02-4.3-0.16-6.4-0.7c-0.32-0.08-0.6-0.35-0.92-0.47
						c-0.6-0.23-1.23-0.41-1.84-0.62c-0.3-0.1-0.6-0.23-0.9-0.35c-0.04,0.06-0.08,0.12-0.12,0.18c0.6,0.41,1.16,0.91,1.81,1.21
						c1.72,0.8,3.5,1.42,5.42,1.51c0.47,0.02,0.95,0.11,1.41,0.21c0.94,0.21,1.87,0.57,2.83,0.64c0.95,0.07,1.93-0.05,2.87-0.22
						c1.42-0.26,2.8-0.7,4.21-0.95c1.85-0.33,3.47-1.24,5.2-1.87c0.76-0.28,1.55-0.48,2.32-0.72c0.01-0.06,0.03-0.12,0.04-0.18
						c-0.53-0.28-1.07-0.54-1.58-0.83c-1.3-0.74-2.55-1.57-3.88-2.23c-1.73-0.85-3.4-1.84-5.4-2.02c-0.91-0.08-1.8-0.38-2.7-0.57
						c-0.22-0.04-0.46-0.01-0.68-0.01C492.85,228.45,492.83,228.53,492.81,228.61z"/>
				</g>
			</g>
			<g>
				<g>
					<path class="st2" d="M473.17,232.05c0.83-2.26,1.65-4.52,2.48-6.78c0.1-0.29,0.19-0.59,0.6-0.49c0.72,0.17,1.36-0.18,2.04-0.29
						c0.7-0.11,1.41-0.23,2.11-0.32c0.74-0.09,1.5-0.05,2.22-0.21c1.25-0.29,2.48-0.69,3.71-1.07c0.56-0.17,1.09-0.43,1.65-0.62
						c2.1-0.69,4.22-1.34,6.31-2.06c1.51-0.51,2.99-1.1,4.48-1.66c0.8-0.3,1.63-0.56,2.39-0.95c1.83-0.95,3.77-1.63,5.8-1.89
						c2.31-0.29,4.65-0.41,6.97-0.56c1.63-0.1,3.2,0.27,4.7,0.85c0.95,0.36,1.83,0.9,2.77,1.3c0.9,0.38,1.76,0.81,2.42,1.55
						c0.14,0.16,0.34,0.29,0.53,0.37c2.08,0.83,3.45,2.61,5.13,3.96c0.96,0.77,1.72,1.81,2.49,2.8c1.46,1.87,2.49,3.97,3.17,6.32
						c-1.39-0.3-2.6,0.3-3.81,0.9c-1.41,0.69-2.81,1.38-4.21,2.1c-0.66,0.34-0.86,1.82-0.31,2.34c1.47,1.4,2.99,2.75,4.93,3.5
						c0.21,0.08,0.42,0.2,0.64,0.31c-0.1,0.12-0.16,0.19-0.22,0.27c-0.78,1.14-1.47,2.37-2.75,3.08c-0.08,0.05-0.14,0.14-0.2,0.21
						c-1.39,1.47-3.3,1.89-5.13,2.41c-0.57,0.16-0.85,0.4-1.13,0.88c-0.41,0.7-0.87,1.48-1.52,1.91c-0.82,0.54-1.82,0.85-2.78,1.11
						c-0.79,0.22-1.64,0.24-2.46,0.29c-0.16,0.01-0.44-0.27-0.48-0.45c-0.12-0.55-0.07-1.14-0.23-1.67
						c-0.36-1.18-0.77-2.35-1.23-3.49c-0.49-1.23-0.88-2.52-2.11-3.31c-0.43-0.28-0.91-0.38-1.27,0.01
						c-0.24,0.26-0.42,0.59-0.64,0.91c-0.1-0.11-0.19-0.21-0.28-0.31c-0.81-0.86-1.68-1.65-2.83-2.04c-1.17-0.4-1.94,0.15-1.95,1.37
						c-0.01,0.46,0,0.93,0,1.33c-0.8-0.52-1.54-1.04-2.32-1.51c-0.46-0.28-0.92-0.14-1,0.39c-0.17,1.27-0.25,2.55-0.29,3.83
						c-0.02,0.49,0.18,0.99,0.3,1.55c-0.25-0.06-0.42-0.09-0.59-0.14c-1.53-0.4-2.17,0.04-2.31,1.62c-0.04,0.47-0.05,0.93-0.07,1.37
						c-1.4-0.43-2.75-0.88-4.12-1.26c-1.34-0.37-2.7-0.67-4.04-1.03c-0.41-0.11-0.81-0.3-1.21-0.46c0.75-0.48,1.45-0.8,2.15-1.11
						c0.58-0.26,1-0.68,1.08-1.32c0.08-0.64-0.38-0.96-0.86-1.23c-0.09-0.05-0.18-0.09-0.26-0.14c-1.8-0.98-3.61-1.93-5.38-2.96
						c-1.57-0.91-3.09-1.89-4.62-2.85c-0.62-0.39-1.22-0.83-1.83-1.24c-1-0.68-2-1.37-3.01-2.04c-1.3-0.87-2.61-1.72-3.92-2.57
						C472.99,232.53,473.08,232.29,473.17,232.05z M521.69,244.54c-0.69-0.43-1.41-0.81-2.12-1.21c-0.44-0.25-0.86-0.53-1.32-0.73
						c-1.03-0.47-1.45-1.4-1.92-2.34c-0.56-1.11-1.16-2.2-2.19-3.01c-0.62-0.49-1.1-1.17-1.6-1.81c-0.11-0.13-0.02-0.42-0.02-0.68
						c1.72-0.53,3.14-1.63,4.43-2.95c0.63-0.65,1.06-1.34,1.34-2.22c0.31-0.97-0.08-1.72-0.45-2.44c-0.56-1.09-1.31-2.1-1.99-3.12
						c-0.14-0.21-0.38-0.35-0.63-0.49c0.58,1.55,0.83,3.14,0.69,4.76c-0.16,1.98-1.12,3.51-2.87,4.51
						c-0.42,0.24-0.82,0.51-1.22,0.78c-0.74,0.48-1.45,0.19-2.14-0.09c-0.75-0.3-1.49-0.61-2.2-0.97c-0.58-0.29-1.12-0.64-1.68-0.97
						c-1.15-0.68-2.26-1.43-3.44-2.05c-1.48-0.78-3.01-1.47-4.54-2.17c-0.31-0.14-0.69-0.1-1.03-0.17
						c-0.75-0.17-1.48-0.42-2.23-0.52c-0.85-0.12-1.71-0.16-2.57-0.17c-1.72-0.03-3.43,0-5.15-0.02c-1.46-0.02-2.86,0.21-4.15,0.92
						c-0.09,0.05-0.18,0.09-0.27,0.12c-0.48,0.13-0.89,0.32-0.94,0.97c0.35,0.27,0.74,0.61,1.17,0.87c0.63,0.39,1.33,0.67,1.91,1.11
						c0.46,0.35,0.83,0.84,1.18,1.32c0.11,0.15,0.05,0.46,0,0.67c-0.08,0.32-0.43,0.52-0.38,0.94c0.01,0.08-0.59,0.35-0.9,0.33
						c-0.5-0.03-0.98-0.26-1.48-0.35c-0.76-0.13-1.52-0.29-2.29-0.3c-0.85,0-1.37,0.97-0.82,1.58c0.78,0.87,1.34,2,2.48,2.49
						c1.17,0.5,2.36,0.96,3.56,1.4c0.82,0.31,1.66,0.61,2.51,0.82c1.14,0.27,2.29,0.46,3.44,0.66c2.08,0.37,4.19,0.37,6.28,0.16
						c2.41-0.24,4.77-0.78,6.98-1.81c1.59-0.74,3.26-0.56,4.92-0.33c0.57,0.08,1.11,0.32,1.67,0.45c1.45,0.35,2.19,1.36,2.78,2.67
						c0.68,1.52,1.7,2.93,3.15,3.73c1.51,0.84,3.17,1.61,5.04,1.24c0.1-0.02,0.19-0.04,0.28-0.08c0.09-0.04,0.16-0.1,0.22-0.14
						C523.11,244.94,522.25,244.89,521.69,244.54z M529.68,233.54c0.34-0.14,0.7-0.45,0.85-0.78c0.41-0.85,0.81-1.73,1.05-2.64
						c0.49-1.86-0.43-3.25-1.55-4.64c-1.3-1.59-3.05-2.2-4.91-2.56c-1.88-0.37-4.25,0.69-5,2.85c-0.46,1.32-0.66,2.69-0.47,4.05
						c0.24,1.72,1.43,2.84,2.78,3.76c1.03,0.7,2.22,0.96,3.39,0.83C527.26,234.57,528.47,234.04,529.68,233.54z"/>
				</g>
				<g>
					<path class="st2" d="M488.42,246.57c0.82-0.3,2.6-0.72,2.43-1.9c-0.11-0.75,1.04-1.08,1.15-0.32c0,0.01,0,0.03,0,0.04
						c0.13-0.06,0.27-0.09,0.4-0.03c1.64,0.64,0.59,2.58-0.4,3.34c-1.22,0.95-2.97,1.07-3.95-0.25
						C487.81,247.11,488.1,246.68,488.42,246.57z"/>
				</g>
				<g>
					<g>
						<path class="st3" d="M512.06,222.26c-0.78-0.26-1.61-0.48-2.35-0.83c-1.16-0.55-1.32-1.75-0.35-2.58
							c0.97-0.83,2.33-1.35,3.51-0.64c1.23,0.74,1.5,2.18,1.33,3.51c0.1,0.22,0.06,0.47-0.22,0.59
							C513.3,222.6,512.74,222.49,512.06,222.26z"/>
					</g>
					<g>
						<path class="st3" d="M508.26,224.51c1.14-0.89,3.49-0.92,4.84-0.63c0.58,0.12,0.88,0.39,0.96,0.99
							c0.14,1.01,0.02,2.13,0.02,3.15c0,0.17-0.06,0.29-0.16,0.37c0.01,0.27-0.15,0.53-0.5,0.5c-1.64-0.15-3.75-0.45-5.08-1.52
							C507.39,226.59,507.25,225.3,508.26,224.51z"/>
					</g>
					<g>
						<path class="st3" d="M509.13,228.88c0.62,0.12,1.23,0.35,1.8,0.6c0.38,0.16,0.76,0.41,0.81,0.86c0.1,0.81-0.87,1.48-1.66,1.72
							c-0.11,0.18-0.3,0.32-0.57,0.27c-0.97-0.18-1.77-0.96-1.97-1.93c-0.09-0.43-0.08-0.97,0.21-1.31
							C508.12,228.68,508.68,228.79,509.13,228.88z"/>
					</g>
					<g>
						<path class="st3" d="M502.97,223.89c-0.37-0.81,0.22-2.44,1.02-2.82c0.99-0.47,2.62-0.13,3.31,0.69
							c0.01,0.01,0.01,0.02,0.02,0.03c0.13,0.05,0.25,0.15,0.31,0.31c0.4,1.07-0.53,2.05-1.48,2.38
							C505.33,224.77,503.42,224.85,502.97,223.89z"/>
					</g>
					<g>
						<path class="st3" d="M507.84,217.79c-0.34,1.02-1.24,1.47-2.26,1.6c-0.94,0.12-2.22-0.03-2.42-1.18
							c-0.18-1.04,0.84-1.45,1.67-1.62c0.97-0.19,2.31-0.43,3.07,0.38c0.24,0.26,0.15,0.58-0.06,0.76
							C507.84,217.75,507.84,217.77,507.84,217.79z"/>
					</g>
					<g>
						<path class="st3" d="M502.34,225.92c0.45-0.18,1.07,0.08,1.51,0.19c0.66,0.16,1.32,0.34,1.97,0.54
							c0.25,0.08,0.36,0.27,0.36,0.47c0.07,0.08,0.13,0.18,0.15,0.31c0.11,0.87-0.12,1.88-1.16,1.98c-0.91,0.09-2.02-0.66-2.61-1.29
							C502.11,227.66,501.42,226.3,502.34,225.92z"/>
					</g>
					<g>
						<path class="st3" d="M498.85,222.53c-0.94-0.34-1.59-1.29-0.92-2.21c0.33-0.46,0.87-0.65,1.38-0.83
							c0.74-0.27,1.5-0.5,2.26-0.71c0.21-0.06,0.38,0.02,0.49,0.14c0.04,0.01,0.09,0.02,0.13,0.06c1.03,0.7,0.36,2.08-0.13,2.93
							C501.4,223.07,499.98,222.94,498.85,222.53z"/>
					</g>
					<g>
						<path class="st3" d="M497.45,225.87c-0.47-0.51-0.97-2.15-0.06-2.5c0.41-0.16,0.94,0.1,1.33,0.2c0.73,0.2,1.46,0.4,2.18,0.61
							c0.13,0.04,0.21,0.11,0.27,0.2c0.31-0.11,0.72,0.04,0.7,0.47c-0.05,0.9-0.56,2.03-1.54,2.23
							C499.4,227.26,498.06,226.55,497.45,225.87z"/>
					</g>
					<g>
						<path class="st3" d="M493.12,225.19c-0.76-0.57-1.38-1.54-0.71-2.41c0.72-0.95,2.06-1.55,3.16-1.92
							c0.42-0.14,0.68,0.25,0.62,0.59c0.01,0.03,0.02,0.06,0.02,0.09c0,0.78,0.01,1.56,0,2.35c0,0.53,0.01,1.11-0.39,1.51
							C495.07,226.11,493.84,225.73,493.12,225.19z"/>
					</g>
					<g>
						<path class="st3" d="M488.94,225.6c-0.43,0.02-0.85,0-1.16-0.34c-0.51-0.55-0.32-1.43,0.21-1.89c0.58-0.5,1.46-0.63,2.24-0.66
							c0.06-0.03,0.12-0.04,0.19-0.04c0,0,0,0,0.01,0c0.01,0,0.02,0,0.03,0c0.13-0.03,0.28-0.01,0.4,0.05
							c0.24,0.08,0.34,0.31,0.32,0.54c0.16,0.57,0.17,1.14,0.06,1.73c-0.06,0.29-0.28,0.39-0.51,0.37
							c-0.08,0.06-0.17,0.12-0.28,0.15C489.98,225.61,489.42,225.57,488.94,225.6z"/>
					</g>
					<g>
						<path class="st3" d="M484.2,225.99c-0.52,0.03-0.99-0.09-1.08-0.59c-0.16-0.96,1.11-1.2,1.78-1.28
							c0.65-0.08,2.06-0.32,1.96,0.75c-0.04,0.4-0.36,0.65-0.71,0.76c-0.53,0.17-1.11,0.26-1.66,0.38
							C484.38,226.04,484.29,226.02,484.2,225.99z"/>
					</g>
					<g>
						<path class="st3" d="M481.54,230.23c0.4,0.08,0.8,0.19,1.2,0.31c0.11-0.13,0.28-0.21,0.51-0.15c0.7,0.21,1.6,0.97,0.91,1.73
							c-0.58,0.64-1.91,0.32-2.58,0.02c-0.58-0.25-1.67-0.94-1.02-1.68C480.79,230.18,481.2,230.16,481.54,230.23z"/>
					</g>
					<g>
						<path class="st3" d="M478.76,225.57c0.15-0.15,0.34-0.25,0.55-0.33c0.5-0.28,1.09-0.38,1.7-0.34
							c0.09,0.01,0.17,0.01,0.26,0.02c0.08,0,0.15,0.01,0.22,0.04c0.2,0.05,0.39,0.13,0.49,0.35c0.21,0.43,0.04,1.13,0.02,1.6
							c0,0.06-0.02,0.11-0.04,0.16c-0.06,0.27-0.22,0.49-0.6,0.61c-0.74,0.23-1.78,0.22-2.41-0.27
							C478.35,226.95,478.21,226.12,478.76,225.57z"/>
					</g>
					<g>
						<path class="st3" d="M475.97,231.05c0.39-0.22,0.74-0.12,1.14,0.01c0.45,0.14,0.95,0.09,1.36,0.37
							c0.92,0.61,0.45,1.67,0.59,2.55c0.04,0.22-0.06,0.4-0.2,0.51c-0.08,0.24-0.3,0.43-0.61,0.33c-0.86-0.26-2.09-0.65-2.7-1.36
							C475.01,232.83,475.24,231.46,475.97,231.05z"/>
					</g>
					<g>
						<path class="st3" d="M476.54,228c0.28-0.22,0.64-0.32,1-0.25c0.23,0.05,0.43,0.17,0.64,0.25c0.21,0.08,0.43,0.1,0.64,0.16
							c0.78,0.24,1.21,1.12,0.92,1.89c-0.01,0.02-0.02,0.02-0.02,0.04c0.01,0.31-0.25,0.66-0.65,0.61
							c-0.84-0.11-1.99-0.09-2.65-0.73C475.82,229.4,475.91,228.49,476.54,228z"/>
					</g>
					<g>
						<path class="st3" d="M517.52,220.4c0.84-0.23,1.42,0.01,1.57,0.91c0.18,1.03,0.09,2.08-0.2,3.09
							c-0.12,0.4-0.58,0.48-0.87,0.23c-0.02-0.02-0.03-0.04-0.05-0.05c-0.15-0.01-0.3-0.07-0.41-0.21
							c-0.36-0.47-0.72-0.94-1.07-1.41c-0.27-0.36-0.5-0.68-0.45-1.15C516.1,221.01,516.83,220.59,517.52,220.4z"/>
					</g>
					<g>
						<path class="st3" d="M513.62,216.66c0.22-0.87,1.59-1.21,2.35-1.08c1.04,0.18,1.4,1.25,1.37,2.18
							c-0.01,0.4-0.02,0.86-0.26,1.19c-0.11,0.16-0.27,0.28-0.45,0.34c-0.15,0.05-0.46,0.01-0.53,0.04
							c-0.28,0.14-0.54,0.01-0.68-0.19c-0.01-0.01-0.02-0.01-0.04-0.02c-0.45-0.43-0.95-0.84-1.37-1.31
							C513.72,217.5,513.51,217.11,513.62,216.66z"/>
					</g>
					<g>
						<path class="st3" d="M498.04,246.03c-0.61-0.34-1.24-0.73-1.8-1.16c-0.77-0.59-1.26-1.78-0.36-2.51
							c0.39-0.32,0.91-0.37,1.4-0.39c0.81-0.03,1.63-0.01,2.45-0.01c0.01,0,0.02,0,0.03,0.01c0.32-0.14,0.76,0,0.73,0.45
							c-0.07,1.14-0.36,2.8-1.26,3.59C498.84,246.37,498.46,246.27,498.04,246.03z"/>
					</g>
					<g>
						<path class="st3" d="M495.72,246.36c0.17,0.01,0.33,0.05,0.48,0.11c0.1-0.06,0.22-0.09,0.36-0.06
							c0.89,0.16,2.71,0.31,2.17,1.63c-0.45,1.1-1.14,2.63-2.53,1.77c-0.74-0.45-1.93-1.81-1.62-2.75
							C494.74,246.59,495.25,246.34,495.72,246.36z"/>
					</g>
					<g>
						<path class="st3" d="M492.07,241.39c0.66-0.01,1.34,0.06,2,0.09c0.16,0.01,0.27,0.07,0.35,0.16c0.83,0.45,0.42,1.91,0.16,2.61
							c-0.15,0.39-0.32,0.81-0.81,0.81c-0.45,0-0.95-0.28-1.3-0.54c-0.69-0.51-1.39-1.48-1.31-2.39
							C491.19,241.62,491.59,241.4,492.07,241.39z"/>
					</g>
					<g>
						<path class="st3" d="M489.57,240.31c0.15,0.04,0.25,0.13,0.31,0.24c0.5,0.32,0.83,0.91,0.66,1.52
							c-0.25,0.91-1.29,0.7-1.93,0.38c-0.61-0.3-1.36-1.05-1.23-1.8C487.56,239.6,488.92,240.12,489.57,240.31z"/>
					</g>
					<g>
						<path class="st3" d="M484.97,238.82c0.45-0.13,0.82-0.02,1.17,0.27c0.05,0.04,0.09,0.09,0.11,0.14
							c0.37,0.2,0.44,0.84-0.08,0.96c-0.62,0.14-1.17-0.08-1.52-0.61C484.46,239.3,484.67,238.91,484.97,238.82z"/>
					</g>
				</g>
				<g>
					<path class="st3" d="M490.27,246.94c0.14-0.48,0.58-0.64,1.02-0.75c0.58-0.14,1.17-0.25,1.77-0.25c0.24,0,0.39,0.12,0.48,0.28
						c0.13,0.12,0.23,0.28,0.27,0.47c0.22,0.92-0.61,2.06-1.59,1.94c-0.5-0.06-0.97-0.34-1.39-0.61
						C490.46,247.78,490.13,247.45,490.27,246.94z"/>
				</g>
			</g>
			<g>
				<g>
					<path class="st0" d="M523.79,310.15c-1.55-1.15-2.6-2.55-3.54-4.03c-0.28-0.43-0.46-0.93-0.75-1.35
						c-0.4-0.59-0.88-1.13-1.29-1.72c-0.53-0.76-1.01-1.57-1.55-2.32c-0.8-1.12-1.68-2.17-2.44-3.31c-0.67-1.01-1.25-2.09-1.84-3.15
						c-0.55-0.98-1.03-2.01-1.62-2.97c-0.83-1.36-1.73-2.67-2.61-4c-0.16-0.24-0.37-0.46-0.59-0.66c-0.47-0.41-0.8-0.89-0.88-1.52
						c-0.02-0.16-0.16-0.31-0.27-0.45c-1.36-1.66-2.87-3.19-4.01-5.03c-0.46-0.73-1.18-1.29-1.72-1.98
						c-1.33-1.73-2.59-3.5-3.92-5.22c-0.97-1.26-1.84-2.58-2.67-3.94c-0.72-1.19-1.8-2.16-2.73-3.24c-0.98,0.46-1.88,0.97-2.85,1.32
						c-2.21,0.8-4.42,1.62-6.69,2.26c-2.41,0.68-4.9,1.12-7.33,1.75c-1.77,0.46-3.56,0.38-5.35,0.46c-1.67,0.07-3.34,0.31-5.01,0.49
						c-0.76,0.08-1.52,0.21-2.29,0.32c-0.17,0.03-0.34,0.08-0.52,0.13c0.64,1.74,1.2,3.47,1.93,5.13c0.4,0.91,1.06,1.71,1.64,2.54
						c0.6,0.87,1.26,1.71,1.85,2.59c1,1.48,2.51,2.39,3.84,3.48c1.28,1.05,2.76,1.86,4.21,2.68c1.67,0.94,3.09,2.21,4.57,3.4
						c0.68,0.55,1.38,1.11,1.9,1.8c0.74,0.99,1.68,1.75,2.55,2.58c1.5,1.41,3.1,2.72,4.65,4.08c0.75,0.66,1.47,1.37,2.21,2.05
						c1.21,1.1,2.43,2.18,3.63,3.29c0.65,0.6,1.21,1.29,1.87,1.88c0.68,0.62,1.45,1.14,2.13,1.77c0.4,0.37,0.67,0.86,1.03,1.28
						c0.38,0.44,0.78,0.87,1.18,1.29c1.56,1.69,3.63,2.68,5.54,3.87c0.15,0.09,0.38,0.16,0.54,0.11c1.74-0.5,3.5-0.98,5.22-1.57
						c1.53-0.52,3-1.19,4.5-1.78c1.58-0.62,3.15-1.29,4.76-1.83C521.89,310.36,522.77,310.32,523.79,310.15z"/>
				</g>
				<g>
					<path class="st0" d="M469.14,230.33c0.72-1.71,1.39-3.36,2.12-4.98c0.24-0.54,0.67-0.99,0.97-1.5
						c0.45-0.79,0.83-1.61,1.29-2.39c0.27-0.46,0.65-0.85,0.95-1.28c0.25-0.35,0.51-0.71,0.7-1.1c0.23-0.46,0.4-0.95,0.59-1.43
						c0.18-0.45,0.24-0.84-0.2-1.23c-1.59-1.44-3.15-2.92-4.72-4.38c-0.68-0.63-1.38-1.26-2.06-1.89c-0.49-0.46-0.98-0.93-1.46-1.4
						c-0.97-0.94-1.94-1.88-2.9-2.82c-0.69-0.68-1.38-1.36-2.07-2.04c-0.34-0.33-0.52-0.72-0.28-1.18c0.27-0.51,0.74-0.64,1.23-0.45
						c1.2,0.46,2.42,0.92,3.57,1.5c2.18,1.1,4.33,2.27,6.48,3.44c1.41,0.77,2.79,1.61,4.18,2.42c0.15,0.09,0.35,0.13,0.47,0.25
						c0.26,0.27,0.64,0.55,0.68,0.86c0.03,0.27-0.32,0.61-0.55,0.88c-0.06,0.08-0.29,0.12-0.39,0.07c-1.14-0.53-2.27-1.07-3.4-1.61
						c-0.57-0.27-1.13-0.57-1.72-0.86c1.26,1.59,2.5,3.09,3.67,4.66c0.53,0.71,1.01,1.5,1.34,2.33c0.19,0.47,0.11,1.08,0.03,1.62
						c-0.13,0.92-0.36,1.83-0.53,2.74c-0.02,0.13,0,0.27,0,0.48c0.15-0.11,0.28-0.17,0.35-0.26c0.84-1.1,1.63-2.26,2.54-3.3
						c0.36-0.41,1.03-0.54,1.52-0.85c0.23-0.15,0.48-0.4,0.56-0.66c0.26-0.82,0.64-1.56,1.28-2.14c0.25-0.22,0.6-0.33,0.92-0.45
						c0.88-0.34,1.78-0.65,2.65-1.01c0.25-0.11,0.55-0.32,0.65-0.55c0.21-0.5,0.3-1.05,0.42-1.51c-0.94-0.71-1.8-1.44-2.74-2.06
						c-1.1-0.73-2.19-1.46-3.46-1.96c-1.37-0.53-2.62-1.38-3.96-2.03c-1.17-0.56-2.38-1.02-3.57-1.55
						c-0.73-0.33-1.43-0.73-2.16-1.05c-1.19-0.51-2.39-0.98-3.59-1.48c-0.74-0.31-1.47-0.65-2.21-0.96
						c-0.14-0.06-0.36-0.04-0.5,0.03c-2.18,1.15-4.36,2.3-6.52,3.49c-0.35,0.19-0.62,0.56-0.87,0.88c-0.88,1.17-1.72,2.37-2.61,3.53
						c-0.66,0.86-1.4,1.66-2.03,2.54c-0.79,1.09-1.5,2.25-2.28,3.36c-0.66,0.95-1.24,1.94-1.64,3.04c-0.28,0.78-0.79,1.48-1.24,2.2
						c-1.05,1.71-2.08,3.43-3.2,5.09c-0.85,1.27-1.82,2.46-2.73,3.69c-0.77,1.05-1.26,2.24-1.28,3.53c-0.01,0.93,0.6,1.68,1.17,2.4
						c0.65,0.83,1.27,1.69,1.91,2.53c0.01,0.02,0.01,0.04,0.02,0.05c1.05,1.07,2.07,2.17,3.17,3.2c1.19,1.11,2.42,2.18,3.69,3.2
						c2,1.6,4.06,3.13,6.07,4.71c1.39,1.09,2.76,2.2,4.13,3.32c1.37,1.11,2.74,2.23,4.18,3.42c0.38-0.87,0.73-1.76,1.14-2.63
						c0.66-1.43,1.35-2.84,2.04-4.25c0.55-1.13,1.09-2.27,1.68-3.39c0.53-1,1.14-1.95,1.96-2.77c0.83-0.82,1.56-1.74,2.36-2.65
						c-0.04-0.04-0.09-0.11-0.17-0.15c-1.33-0.71-2.46-1.68-3.51-2.75c-0.32-0.33-0.69-0.61-1.05-0.88
						c-1.66-1.26-3.33-2.51-4.99-3.78c-1.1-0.84-2.19-1.71-3.29-2.56c-0.39-0.31-0.63-0.68-0.43-1.19c0.21-0.56,0.87-0.72,1.46-0.33
						c0.8,0.52,1.57,1.08,2.36,1.62c0.87,0.6,1.74,1.18,2.61,1.78C468.33,229.74,468.69,230.01,469.14,230.33z"/>
				</g>
				<g>
					<path class="st0" d="M446.11,248.31c-0.03,0.42-0.06,0.77-0.08,1.12c-0.04,0.77,0,1.54-0.12,2.29
						c-0.2,1.22-0.52,2.43-0.76,3.65c-0.18,0.93-0.28,1.87-0.44,2.8c-0.14,0.79-0.36,1.57-0.49,2.36c-0.21,1.29-1,2.32-1.46,3.5
						c-0.57,1.48-1.27,2.93-1.28,4.57c0,0.47,0.14,0.64,0.61,0.61c1.08-0.07,2.16-0.13,3.23-0.15c1.2-0.02,2.39,0.02,3.59,0.01
						c1.66-0.02,3.32-0.05,4.97-0.11c1.41-0.05,2.83-0.09,4.24-0.25c1.71-0.19,3.4-0.54,5.1-0.76c1-0.13,2.01-0.17,3.02-0.22
						c1.35-0.07,2.72-0.04,4.06-0.2c1.63-0.2,3.24-0.54,4.86-0.85c0.57-0.11,1.12-0.35,1.69-0.45c1.1-0.19,2.22-0.29,3.32-0.5
						c0.8-0.16,1.57-0.43,2.35-0.67c1.4-0.44,2.81-0.86,4.19-1.35c1.22-0.44,2.51-0.74,3.56-1.58c0.29-0.23,0.67-0.34,1.15-0.58
						c-1.08-0.19-2.05,0.08-2.97-0.31c-0.9-0.39-1.76-0.75-2.02-1.58c0.32-0.75,0.65-1.29,0.79-1.88c0.28-1.22-0.43-2.44-1.83-3.2
						c-0.84-0.45-1.73-0.8-2.51-1.16c-0.82,0.31-1.42,1.05-2.35,0.63c-0.53,1.48-1.59,1.6-2.73,1.31c-0.56-0.14-1.01-0.77-1.47-1.21
						c-0.42-0.4-0.83-0.82-1.18-1.29c-0.34-0.45-0.59-0.96-0.87-1.43c-0.9,1.1-1.78,2.17-2.65,3.25c-0.94,1.16-2.21,1.87-3.51,2.52
						c-0.59,0.29-1.22,0.28-1.75-0.26c-0.24-0.25-0.54-0.47-0.85-0.61c-1.12-0.5-1.89-1.45-2.85-2.15
						c-0.15-0.11-0.33-0.23-0.51-0.27c-1.83-0.39-3.62-0.89-5.36-1.61c-0.74-0.31-1.55-0.53-2.34-0.67
						C451.51,251.1,448.81,249.94,446.11,248.31z"/>
				</g>
				<g>
					<path class="st0" d="M470.56,159.13c0.61-0.19,1.14-0.34,1.67-0.52c1.1-0.38,2.21-0.75,3.29-1.16c0.9-0.34,1.79-0.74,2.68-1.11
						c0.09-0.04,0.16-0.1,0.3-0.19c-1.16-0.56-2.31-0.94-3.54-1c-1.37-0.06-2.75-0.15-4.13-0.1c-0.83,0.04-1.66,0.29-2.46,0.53
						c-0.57,0.17-0.92,0.65-1.16,1.2c-0.39,0.88-0.83,1.74-1.23,2.61c-0.81,1.79-1.6,3.59-2.4,5.38c-0.04,0.09-0.1,0.19-0.09,0.27
						c0.25,1.26,0.04,2.6,0.68,3.79c0.44-0.41,0.9-0.64,1.53-0.68c0.89-0.05,1.76-0.25,2.64-0.38c0.27-0.04,0.55-0.09,0.82-0.08
						c1.52,0.06,3.04,0.15,4.56,0.2c0.57,0.02,1.15-0.03,1.73-0.04c0.81-0.02,1.62,0.02,2.42-0.07c1.06-0.11,2.11-0.27,3.16-0.47
						c1.68-0.32,3.38-0.67,5.07-0.45c1.23,0.16,2.42,0.67,3.6,1.1c1.45,0.53,2.91,0.89,4.47,0.89c0.49,0,0.98,0.31,1.47,0.47
						c0.24,0.08,0.48,0.15,0.66,0.21c0.23-0.33,0.45-0.61,0.61-0.92c0.12-0.23,0.24-0.51,0.23-0.77c-0.11-1.92-0.34-3.84-0.36-5.76
						c-0.01-1.73-1.06-2.93-1.82-4.31c-0.4-0.73-0.97-0.91-1.7-1c-1.2-0.15-2.39-0.48-3.59-0.5c-1.13-0.02-2.26,0.31-3.39,0.42
						c-0.92,0.09-1.85,0.05-2.77,0.16c-1.61,0.19-3.2,0.43-4.66,1.22c-1.19,0.64-2.43,1.17-3.65,1.76
						c-0.44,0.21-0.91,0.41-1.27,0.72c-0.58,0.52-1.18,0.34-1.74,0.13C471.27,160.35,471.29,160.31,470.56,159.13z"/>
				</g>
				<g>
					<path class="st4" d="M526.55,249.5c-1.19-0.51-1.77,0.28-2.39,0.98c-0.06,0.07-0.1,0.19-0.18,0.23
						c-1.11,0.51-1.09,1.54-1.31,2.54c-0.28,1.3-1.18,2.29-2.04,3.26c-0.58,0.65-1.19,1.27-1.83,1.95c1.92-0.11,3.47-0.79,4.49-2.45
						c0.3-0.49,0.55-1.02,0.84-1.52c0.14-0.23,0.32-0.44,0.49-0.65c0.53-0.7,0.84-1.49,0.98-2.36c0.05-0.34,0.25-0.65,0.41-0.97
						C526.18,250.16,526.37,249.83,526.55,249.5z"/>
				</g>
				<g>
					<path class="st0" d="M485.3,200.84c-0.36,0.62-0.07,1,0.14,1.42c0.63,1.22,1.21,2.45,1.85,3.66c0.55,1.05,1.15,2.07,1.73,3.1
						c0.96-0.33,1.85-0.64,2.77-0.95c-0.01-0.02-0.02-0.14-0.09-0.22c-1.42-1.79-2.79-3.62-4.28-5.35
						C486.86,201.84,486.03,201.4,485.3,200.84z"/>
				</g>
			</g>
			<g>
				<g>
					<path class="st5" d="M485.07,205.16c-0.83-0.46-1.68-0.88-2.49-1.37c-1.67-1.01-3.38-1.92-5.24-2.55
						c-1.31-0.45-2.56-1.1-3.82-1.68c-1.26-0.58-2.51-1.18-3.75-1.77c0.18-2.32,0.36-4.72,0.54-7.15c1.52,0.05,2.43-0.84,3.16-2.05
						c-0.19,0.02-0.38,0.04-0.57,0.07c-1.1,0.2-2.2-0.02-3.13-0.49c-1.03-0.52-1.52-1.6-1.66-2.78c-0.15-1.24,0.4-2.31,0.86-3.37
						c0.25-0.57,0.73-1.13,1.25-1.46c0.42-0.26,1.06-0.18,1.6-0.2c0.31-0.01,0.62,0.07,0.93,0.13c0.76,0.13,1.24,0.62,1.46,1.3
						c0.18,0.55,0.54,0.93,0.96,1.24c0.88,0.63,1.9-0.12,2.22-0.87c0.74-1.73,1.24-3.56,1.41-5.43c0.15-1.62,0.09-3.26-0.37-4.87
						c-0.16-0.57-0.12-1.21-0.18-1.88c0.63,0,1.23-0.01,1.83,0c2.79,0.08,5.57,0.17,8.36,0.25c2.22,0.06,4.44,0.1,6.66,0.18
						c0.36,0.01,0.72,0.06,1.07,0.1c0.16,0.09,0.33,0.17,0.49,0.26c0.25,0.2,0.49,0.43,0.71,0.68c1.27,1.81,1.7,3.88,2.11,6
						c0.31,1.59,0.99,3.13,1.6,4.65c0.52,1.28,0.49,1.55-0.62,2.33c-0.8,0.57-1.68,0.9-2.64,1.05c-0.19,0.03-0.38,0.07-0.67,0.13
						c0.22,0.33,0.38,0.59,0.56,0.83c0.49,0.65,0.52,1.34,0.33,2.13c-0.63,2.56-2.14,4.43-4.34,5.8c-0.35,0.22-0.64,0.54-1,0.75
						c-0.49,0.29-0.99,0.61-1.53,0.74c-1.76,0.41-3.53,0.81-5.31,1.08c-1.67,0.26-3.36,0.33-5.03-0.14
						c-0.13-0.04-0.27-0.07-0.4-0.09c-0.03-0.01-0.07,0.03-0.17,0.07c2.27,2.42,3.36,5.48,4.92,8.28L485.07,205.16z"/>
				</g>
				<g>
					<g>
						<path class="st5" d="M472.08,244.9c0.33-0.59,0.65-1.19,0.97-1.79c0.45-0.85,0.92-1.72,1.42-2.57c0.42-0.7,0.91-1.34,1.35-1.9
							c0.17-0.22,0.34-0.44,0.49-0.64l0.65-0.89l3.34,2.07c0.08,0.05,0.17,0.1,0.25,0.14c0.27,0.15,0.6,0.33,0.89,0.61
							c0.52,0.5,1.1,0.84,1.77,1.04c0.49,0.14,0.91,0.31,1.29,0.5c1.43,0.74,3.12,1.61,4.8,2.53c0.36,0.19,0.63,0.43,0.87,0.64
							c0.08,0.07,0.16,0.14,0.24,0.21l0.55,0.44c-0.03,0.03-0.06,0.05-0.07,0.06c-0.01,0.01-0.01,0.01-0.02,0.01
							c-0.09,0.07-0.19,0.13-0.28,0.19c-0.19,0.12-0.38,0.24-0.57,0.36c-0.41,0.25-0.83,0.48-1.22,0.76
							c-0.16,0.11-0.3,0.24-0.41,0.38c-0.18-0.03-0.37-0.07-0.55-0.12c-0.28-0.07-0.5-0.18-0.68-0.27c-0.07-0.04-0.14-0.08-0.22-0.1
							l-0.07-0.02c-0.75-0.22-1.52-0.44-2.29-0.63c0.39,0.5,0.7,1.22,0.49,2.21c-0.02,0.11-0.06,0.25-0.11,0.4
							c0.18,0.42,0.28,0.94,0.04,1.35c-0.29,0.49-0.88,0.53-1.35,0.34c-0.24-0.1-0.41-0.29-0.43-0.54c-0.07,0-0.15-0.01-0.22-0.02
							c-0.09-0.01-0.17-0.01-0.25-0.02c0.33,1.02,0.34,2.01-0.4,2.92c-0.73,0.89-1.76,1.41-2.87,1.58l-0.48,1.29
							c-0.11-0.02-0.22-0.03-0.34-0.03c-0.07,0-0.13,0.01-0.2,0.02l-0.74-0.4c-1.22-0.65-1.77-1.68-2.22-2.51
							c-0.19-0.36-0.38-0.71-0.59-0.98l-1.54-1.94h0.91c-0.52-0.27-0.97-0.67-1.33-1.19c-0.12-0.18-0.24-0.36-0.35-0.54
							c-0.13-0.21-0.26-0.41-0.39-0.58C471.64,246.55,471.6,245.75,472.08,244.9z"/>
					</g>
					<g>
						<path class="st5" d="M501.72,249.08l-1.94-0.47l0.65,2.52c0.12,0.46,0.23,0.92,0.36,1.37c0.07,0.25,0.16,0.5,0.24,0.75
							c0.11,0.33,0.22,0.65,0.29,0.95c0.13,0.59,0.54,1.12,1.19,1.52c0.64,0.4,1.66,0.75,2.62,0.52c1.01-0.24,1.9-0.2,2.71,0.11
							c0.33,0.13,0.62,0.25,0.86,0.39c0.31,0.19,0.63,0.28,0.95,0.28c0.46,0,0.93-0.2,1.4-0.6c0.31-0.27,0.56-0.57,0.78-0.83
							l0.17-0.2c0.03-0.03,0.05-0.05,0.07-0.07c0.76,0.57,1.54,0.58,2.25,0.04c0.17-0.13,0.34-0.25,0.52-0.36
							c0.27-0.18,0.55-0.37,0.83-0.6c0.43-0.35,0.8-1.05,0.67-1.72l-0.04-0.23c-0.2-1.02-0.4-2.07-0.71-3.11
							c-0.31-1.03-0.67-2.05-1.01-3.04c-0.15-0.42-0.29-0.83-0.43-1.25l-0.26-0.75l-1.81-0.12l-0.37,0.85
							c-0.08,0.15-0.2,0.41-0.24,0.73c-0.11,1.01-0.21,2.02-0.32,3.03c0-0.01,0-0.02,0-0.03c-0.05-0.42-0.1-0.82-0.07-1.17
							c0.15-1.86-0.89-2.97-1.73-3.87c-0.17-0.18-0.33-0.36-0.49-0.54c-0.24-0.28-0.52-0.37-0.64-0.41l-1.58-0.66l-0.09,1.71
							c-0.01,0.15-0.02,0.3-0.03,0.45c-0.03,0.39-0.07,0.82-0.02,1.28c0.03,0.24,0.06,0.48,0.09,0.72c-0.2-0.36-0.44-0.69-0.65-0.99
							c-0.11-0.15-0.21-0.3-0.31-0.45c-0.31-0.46-0.69-0.86-1.2-1.26l-2.1-1.64l0.17,2.66c0.01,0.1,0.02,0.19,0.03,0.29
							c0.01,0.05,0.02,0.11,0.02,0.16c-0.32,1.77,0.26,3.36,0.77,4.76c0.02,0.04,0.03,0.09,0.05,0.13
							C502.97,249.53,502.44,249.26,501.72,249.08z M503.97,251.73c0.07,0.2,0.15,0.39,0.23,0.59l-0.06,0.02
							c-0.07-0.09-0.13-0.19-0.18-0.3C503.96,251.94,503.97,251.83,503.97,251.73z"/>
					</g>
				</g>
			</g>
			<g>
				<path d="M415.79,243.38c0.01,0.09,0.13,0.18,0.12,0.27c-0.12,1.12,0.72,1.62,1.44,2.16c1.63,1.23,3.58,1.49,5.53,1.62
					c1.64,0.11,3.3,0.18,4.94,0.04c2.32-0.2,4.62-0.65,6.79-1.56c0.57-0.24,1.04-0.74,1.57-1.1c0.71-0.49,1.44-0.94,2.13-1.45
					c0.32-0.23,0.56-0.56,0.86-0.83c0.2-0.18,0.45-0.3,0.65-0.48c1.36-1.13,2.27-2.6,3.1-4.13c0.11-0.2,0.21-0.4,0.36-0.68
					c0.5,0.48,0.96,0.91,1.4,1.36c0.06,0.06,0.09,0.21,0.08,0.3c-0.22,1.45-0.46,2.91-0.69,4.36c-0.08,0.54-0.15,1.08-0.23,1.61
					c-0.11,0.81-0.24,1.61-0.33,2.42c-0.15,1.38-0.23,2.76-0.41,4.14c-0.11,0.86-0.4,1.69-0.5,2.55c-0.1,0.84,0.02,1.7-0.12,2.53
					c-0.27,1.62-0.32,3.3-1.1,4.8c-0.28,0.54-0.61,1.07-0.98,1.55c-0.45,0.59-0.73,1.22-0.73,1.97c0.01,1.57-0.01,3.15,0.01,4.72
					c0.01,1.11,0.53,1.69,1.63,1.84c1.65,0.23,3.3,0.46,4.94,0.7c0.12,0.02,0.28,0.1,0.32,0.2c0.37,1.01,0.9,2,1.02,3.05
					c0.19,1.67,0.29,3.4,0.08,5.06c-0.21,1.7-0.85,3.35-1.29,5.02c-0.08,0.3-0.15,0.6-0.2,0.9c-0.31,1.65-1.12,3.11-1.77,4.63
					c-0.37,0.86-0.73,1.73-1.14,2.57c-0.44,0.9-0.95,1.77-1.41,2.66c-0.06,0.12-0.01,0.31-0.06,0.45c-0.06,0.19-0.11,0.42-0.24,0.55
					c-0.82,0.76-1.67,1.49-2.51,2.23c-0.13,0.12-0.29,0.2-0.41,0.33c-0.82,0.9-1.82,1.52-2.9,2.05c-0.22,0.11-0.33,0.45-0.49,0.68
					c-0.63,0.86-0.89,1.87-0.75,2.88c0.14,1,0.53,1.96,0.81,2.94c0.02,0.07,0.04,0.14,0.07,0.24c-0.41-0.29-0.79-0.54-1.15-0.81
					c-0.68-0.51-1.41-0.32-2.04-0.02c-0.58,0.28-1.04,0.79-1.56,1.19c-0.2,0.15-0.43,0.27-0.63,0.42c-0.08,0.06-0.17,0.15-0.21,0.25
					c-0.35,0.93-0.47,1.87-0.11,2.83c0.08,0.21,0.07,0.45,0.12,0.75c0.05,0.06,0.22,0.21,0.29,0.4c0.79,2.23,1.47,4.5,2.38,6.67
					c0.7,1.66,1.68,3.21,3.04,4.46c0.81,0.74,1.8,1.11,2.86,1.28c1.99,0.32,3.95,0.18,5.91-0.26c0.72-0.16,1.07-0.74,1.61-1.1
					c0.09-0.06,0.11-0.33,0.06-0.47c-0.3-0.74-0.67-1.45-0.96-2.2c-0.23-0.62-0.82-0.68-1.28-0.94c-0.21-0.12-0.45-0.17-0.69-0.23
					c-0.17-0.04-0.36-0.04-0.53-0.07c-0.15-0.02-0.31-0.03-0.44-0.09c-1.08-0.55-1.72-1.38-1.87-2.64
					c-0.11-0.94-0.43-1.86-0.65-2.79c-0.02-0.07-0.01-0.15-0.02-0.23c0.07-0.06,0.14-0.12,0.2-0.19c0.31,0.4,0.6,0.81,0.94,1.19
					c1.22,1.39,2.85,1.89,4.62,2.01c1.13,0.08,2.27,0.18,3.4,0.11c1.33-0.08,2.66-0.29,3.98-0.5c1.16-0.19,2.32-0.38,3.44-0.73
					c1.47-0.47,2.93-1.01,4.33-1.66c2.2-1.02,4.37-2.11,6.49-3.28c1.32-0.72,2.5-1.71,3.81-2.45c1.74-0.98,3.2-2.29,4.69-3.58
					c1.08-0.94,1.79-2.15,2.49-3.35c0.81-1.38,1.48-2.84,2.21-4.27c0.25-0.5,0.49-1.01,0.74-1.53c1.19,1.02,2.36,2.02,3.52,3.02
					c0.91,0.79,1.84,1.57,2.73,2.38c0.89,0.8,1.74,1.64,2.61,2.47c0.62,0.59,1.23,1.18,1.84,1.78c1.4,1.38,2.78,2.78,4.2,4.14
					c1.01,0.96,2.09,1.85,3.13,2.77c1.8,1.6,3.58,3.22,5.38,4.81c0.61,0.54,0.84,1.17,0.74,1.99c-0.03,0.25,0.18,0.54,0.3,0.8
					c0.7,1.52,1.98,2.29,3.55,2.67c0.92,0.22,1.83,0.6,2.75,0.61c1.62,0.01,3.26-0.14,4.87-0.34c2.27-0.28,4.47-0.91,6.52-1.9
					c1.77-0.85,3.64-1.5,5.19-2.82c0.92-0.78,2.04-1.4,3.16-1.88c1.71-0.73,3.18-1.76,4.51-3.01c0.38-0.36,0.58-0.91,0.86-1.37
					c0.1-0.17,0.23-0.32,0.32-0.49c0.07-0.15,0.19-0.38,0.13-0.47c-0.46-0.73-0.89-1.49-1.46-2.12c-0.73-0.81-1.75-1.14-2.82-1.11
					c-1.19,0.03-2.37,0.25-3.55,0.34c-0.81,0.06-1.5,0.38-2.2,0.74c-0.15,0.08-0.51,0-0.61-0.13c-1.79-2.21-3.57-4.42-5.33-6.66
					c-0.82-1.04-1.57-2.13-2.36-3.2c-0.63-0.85-1.33-1.64-1.88-2.54c-0.83-1.36-1.53-2.8-2.33-4.18c-1.1-1.91-2.14-3.86-3.37-5.68
					c-0.82-1.22-1.94-2.23-2.92-3.34c-1.61-1.82-3.17-3.66-4.42-5.77c-1.18-1.99-2.65-3.81-3.92-5.74c-0.56-0.85-0.9-1.84-1.43-2.7
					c-0.89-1.43-1.83-2.83-2.79-4.22c-0.47-0.69-1.03-1.33-1.53-1.97c1-0.94,1.95-1.94,3.2-2.61c0.51-0.28,1.09-0.71,1.21-1.44
					c0.01-0.09,0.2-0.16,0.31-0.22c1.36-0.82,2.74-1.62,3.8-2.85c0.08,0.03,0.14,0.04,0.18,0.07c1.34,1.13,2.91,0.96,4.48,0.81
					c0.2-0.02,0.44-0.01,0.61,0.08c0.67,0.33,1.43,0.43,1.91,1.22c0.29,0.47,1.11,0.6,1.65,0.94c1.46,0.92,3.14,1.1,4.78,1.39
					c0.31,0.06,0.66-0.04,0.99-0.09c2.08-0.3,3.99-1.08,5.73-2.23c2.21-1.45,3.73-3.48,4.79-5.9c0.33-0.75,0.83-1.43,1.24-2.14
					c0.13-0.22,0.2-0.47,0.33-0.69c0.37-0.65,0.62-1.3,1.33-1.79c1.05-0.72,2.08-1.54,2.71-2.75c0.44-0.84,1.07-1.58,1.65-2.42
					c1.47,0.29,3.02,0.26,4.56-0.37c1.16-0.48,1.74-1.29,1.71-2.52c-0.01-0.4-0.14-0.79-0.21-1.16c0.35-0.21,0.82-0.38,1.14-0.69
					c1.09-1.05,0.74-3.12-0.67-3.96c-0.77-0.45-1.57-0.87-2.39-1.2c-0.62-0.25-1.3-0.38-1.96-0.46c-0.38-0.05-0.51-0.23-0.58-0.53
					c-0.08-0.31-0.15-0.61-0.19-0.93c-0.12-1.14-0.81-1.99-1.41-2.88c-0.59-0.87-1.09-1.79-1.66-2.67
					c-0.35-0.54-0.73-1.07-1.16-1.54c-0.91-1-1.79-2.06-2.82-2.93c-1.55-1.31-3.26-2.44-4.83-3.73c-1.28-1.05-2.79-1.63-4.2-2.42
					c-1.3-0.72-2.67-1.17-4.05-1.6c-1.02-0.31-1.65-0.98-2.22-1.78c-0.77-1.08-1.46-2.22-2.26-3.27c-0.49-0.64-1.14-1.16-1.71-1.74
					c-0.66-0.68-1.27-1.41-1.99-2.02c-0.89-0.75-1.86-1.41-2.82-2.08c-0.87-0.61-1.86-0.79-2.92-0.8c-0.78-0.01-1.29,0.46-1.23,1.25
					c0.08,1.01,0.02,1.13-1,1.05c-0.88-0.06-1.76-0.25-2.62-0.44c-1.22-0.28-2.16-0.06-2.69,1.11c-0.32,0.71-0.62,1.42-0.94,2.16
					c-0.88-0.84-1.73-1.67-2.61-2.47c-0.48-0.43-1.03-0.78-1.53-1.19c-0.74-0.61-1.43-1.29-2.21-1.85
					c-0.68-0.49-1.33-1.08-2.25-1.15c-0.17-0.01-0.31-0.36-0.53-0.64c2.14-0.11,4.08-0.52,5.89-1.35c1.34-0.62,2.62-1.39,3.83-2.23
					c0.53-0.37,0.8-1.08,1.21-1.63c0.61-0.8,1.25-1.57,1.83-2.39c0.33-0.46,0.56-0.99,0.82-1.49c0.26-0.49,0.51-0.98,0.78-1.47
					c0.24-0.16,0.46-0.34,0.68-0.53c0.19-0.15,0.37-0.31,0.55-0.47c0.31-0.01,0.68-0.3,1-0.47c0.94-0.48,1.55-1.22,1.97-2.2
					c0.28-0.67-0.14-1.13-0.29-1.66c-0.14-0.51-0.63-0.91-0.82-1.41c-0.41-1.1-0.77-2.22-1.08-3.35c-0.26-0.94-0.45-1.9-0.65-2.86
					c-0.11-0.53-0.12-1.09-0.24-1.62c-0.07-0.32-0.23-0.63-0.38-0.92c-0.24-0.46-0.48-0.92-0.77-1.36
					c-0.14-0.21-0.29-0.39-0.47-0.54c-0.03-0.05-0.06-0.1-0.1-0.14c-0.22-0.34-0.48-0.65-0.82-0.89c0.68-0.61,1.37-1.2,1.27-2.31
					c-0.22-2.28-0.32-4.58-0.58-6.86c-0.12-1.07-0.48-2.12-0.74-3.17c-0.27-1.06-1.18-1.51-1.98-2.08c-1.24-0.89-2.76-0.99-4.1-1.57
					c-1.31-0.58-2.68-0.56-4.02-0.61c-1.74-0.06-3.46,0.25-5.12,0.82c-0.84,0.29-1.66,0.22-2.51-0.06
					c-1.86-0.62-3.64-1.52-5.64-1.72c-0.32-0.03-0.64-0.03-0.95-0.06c-1.19-0.12-2.39-0.27-3.58-0.34
					c-0.58-0.03-1.18,0.09-1.77,0.15c-0.25,0.02-0.51,0.01-0.75,0.08c-0.27,0.08-0.51,0.25-0.77,0.35
					c-0.29,0.11-0.59,0.19-0.89,0.26c-0.91,0.21-1.62,0.75-2.03,1.54c-0.45,0.87-0.71,1.84-1.07,2.75c-0.36,0.9-0.51,1.83-0.45,2.79
					c0.01,0.16,0.09,0.31,0.1,0.47c0.01,0.23,0.01,0.46-0.04,0.68c-0.2,0.85-0.42,1.69-0.62,2.53c-0.02,0.1,0.05,0.23,0.05,0.34
					c0.02,0.29,0.05,0.58,0.04,0.86c-0.03,0.46-0.19,0.94-0.11,1.38c0.15,0.78,0.41,1.54,0.67,2.28c0.13,0.38-0.04,0.58-0.28,0.79
					c-0.21,0.19-0.49,0.34-0.62,0.58c-0.51,0.93-1.04,1.83-1.4,2.86c-0.34,1-0.58,2.01-0.85,3.03c-0.43,1.64-0.68,3.27-0.38,4.95
					c0.16,0.9,0.34,1.82,0.68,2.66c0.65,1.57,1.32,3.15,2.17,4.62c0.9,1.56,1.97,3.03,3.08,4.45c0.53,0.68,1.36,1.12,1.98,1.74
					c0.46,0.45,0.95,0.76,1.59,0.73c0.28-0.01,0.55-0.08,0.88-0.13c-0.05,0.44-0.1,0.88-0.16,1.4c-0.37,0.03-0.74,0.08-1.11,0.1
					c-1.37,0.05-2.59,0.61-3.78,1.21c-1.72,0.87-3.44,1.76-5.09,2.75c-0.82,0.49-1.59,1.16-2.19,1.9c-1.43,1.76-2.75,3.61-4.12,5.42
					c-0.61,0.8-1.28,1.55-1.87,2.36c-0.58,0.79-1.08,1.63-1.64,2.42c-1.07,1.5-1.85,3.2-3.39,4.36c-0.52,0.39-0.8,1.08-1.21,1.65
					c-0.46-0.54-0.9-1.18-1.47-1.68c-0.72-0.64-1.55-1.17-2.34-1.73c-0.88-0.62-1.77-1.23-2.66-1.83c-0.39-0.26-0.8-0.5-1.21-0.74
					c-2.05-1.22-4.08-2.47-6.17-3.63c-0.76-0.42-1.62-0.68-2.46-0.93c-1.56-0.47-3.12-0.91-4.7-1.29c-0.86-0.21-1.81-0.51-2.4,0.46
					c0.21,1.15,1.64,1.3,2,2.32c0.08-0.08,0.16-0.17,0.24-0.25c0.1,0.29,0.16,0.61,0.32,0.87c0.71,1.22,1.49,2.4,2.15,3.65
					c0.37,0.69,0.52,1.48,0.82,2.21c0.39,0.94,0.75,1.91,1.25,2.79c0.46,0.82,1.05,1.57,1.79,2.19c1.09,0.9,2.13,1.85,3.23,2.73
					c0.37,0.3,0.88,0.43,1.32,0.65c0.32,0.16,0.63,0.36,1,0.57c-1.03,0.53-1.97,0.98-2.89,1.49c-0.3,0.16-0.55,0.43-0.78,0.68
					c-1.33,1.41-2.8,2.7-3.56,4.58c-0.7,1.72-1.58,3.39-2.81,4.79c-1.14,1.31-2.43,2.49-3.91,3.43c-0.94,0.6-1.88,1.21-2.88,1.7
					c-0.53,0.26-1.12,0.53-1.81,0.37c-0.26-0.06-0.68,0.11-0.87,0.32C415.61,242.71,415.75,243.11,415.79,243.38z M428.94,239.32
					c1.14-0.71,2.25-1.42,3-2.58c0.06-0.1,0.15-0.18,0.25-0.25c1.02-0.69,2.05-1.35,3.06-2.05c0.53-0.37,0.99-0.85,1.53-1.22
					c0.6-0.41,1.23-0.76,1.88-1.08c0.13-0.06,0.44,0.1,0.59,0.24c0.36,0.34,0.67,0.72,0.99,1.1c0.24,0.28,0.46,0.57,0.72,0.89
					c-0.16,0.09-0.25,0.17-0.36,0.2c-0.88,0.21-1.75,0.48-2.65,0.59c-0.8,0.1-1.31,0.56-1.77,1.12c-1.19,1.43-2.47,2.75-4.24,3.48
					c-0.58,0.24-1.15,0.48-1.75,0.66c-0.47,0.14-0.99,0.14-1.46,0.27c-0.66,0.18-1.31,0.43-1.96,0.65c-0.02-0.05-0.05-0.1-0.07-0.16
					C427.43,240.56,428.12,239.83,428.94,239.32z M434.91,232.78c-0.82,0.51-1.66,1.01-2.45,1.56c-0.51,0.35-0.95,0.81-1.44,1.2
					c-0.41,0.33-0.85,0.65-1.27,0.97c-0.03-0.03-0.05-0.05-0.08-0.08c0.02-0.05,0.03-0.12,0.07-0.16c1.36-1.41,2.37-3.1,3.74-4.52
					c1-1.03,1.98-2.04,3.17-2.82c0.45-0.3,1.01-0.44,1.49-0.64c0.07,0.97,0.12,1.79,0.17,2.41
					C437.13,231.42,436.02,232.09,434.91,232.78z M437.17,226.14c0.59-0.06,1.18-0.15,1.87-0.24c-0.24,0.66-0.39,1.16-1.05,1.24
					c-1.9,0.23-3.18,1.51-4.51,2.69c-0.43,0.38-0.67,1.02-1.14,1.33c-0.96,0.64-1.75,1.42-2.47,2.3c-0.37,0.45-0.84,0.83-1.26,1.25
					c-0.05-0.04-0.09-0.08-0.14-0.12c0.19-0.29,0.36-0.59,0.56-0.88c0.4-0.59,0.83-1.17,1.22-1.77c0.59-0.9,1.03-1.94,1.78-2.68
					C433.47,227.83,434.95,226.35,437.17,226.14z M430.66,217.68c0.54,0.38,0.92,0.66,1.3,0.93c0.82,0.6,1.66,1.2,2.47,1.82
					c1.02,0.79,1.98,1.64,3.02,2.39c0.75,0.55,1.39,1.16,1.91,2.07c-0.76-0.36-1.4-0.67-2.05-0.98c-0.45-0.21-0.95-0.36-1.35-0.64
					c-0.64-0.45-1.18-1.06-1.85-1.45c-1.36-0.81-2.4-1.88-3.11-3.29C430.88,218.31,430.81,218.06,430.66,217.68z M435.81,220.03
					c-0.98-1.02-2.07-1.83-3.27-2.54c-0.8-0.48-1.46-1.13-1.73-2.1c0.79,0.63,1.54,1.26,2.33,1.83c1.18,0.85,2.35,1.71,3.59,2.47
					c0.93,0.57,1.4,1.42,1.83,2.37C437.58,221.45,436.59,220.84,435.81,220.03z M429.93,212.91c0.51,0.2,0.86,0.28,1.15,0.46
					c1.44,0.9,2.92,1.71,4.54,2.26c0.99,0.33,1.94,0.82,2.61,1.7c0.47,0.62,0.97,1.21,1.47,1.8c1.16,1.4,1.14,3.02,0.88,4.69
					c0,0.03-0.07,0.05-0.08,0.05c-0.12-0.4-0.19-0.82-0.37-1.18c-0.38-0.75-0.79-1.5-1.26-2.2c-0.36-0.53-0.77-1.07-1.28-1.43
					c-1.09-0.77-2.28-1.4-3.4-2.12c-0.33-0.22-0.59-0.55-0.97-0.92C431.89,215.48,431.1,214.11,429.93,212.91z M442.37,221.05
					c-0.67-0.88-1.35-1.7-1.95-2.58c-0.78-1.14-1.74-2.09-2.9-2.8c-1.52-0.93-3.1-1.76-4.67-2.62c-0.64-0.35-1.29-0.73-1.98-0.97
					c-1.2-0.43-1.98-1.36-2.82-2.22c-0.1-0.1-0.15-0.26-0.23-0.39c0.02-0.04,0.05-0.09,0.07-0.13c0.23,0.07,0.47,0.11,0.68,0.21
					c0.38,0.18,0.72,0.43,1.1,0.59c1.8,0.78,3.64,1.49,5.24,2.68c0.38,0.28,0.82,0.49,1.27,0.65c1.22,0.44,2.31,1.12,3.21,2.02
					c1.13,1.14,2.14,2.4,3.18,3.62C443.53,220.2,443.51,220.27,442.37,221.05z M467.01,177.96c0.34-0.41,0.55-0.72,0.81-0.98
					c0.47-0.47,1-0.89,1.45-1.39c1.01-1.13,2.19-1.9,3.84-1.82C472.52,174.78,468.36,177.68,467.01,177.96z M476.57,176.42
					c-0.18,1.53-3.64,3-4.97,2.27C473.21,177.81,474.58,176.47,476.57,176.42z M464.51,175.75c0.54-1.92,2.94-4.51,3.96-4.26
					C468.11,172.76,465.26,175.83,464.51,175.75z M497.13,167.86c0.01,0.25-0.1,0.53-0.23,0.77c-0.16,0.31-0.39,0.59-0.61,0.92
					c-0.18-0.06-0.42-0.13-0.66-0.21c-0.49-0.16-0.98-0.48-1.47-0.47c-1.56,0-3.02-0.36-4.47-0.89c-1.18-0.43-2.37-0.94-3.6-1.1
					c-1.69-0.22-3.39,0.13-5.07,0.45c-1.04,0.2-2.1,0.36-3.16,0.47c-0.8,0.08-1.61,0.05-2.42,0.07c-0.58,0.01-1.15,0.06-1.73,0.04
					c-1.52-0.05-3.04-0.14-4.56-0.2c-0.27-0.01-0.55,0.04-0.82,0.08c-0.88,0.13-1.76,0.33-2.64,0.38c-0.62,0.03-1.09,0.27-1.53,0.68
					c-0.64-1.19-0.43-2.53-0.68-3.79c-0.02-0.08,0.05-0.18,0.09-0.27c0.8-1.79,1.59-3.59,2.4-5.38c0.4-0.88,0.83-1.74,1.23-2.62
					c0.25-0.55,0.6-1.03,1.16-1.2c0.8-0.25,1.63-0.5,2.46-0.53c1.37-0.06,2.75,0.04,4.13,0.1c1.24,0.05,2.39,0.44,3.54,1
					c-0.13,0.09-0.21,0.15-0.3,0.19c-0.89,0.38-1.77,0.77-2.68,1.11c-1.09,0.41-2.19,0.78-3.3,1.16c-0.52,0.18-1.06,0.33-1.67,0.52
					c0.73,1.18,0.72,1.22,1.63,1.56c0.57,0.21,1.16,0.39,1.74-0.13c0.36-0.32,0.83-0.51,1.27-0.72c1.21-0.59,2.46-1.12,3.65-1.76
					c1.47-0.79,3.06-1.03,4.66-1.22c0.92-0.11,1.85-0.06,2.77-0.16c1.13-0.12,2.26-0.44,3.39-0.42c1.2,0.02,2.39,0.35,3.59,0.5
					c0.72,0.09,1.3,0.27,1.7,1c0.76,1.38,1.8,2.58,1.82,4.31C496.79,164.02,497.02,165.94,497.13,167.86z M480.29,196.78
					c2.27,2.42,3.36,5.48,4.92,8.28l-0.14,0.09c-0.83-0.46-1.68-0.88-2.49-1.38c-1.67-1.01-3.38-1.92-5.24-2.55
					c-1.31-0.45-2.56-1.1-3.82-1.68c-1.26-0.58-2.51-1.18-3.75-1.77c0.18-2.32,0.36-4.72,0.54-7.15c1.52,0.05,2.43-0.84,3.16-2.05
					c-0.19,0.02-0.38,0.04-0.57,0.07c-1.1,0.2-2.2-0.02-3.13-0.49c-1.03-0.52-1.52-1.6-1.66-2.78c-0.15-1.24,0.4-2.31,0.86-3.37
					c0.25-0.57,0.73-1.13,1.25-1.46c0.42-0.26,1.06-0.18,1.6-0.2c0.31-0.01,0.62,0.07,0.93,0.13c0.76,0.13,1.24,0.62,1.46,1.3
					c0.18,0.55,0.54,0.93,0.96,1.24c0.88,0.64,1.9-0.12,2.22-0.87c0.74-1.73,1.24-3.56,1.41-5.43c0.15-1.62,0.09-3.26-0.37-4.87
					c-0.16-0.57-0.12-1.21-0.18-1.88c0.63,0,1.23-0.01,1.83,0c2.79,0.08,5.57,0.17,8.36,0.25c2.22,0.06,4.44,0.1,6.66,0.18
					c0.36,0.01,0.72,0.06,1.07,0.1c0.16,0.09,0.33,0.17,0.49,0.26c0.25,0.2,0.49,0.43,0.71,0.68c1.27,1.81,1.7,3.88,2.11,6
					c0.31,1.59,0.99,3.13,1.6,4.65c0.52,1.28,0.49,1.55-0.62,2.33c-0.8,0.57-1.68,0.9-2.64,1.05c-0.19,0.03-0.38,0.07-0.67,0.13
					c0.22,0.33,0.38,0.59,0.56,0.83c0.49,0.65,0.53,1.34,0.33,2.13c-0.63,2.56-2.14,4.43-4.34,5.8c-0.35,0.22-0.64,0.54-1,0.75
					c-0.49,0.29-0.99,0.61-1.53,0.74c-1.76,0.41-3.53,0.81-5.31,1.08c-1.67,0.26-3.36,0.33-5.03-0.14c-0.13-0.04-0.27-0.07-0.4-0.09
					C480.43,196.71,480.39,196.74,480.29,196.78z M491.79,208.06c-0.92,0.32-1.81,0.62-2.77,0.95c-0.58-1.03-1.18-2.05-1.73-3.1
					c-0.64-1.21-1.22-2.45-1.85-3.66c-0.22-0.42-0.51-0.8-0.14-1.42c0.73,0.56,1.56,1,2.13,1.66c1.49,1.73,2.86,3.56,4.28,5.35
					C491.77,207.93,491.79,208.04,491.79,208.06z M512.93,212.57c-0.65,0-1.31-0.06-1.95,0.02c-0.6,0.07-0.91-0.18-1.16-0.68
					c-0.34-0.66-0.61-1.42-1.12-1.92c-1.12-1.1-2.36-2.08-3.56-3.1c-0.34-0.29-0.59,0.09-0.59,0.24c0.01,0.27,0.17,0.57,0.34,0.8
					c0.53,0.71,1.2,1.33,1.63,2.09c0.47,0.81,0.8,1.7,1.59,2.29c0.09,0.07,0.11,0.23,0.15,0.34c-0.33,0.04-0.61,0.09-0.89,0.1
					c-0.14,0-0.34-0.04-0.42-0.14c-0.89-1.02-1.75-2.05-2.63-3.08c-0.17-0.2-0.35-0.4-0.55-0.57c-0.42-0.36-0.86-0.7-1.29-1.05
					c-0.73-0.58-1.45-1.17-2.16-1.74c-0.25,0.28-0.4,0.45-0.56,0.64c2.45,1.69,4.6,3.65,6.32,6.09c-0.43,0.03-0.86-0.03-1.23,0.09
					c-0.42,0.14-0.66,0.03-0.93-0.25c-0.89-0.91-1.74-1.85-2.7-2.67c-0.74-0.63-1.61-1.11-2.44-1.62c-0.13-0.08-0.39,0.07-0.6,0.12
					c0.04,0.15,0.03,0.36,0.13,0.44c0.5,0.44,0.98,0.94,1.56,1.24c1.39,0.72,2.25,1.99,3.45,3.03c-0.75,0.18-1.4,0.34-2.05,0.5
					c-0.17,0.04-0.39,0.15-0.5,0.09c-0.38-0.21-0.75-0.46-1.08-0.74c-0.51-0.45-0.96-0.98-1.49-1.41c-0.46-0.38-0.95-0.7-1.58-0.86
					c-0.64-0.16-1.19-0.66-1.91-1.08c-0.21,0.52-0.41,1-0.66,1.6c1.63,1.09,3.24,2.17,5,3.35c-0.83,0.31-1.5,0.51-2.12,0.82
					c-0.48,0.24-0.76,0.14-1.06-0.24c-0.98-1.23-2.45-1.82-3.68-2.72c-0.1-0.07-0.33-0.09-0.41-0.03c-0.09,0.07-0.14,0.27-0.12,0.41
					c0.08,0.64,0.59,0.93,1.09,1.16c1.03,0.49,1.94,1.14,2.71,1.97c-0.49,0.25-0.91,0.49-1.36,0.68c-0.24,0.1-0.58,0.2-0.78,0.1
					c-0.91-0.44-1.77-0.98-2.68-1.44c-0.62-0.31-1.27-0.57-1.92-0.8c-0.17-0.06-0.49,0.03-0.61,0.17c-0.25,0.3-0.22,0.77-0.02,1.02
					c0.29,0.36,0.73,0.62,1.15,0.86c0.72,0.42,1.48,0.79,2.36,1.26c-0.6,0.2-1.05,0.31-1.46,0.51c-0.34,0.17-0.56,0.64-1.05,0.34
					c-0.35-0.21-0.72-0.39-1.05-0.63c-0.5-0.36-0.97-0.77-1.47-1.13c-0.08-0.06-0.31-0.04-0.4,0.03c-0.44,0.38-0.38,1.02,0.12,1.35
					c0.66,0.43,1.32,0.85,1.98,1.28c-0.05,0.08-0.09,0.15-0.14,0.21c-0.69,0.84-1.34,0.9-2.15,0.23c-0.34-0.28-0.72-0.52-1.1-0.76
					c-0.43-0.27-0.8-0.27-1.08,0.33c0.55,0.47,1.12,0.95,1.73,1.47c-0.7,0.22-1.31,0.4-1.9,0.58c-1.07-1.2-0.76-1.39-1.75-0.71
					c0.15,0.33,0.3,0.66,0.49,1.04c-1.23,0.24-2.44,0.48-3.68,0.72c0.11-0.18,0.19-0.36,0.31-0.52c0.66-0.94,1.37-1.84,1.96-2.82
					c0.36-0.59,0.84-0.72,1.42-0.7c0.87,0.02,2.24-0.94,2.45-1.78c0.19-0.75,0.44-1.44,1.01-2.03c0.49-0.5,0.99-0.76,1.7-0.85
					c0.71-0.09,1.5-0.28,2.07-0.69c0.74-0.52,0.98-1.43,1-2.35c0.01-0.61,0.71-1.49,1.29-1.57c0.62-0.09,1.26-0.14,1.89-0.13
					c1.51,0.02,3.05-1.28,3.26-2.78c0.11-0.82,0.53-1.33,1.07-1.29c0.59,0.04,1.17,0.15,1.75,0.13c0.59-0.03,1.18-0.13,1.75-0.3
					c0.66-0.2,0.91-0.78,1.01-1.42c0.01-0.07,0.05-0.14,0.08-0.2c1.23,0.13,2.08,0.9,2.94,1.63c0.61,0.52,1.13,1.14,1.72,1.69
					c0.44,0.41,0.98,0.74,1.39,1.18C510.15,209.51,511.53,211.05,512.93,212.57z M532.83,238.45c-0.4-0.24-0.75-0.56-1.16-0.77
					c-0.72-0.37-1.47-0.68-2.2-1.02c-0.04-0.07-0.08-0.15-0.12-0.22c1.11,0.13,1.39-0.84,2.08-1.26c0.03-0.02,0.07-0.04,0.11-0.05
					c0.97-0.34,1.93-0.74,2.93-1.01c1.93-0.53,3.73,0.19,5.54,0.7c0.7,0.2,1.17,0.84,1.01,1.36c-0.17,0.54-0.65,0.86-1.22,0.91
					c-2.1,0.19-4.19,0.31-5.83-1.44c-0.15-0.16-0.71-0.21-0.81-0.1c-0.17,0.21-0.22,0.62-0.16,0.9c0.05,0.23,0.32,0.48,0.55,0.6
					c1.1,0.54,2.2,1.09,3.34,1.54c0.7,0.27,1.46,0.37,2.2,0.55c0.58,0.14,0.63,0.57,0.61,1.07c-0.02,0.51-0.29,0.75-0.75,0.86
					c-0.97,0.23-1.83,0.01-2.67-0.53C535.14,239.81,533.98,239.15,532.83,238.45z M518.8,258.46c0.64-0.68,1.25-1.3,1.83-1.95
					c0.86-0.97,1.77-1.97,2.04-3.26c0.21-1,0.2-2.03,1.31-2.54c0.08-0.04,0.11-0.16,0.18-0.23c0.62-0.7,1.2-1.49,2.39-0.98
					c-0.18,0.33-0.37,0.66-0.54,1.01c-0.15,0.32-0.35,0.63-0.41,0.97c-0.14,0.87-0.45,1.66-0.98,2.36
					c-0.16,0.22-0.35,0.42-0.49,0.65c-0.29,0.5-0.54,1.02-0.84,1.52C522.27,257.67,520.72,258.35,518.8,258.46z M513.66,243.36
					c-0.41-0.56-0.84-0.88-1.27-1.01c-0.18-0.07-0.36-0.12-0.54-0.13c-0.28-0.01-0.54,0.1-0.73,0.3c-0.1,0.04-0.19,0.1-0.27,0.19
					c-0.24,0.26-0.42,0.59-0.64,0.91c-0.1-0.11-0.19-0.21-0.28-0.31c-0.81-0.86-1.68-1.65-2.83-2.04c-1.17-0.4-1.94,0.15-1.95,1.37
					c0,0.21,0,0.41,0,0.61c-0.44-0.55-0.93-1.09-1.53-1.31c-0.62-0.23-1.54-0.33-2.01,0.25c-0.58,0.71-0.42,2.2-0.37,3.04
					c0.06,1.03,0.26,2.03,0.58,3c-0.24-0.05-0.4-0.09-0.56-0.13c-1.53-0.4-2.17,0.04-2.31,1.62c-0.04,0.47-0.05,0.93-0.07,1.37
					c-1.4-0.43-2.75-0.88-4.12-1.26c-0.85-0.24-1.71-0.45-2.57-0.66c0,0-0.01,0-0.01,0c-0.58-0.24-1.15-0.55-1.67-0.8
					c-0.67-0.33-1.29-0.7-1.88-1.13c1.67-0.63,3.36-1.96,2.21-3.48c-0.03-0.06-0.05-0.12-0.09-0.17c-0.19-0.23-0.52-0.39-0.86-0.52
					c-2.86-1.21-5.62-2.87-8.36-4.4c-0.59-0.38-1.16-0.79-1.74-1.18c-1-0.68-2-1.37-3.01-2.04c-1.3-0.87-2.61-1.72-3.92-2.57
					c0.12-0.33,0.21-0.56,0.3-0.8c0.83-2.26,1.65-4.52,2.48-6.78c0.1-0.29,0.19-0.59,0.6-0.49c0.72,0.17,1.36-0.18,2.04-0.29
					c0.7-0.11,1.41-0.23,2.11-0.32c0.74-0.09,1.5-0.05,2.22-0.21c1.25-0.29,2.48-0.69,3.71-1.07c0.56-0.17,1.09-0.43,1.65-0.62
					c2.1-0.69,4.22-1.34,6.31-2.06c1.51-0.51,2.99-1.1,4.48-1.66c0.8-0.3,1.63-0.56,2.39-0.95c1.83-0.95,3.77-1.63,5.8-1.89
					c2.31-0.29,4.65-0.41,6.97-0.56c1.63-0.1,3.2,0.27,4.7,0.85c0.95,0.36,1.83,0.9,2.77,1.3c0.9,0.38,1.76,0.81,2.42,1.55
					c0.14,0.16,0.34,0.29,0.53,0.37c2.08,0.83,3.45,2.61,5.13,3.96c0.96,0.77,1.72,1.82,2.49,2.8c1.46,1.87,2.49,3.97,3.17,6.32
					c-1.39-0.3-2.6,0.3-3.81,0.9c-1.41,0.69-2.81,1.38-4.21,2.1c-0.66,0.34-0.86,1.82-0.31,2.34c1.47,1.4,2.99,2.75,4.93,3.5
					c0.21,0.08,0.42,0.2,0.64,0.31c-0.1,0.12-0.16,0.19-0.22,0.27c-0.78,1.15-1.47,2.37-2.75,3.08c-0.08,0.05-0.14,0.14-0.2,0.21
					c-1.39,1.47-3.3,1.89-5.13,2.41c-0.57,0.16-0.85,0.4-1.13,0.88c-0.41,0.7-0.87,1.48-1.52,1.91c-0.82,0.54-1.82,0.85-2.78,1.11
					c-0.74,0.2-1.52,0.24-2.3,0.28C516.05,248.89,515.27,245.57,513.66,243.36z M481.51,246.46c0.02-0.15-0.2-0.43-0.37-0.5
					c-0.11-0.05-0.36,0.15-0.5,0.29c-0.16,0.17-0.23,0.41-0.38,0.58c-0.8,0.9-1.82,1.41-2.97,1.77c-1.41,0.44-2.64,0.18-3.37-0.87
					c-0.27-0.39-0.49-0.8-0.77-1.17c-0.28-0.37-0.26-0.67-0.04-1.07c0.81-1.43,1.54-2.92,2.38-4.33c0.55-0.91,1.25-1.73,1.78-2.45
					c0.89,0.55,1.64,1.02,2.4,1.49c0.32,0.2,0.68,0.35,0.94,0.61c0.65,0.63,1.39,1.06,2.26,1.32c0.33,0.1,0.66,0.22,0.97,0.37
					c0.75,0.22,1.5,0.52,2.24,0.87c0-0.01,0-0.01,0.01-0.02c1.12,0.53,2.27,1.01,3.45,1.42c-0.44,0.79-1.63,0.95-2.48,0.93
					c-0.4-0.01-0.78-0.06-1.14-0.16c-0.52-0.26-1.01-0.64-1.41-1.07c-0.16-0.25-0.33-0.47-0.52-0.66c0-0.01-0.01-0.01-0.01-0.02
					c-0.08-0.13-0.18-0.19-0.29-0.23c0,0,0,0,0,0c-0.04-0.01-0.07-0.03-0.11-0.04c-0.15-0.04-0.31-0.04-0.45,0.05
					c-0.85,0.59-0.31,1.45,0.22,2.07c0.26,0.56,0.52,1.11,0.77,1.67c0.47,1.03,1.71,2.61-0.19,2.8c-0.01,0-0.01,0.01-0.02,0.01
					c-0.12-0.35-0.27-0.69-0.43-0.99c-0.36-0.68-1.39-0.08-1.03,0.6c0.65,1.24,0.73,2.1-0.51,2.95c-0.38,0.26-0.8,0.51-1.18,0.77
					c-0.41,0.28-0.84,0.47-1.26,0.57c-1.67-0.06-2.67-1.9-3.53-3.21c0.29,0.01,0.51,0.03,0.71-0.01c0.4-0.09,0.81-0.18,1.17-0.37
					c0.47-0.24,0.97-0.5,1.34-0.86c0.69-0.67,1.32-1.4,1.92-2.15C481.34,247.15,481.47,246.79,481.51,246.46z M501.44,249.87
					c0.03-0.01,0.06-0.02,0.1-0.03c0.18-0.04,0.37-0.02,0.53,0.11c0.66,0.32,0.73,1.17,1.14,1.79c0.31,0.46,0.75,0.75,1.24,0.96
					c0.61,0.18,0.8,0.01,0.53-0.53c-0.1-0.94-0.79-2.06-1.12-2.95c-0.59-1.56-1.69-3.3-1.03-4.99c0.15-0.38,0.57-0.63,0.96-0.39
					c1.44,0.88,2.28,3.57,2.34,5.15c0,0.05,0,0.1-0.01,0.15c0.04,0.38,0.07,0.75,0.12,1.13c0.14,1.07,0.7,1.52,1.7,1.38
					c0.64-0.09,0.83-0.38,0.66-1c-0.09-0.31-0.26-0.61-0.31-0.92c-0.08-0.52-0.16-1.04-0.24-1.56c-0.62-1.29-1.28-2.72-0.93-4.14
					c0.08-0.34,0.47-0.56,0.81-0.46c1.44,0.45,2.02,1.92,1.92,3.32c0.02,0.19,0.03,0.39,0.01,0.61c-0.07,0.91,0.21,1.85,0.15,2.76
					c-0.04,0.65,0.26,0.97,0.69,1.22c0.5,0.28,1.34-0.04,1.39-0.46c0.01-0.11,0.02-0.22,0.03-0.33c0.08-1.74-0.38-3.54,0.31-5.18
					c0.15-0.35,0.61-0.36,0.9-0.24c1.28,0.56,1.52,2.86,1.67,4.03c0.09,0.71,0.3,1.95-0.01,2.8c0.05,0.27,0.1,0.53,0.16,0.8
					c0.03,0.17-0.1,0.45-0.25,0.57c-0.41,0.34-0.88,0.61-1.31,0.93c-0.28,0.21-0.49,0.21-0.78-0.02c-0.58-0.46-1.24-0.35-1.73,0.23
					c-0.26,0.31-0.5,0.64-0.8,0.9c-0.26,0.22-0.55,0.45-0.96,0.2c-0.33-0.2-0.69-0.34-1.04-0.48c-1.12-0.43-2.28-0.43-3.42-0.16
					c-0.87,0.21-2.21-0.45-2.37-1.14c-0.08-0.36-0.2-0.71-0.31-1.06c-0.4-0.64-0.67-1.38-1.09-2.08
					C500.85,250.39,501.1,250.01,501.44,249.87z M492.04,259.2c-0.58,0.16-1.24,0.2-1.72,0.51c-0.66,0.43-1.24,0.52-1.94,0.2
					c0.3-0.68,0.59-1.32,0.86-1.97c0.46-1.12,0.46-2.34,0.05-3.39c-0.39-1.03-0.94-2.01-1.51-2.97c-0.27-0.6-0.5-1.22-0.7-1.85
					c0.12,0.11,0.25,0.22,0.37,0.32c-0.01,0.01-0.01,0.02-0.02,0.03c0.76,0.79,1.3,1.77,1.97,2.64c0.1,0.13,0.16,0.3,0.23,0.46
					c0.05-1.1-0.26-2.06-0.9-2.92c0.51,0.23,1.09,0.39,1.42,0.77c0.53,0.61,0.92,1.36,0.54,2.23c-0.27,0.61-0.01,1.08,0.36,1.5
					c0.71-0.9,1.07-1.89,0.88-3.02c0.43-0.11,0.84-0.13,0.82,0.34c-0.04,0.78,0.05,1.6-0.46,2.3c-0.44,0.61-0.88,1.23-1.29,1.86
					c-0.1,0.15-0.08,0.39-0.12,0.58c0.18-0.01,0.41,0.05,0.55-0.03c0.75-0.45,1.52-0.88,2.19-1.43c0.92-0.76,1.74-1.64,2.15-2.81
					c0.48,0.09,0.96,0.17,1.5,0.26c-0.11,0.17-0.15,0.3-0.24,0.39c-0.6,0.6-1.19,1.23-1.84,1.78c-0.56,0.48-1.17,0.93-1.83,1.27
					c-0.59,0.31-0.89,0.81-0.62,1.53c0.62-0.2,1.34-0.27,1.83-0.64c0.97-0.74,2.04-1.23,3.15-1.66c0.75-0.29,1.31-0.77,1.78-1.4
					c0.17-0.22,0.37-0.42,0.62-0.68c0.24,0.66,0.45,1.21,0.66,1.79c-0.42,0.2-0.86,0.31-1.16,0.58c-0.91,0.8-2,1.12-3.12,1.45
					c-0.37,0.11-0.76,0.23-1.07,0.44C494.39,258.37,493.26,258.87,492.04,259.2z M461.34,271.97c0.18-0.04,0.34-0.1,0.52-0.13
					c0.76-0.11,1.52-0.23,2.28-0.32c1.67-0.18,3.33-0.41,5.01-0.49c1.79-0.08,3.58,0,5.35-0.46c2.43-0.63,4.91-1.07,7.33-1.75
					c2.26-0.64,4.47-1.45,6.69-2.26c0.96-0.35,1.86-0.86,2.85-1.32c0.93,1.08,2.01,2.05,2.73,3.24c0.83,1.36,1.7,2.68,2.67,3.94
					c1.33,1.73,2.59,3.5,3.92,5.22c0.53,0.69,1.26,1.25,1.72,1.98c1.15,1.84,2.65,3.37,4.01,5.03c0.11,0.13,0.25,0.29,0.27,0.45
					c0.08,0.64,0.42,1.11,0.88,1.52c0.22,0.19,0.42,0.42,0.59,0.66c0.88,1.32,1.78,2.64,2.61,4c0.59,0.96,1.07,1.99,1.62,2.97
					c0.59,1.06,1.17,2.14,1.84,3.15c0.76,1.14,1.64,2.2,2.44,3.31c0.54,0.76,1.01,1.56,1.55,2.32c0.41,0.59,0.89,1.13,1.29,1.72
					c0.29,0.42,0.48,0.92,0.75,1.35c0.94,1.48,1.99,2.88,3.54,4.03c-1.02,0.17-1.9,0.21-2.7,0.48c-1.61,0.54-3.18,1.21-4.76,1.83
					c-1.5,0.59-2.98,1.26-4.5,1.78c-1.72,0.59-3.47,1.06-5.22,1.57c-0.16,0.05-0.39-0.02-0.54-0.11c-1.91-1.19-3.97-2.18-5.54-3.87
					c-0.4-0.43-0.8-0.85-1.18-1.29c-0.35-0.42-0.63-0.91-1.03-1.28c-0.68-0.63-1.45-1.15-2.13-1.77c-0.65-0.59-1.22-1.28-1.87-1.88
					c-1.19-1.11-2.42-2.19-3.63-3.29c-0.74-0.68-1.46-1.38-2.21-2.05c-1.55-1.37-3.15-2.67-4.65-4.08
					c-0.88-0.82-1.82-1.59-2.55-2.58c-0.51-0.69-1.22-1.26-1.9-1.8c-1.48-1.19-2.9-2.45-4.57-3.4c-1.45-0.82-2.93-1.63-4.21-2.68
					c-1.33-1.09-2.85-2-3.84-3.48c-0.59-0.88-1.25-1.72-1.85-2.59c-0.57-0.83-1.24-1.63-1.64-2.54
					C462.54,275.44,461.98,273.71,461.34,271.97z M445.16,255.37c0.23-1.22,0.56-2.42,0.76-3.65c0.12-0.75,0.08-1.53,0.12-2.29
					c0.02-0.35,0.05-0.7,0.08-1.12c2.69,1.62,5.39,2.78,8.36,3.3c0.8,0.14,1.6,0.36,2.34,0.67c1.73,0.72,3.52,1.23,5.36,1.61
					c0.18,0.04,0.35,0.16,0.51,0.27c0.96,0.7,1.73,1.66,2.85,2.15c0.31,0.14,0.61,0.36,0.85,0.61c0.53,0.54,1.17,0.56,1.75,0.26
					c1.3-0.65,2.57-1.36,3.51-2.52c0.87-1.08,1.76-2.15,2.65-3.25c0.28,0.48,0.53,0.99,0.87,1.43c0.06,0.09,0.14,0.16,0.21,0.25
					c1.06,1.5,2.51,2.73,4.29,2.33c1.02-0.11,1.85-0.68,2.88-1.2c0.61-0.3,1.38-0.46,1.79-1.05c0.22-0.32,0.31-0.7,0.36-1.08
					c0.44-0.06,0.91-0.17,1.3-0.37c0.01,0.02,0.02,0.04,0.04,0.05c0.47,0.54,0.75,1.2,1.13,1.81c0.23,0.62,0.46,1.24,0.53,1.91
					c0.15,1.44-0.4,3.08-1.09,4.48c0.36,0.59,1.09,0.91,1.86,1.23c0.92,0.39,1.89,0.12,2.97,0.31c-0.48,0.23-0.86,0.35-1.15,0.58
					c-1.05,0.84-2.34,1.14-3.56,1.58c-1.38,0.5-2.79,0.92-4.19,1.35c-0.78,0.24-1.56,0.52-2.35,0.67c-1.1,0.22-2.22,0.31-3.32,0.5
					c-0.57,0.1-1.12,0.34-1.69,0.45c-1.62,0.31-3.23,0.65-4.86,0.85c-1.34,0.16-2.7,0.13-4.06,0.2c-1.01,0.05-2.02,0.09-3.02,0.22
					c-1.71,0.22-3.4,0.57-5.1,0.76c-1.4,0.16-2.82,0.19-4.24,0.25c-1.66,0.06-3.31,0.09-4.97,0.11c-1.2,0.01-2.39-0.03-3.59-0.01
					c-1.08,0.02-2.16,0.08-3.23,0.15c-0.48,0.03-0.62-0.14-0.61-0.61c0.01-1.65,0.71-3.09,1.28-4.57c0.46-1.18,1.25-2.21,1.46-3.5
					c0.13-0.79,0.34-1.57,0.49-2.36C444.89,257.24,444.99,256.3,445.16,255.37z M442.62,232.99c-0.56-0.72-1.18-1.47-1.17-2.4
					c0.02-1.29,0.51-2.48,1.28-3.53c0.9-1.23,1.88-2.42,2.73-3.69c1.12-1.66,2.15-3.38,3.2-5.09c0.44-0.72,0.95-1.42,1.24-2.2
					c0.4-1.11,0.97-2.09,1.64-3.04c0.77-1.11,1.48-2.26,2.28-3.36c0.64-0.88,1.37-1.68,2.03-2.54c0.89-1.16,1.73-2.36,2.61-3.53
					c0.25-0.33,0.52-0.69,0.87-0.88c2.16-1.19,4.34-2.34,6.52-3.49c0.14-0.07,0.35-0.09,0.5-0.03c0.74,0.3,1.47,0.65,2.21,0.96
					c1.19,0.5,2.4,0.96,3.59,1.48c0.73,0.32,1.43,0.72,2.16,1.05c1.18,0.53,2.4,0.99,3.57,1.55c1.34,0.65,2.58,1.5,3.96,2.03
					c1.27,0.49,2.36,1.22,3.46,1.96c0.93,0.62,1.8,1.35,2.74,2.06c-0.12,0.46-0.21,1.01-0.42,1.51c-0.1,0.24-0.39,0.45-0.65,0.55
					c-0.87,0.36-1.77,0.67-2.65,1.01c-0.32,0.12-0.67,0.23-0.92,0.45c-0.64,0.57-1.03,1.31-1.28,2.14
					c-0.08,0.26-0.32,0.51-0.56,0.66c-0.49,0.31-1.16,0.44-1.52,0.85c-0.92,1.04-1.7,2.2-2.54,3.3c-0.07,0.1-0.2,0.15-0.35,0.26
					c0-0.22-0.02-0.36,0-0.48c0.18-0.91,0.4-1.82,0.53-2.74c0.08-0.53,0.16-1.15-0.03-1.62c-0.33-0.82-0.81-1.61-1.34-2.33
					c-1.17-1.56-2.41-3.07-3.67-4.66c0.59,0.3,1.15,0.59,1.72,0.86c1.13,0.55,2.26,1.09,3.4,1.61c0.1,0.05,0.32,0.01,0.39-0.07
					c0.22-0.28,0.58-0.61,0.55-0.88c-0.04-0.31-0.42-0.6-0.68-0.86c-0.12-0.12-0.32-0.16-0.47-0.25c-1.39-0.81-2.77-1.65-4.18-2.42
					c-2.14-1.18-4.3-2.34-6.48-3.44c-1.15-0.58-2.37-1.03-3.57-1.5c-0.49-0.19-0.96-0.06-1.23,0.45c-0.24,0.46-0.06,0.84,0.28,1.18
					c0.69,0.68,1.38,1.36,2.07,2.04c0.97,0.94,1.94,1.88,2.9,2.82c0.48,0.47,0.97,0.94,1.46,1.4c0.68,0.64,1.37,1.26,2.06,1.89
					c1.57,1.46,3.13,2.94,4.72,4.38c0.43,0.39,0.38,0.78,0.2,1.23c-0.19,0.48-0.36,0.97-0.59,1.43c-0.19,0.39-0.45,0.74-0.7,1.1
					c-0.31,0.44-0.68,0.83-0.95,1.28c-0.46,0.78-0.84,1.6-1.29,2.39c-0.3,0.52-0.72,0.97-0.97,1.5c-0.73,1.62-1.4,3.28-2.12,4.98
					c-0.45-0.32-0.82-0.59-1.19-0.84c-0.87-0.6-1.74-1.18-2.61-1.78c-0.79-0.54-1.56-1.1-2.36-1.62c-0.59-0.39-1.25-0.22-1.46,0.33
					c-0.2,0.51,0.04,0.88,0.43,1.19c1.1,0.85,2.18,1.72,3.29,2.56c1.66,1.27,3.33,2.52,4.99,3.78c0.36,0.28,0.73,0.56,1.05,0.88
					c1.05,1.08,2.18,2.04,3.51,2.75c0.08,0.04,0.13,0.12,0.17,0.15c-0.81,0.91-1.54,1.83-2.36,2.65c-0.82,0.82-1.43,1.76-1.96,2.77
					c-0.59,1.11-1.13,2.25-1.68,3.39c-0.69,1.41-1.38,2.83-2.04,4.25c-0.4,0.87-0.76,1.75-1.14,2.63c-1.45-1.18-2.81-2.3-4.18-3.42
					c-1.37-1.11-2.74-2.23-4.13-3.32c-2.02-1.58-4.07-3.11-6.07-4.71c-1.27-1.02-2.5-2.09-3.69-3.2c-1.1-1.02-2.11-2.13-3.17-3.2
					c-0.01-0.01-0.01-0.04-0.02-0.05C443.89,234.68,443.27,233.82,442.62,232.99z M424.61,244.52c0.11-0.05,0.21-0.11,0.33-0.13
					c2.55-0.56,4.91-1.59,7.19-2.83c1.39-0.76,2.76-1.51,3.89-2.65c0.51-0.51,1.19-0.85,1.66-1.39c1.05-1.21,2.49-1.56,4.12-2.02
					c-0.27,0.45-0.4,0.8-0.64,1.05c-0.64,0.69-1.05,1.61-1.95,2.06c-0.03,0.02-0.05,0.06-0.08,0.09c-0.68,0.78-1.1,1.89-2.4,1.91
					c-0.04,0-0.08,0.08-0.13,0.12c-0.42,0.32-0.82,0.66-1.26,0.94c-0.51,0.32-1.05,0.58-1.59,0.84c-0.7,0.35-1.37,0.8-2.11,0.98
					c-1.79,0.43-3.6,0.73-5.41,1.05c-0.53,0.09-1.07,0.08-1.61,0.12L424.61,244.52z"/>
			</g>
			<g>
				<path d="M529.47,236.67c-0.04-0.07-0.08-0.15-0.12-0.22c1.11,0.13,1.39-0.84,2.08-1.26c0.03-0.02,0.07-0.04,0.11-0.05
					c0.97-0.34,1.93-0.74,2.93-1.01c1.93-0.53,3.73,0.19,5.54,0.7c0.7,0.2,1.17,0.84,1.01,1.36c-0.17,0.54-0.65,0.86-1.22,0.91
					c-2.1,0.19-4.19,0.31-5.83-1.44c-0.15-0.16-0.71-0.21-0.81-0.1c-0.17,0.21-0.22,0.62-0.16,0.9c0.05,0.23,0.32,0.48,0.55,0.6
					c1.1,0.54,2.2,1.09,3.34,1.54c0.7,0.27,1.46,0.37,2.2,0.55c0.58,0.14,0.63,0.57,0.61,1.07c-0.02,0.51-0.29,0.75-0.75,0.86
					c-0.97,0.23-1.83,0.01-2.67-0.53c-1.13-0.72-2.29-1.38-3.44-2.08c-0.4-0.24-0.75-0.56-1.16-0.77
					C530.95,237.32,530.21,237,529.47,236.67z"/>
			</g>
			<g>
				<path class="st1" d="M529.47,236.67c0.74,0.34,1.48,0.65,2.2,1.02c0.41,0.21,0.76,0.53,1.16,0.77c1.14,0.7,2.31,1.36,3.44,2.08
					c0.83,0.53,1.69,0.76,2.67,0.53c0.46-0.11,0.73-0.35,0.75-0.86c0.02-0.5-0.03-0.93-0.61-1.07c-0.73-0.18-1.5-0.27-2.2-0.55
					c-1.14-0.45-2.24-0.99-3.34-1.54c-0.23-0.11-0.5-0.36-0.55-0.6c-0.07-0.29-0.01-0.69,0.16-0.9c0.1-0.12,0.66-0.07,0.81,0.1
					c1.64,1.75,3.73,1.62,5.83,1.44c0.56-0.05,1.05-0.36,1.22-0.91c0.16-0.52-0.31-1.17-1.01-1.36c-1.81-0.51-3.61-1.23-5.54-0.7
					c-0.99,0.27-1.95,0.67-2.93,1.01c-0.04,0.01-0.07,0.03-0.11,0.05c-0.69,0.43-0.97,1.4-2.08,1.26
					C529.39,236.52,529.43,236.59,529.47,236.67z"/>
			</g>
			<g>
				<g>
					<path class="st0" d="M473.11,173.77c-1.66-0.08-2.83,0.69-3.84,1.82c-0.44,0.5-0.98,0.91-1.45,1.39
						c-0.26,0.26-0.48,0.57-0.81,0.98C468.36,177.68,472.52,174.78,473.11,173.77z"/>
				</g>
				<g>
					<path class="st0" d="M476.57,176.42c-1.99,0.05-3.37,1.38-4.97,2.27C472.94,179.43,476.39,177.95,476.57,176.42z"/>
				</g>
				<g>
					<path class="st0" d="M464.51,175.75c0.75,0.08,3.6-2.99,3.96-4.26C467.45,171.24,465.04,173.83,464.51,175.75z"/>
				</g>
			</g>
			<g>
				<path d="M522.95,246.03c-0.09,0.04-0.19,0.07-0.28,0.08c-1.87,0.37-3.52-0.41-5.04-1.24c-1.44-0.8-2.47-2.22-3.15-3.73
					c-0.59-1.31-1.32-2.32-2.78-2.67c-0.56-0.13-1.1-0.37-1.67-0.45c-1.66-0.23-3.33-0.41-4.92,0.33c-2.22,1.04-4.57,1.57-6.98,1.81
					c-2.09,0.21-4.2,0.21-6.28-0.16c-1.15-0.2-2.31-0.39-3.44-0.66c-0.85-0.21-1.68-0.51-2.51-0.82c-1.19-0.44-2.39-0.9-3.56-1.4
					c-1.15-0.49-1.7-1.62-2.48-2.49c-0.55-0.61-0.02-1.58,0.82-1.58c0.76,0,1.53,0.17,2.29,0.3c0.5,0.09,0.98,0.32,1.48,0.35
					c0.31,0.02,0.91-0.25,0.9-0.33c-0.05-0.42,0.3-0.62,0.38-0.94c0.06-0.22,0.11-0.53,0-0.67c-0.35-0.48-0.72-0.97-1.18-1.32
					c-0.59-0.44-1.29-0.72-1.91-1.11c-0.43-0.27-0.82-0.61-1.17-0.87c0.04-0.65,0.46-0.85,0.94-0.97c0.09-0.02,0.19-0.07,0.27-0.12
					c1.3-0.71,2.7-0.94,4.15-0.92c1.72,0.02,3.43-0.01,5.15,0.02c0.86,0.01,1.72,0.05,2.57,0.17c0.75,0.11,1.49,0.36,2.23,0.52
					c0.34,0.08,0.73,0.03,1.03,0.17c1.52,0.69,3.05,1.39,4.54,2.17c1.18,0.62,2.3,1.36,3.44,2.05c0.55,0.33,1.1,0.68,1.68,0.97
					c0.72,0.36,1.46,0.67,2.2,0.97c0.7,0.28,1.4,0.57,2.14,0.09c0.4-0.26,0.8-0.54,1.22-0.78c1.75-1,2.71-2.53,2.87-4.51
					c0.13-1.62-0.11-3.21-0.69-4.76c0.25,0.14,0.49,0.28,0.63,0.49c0.69,1.03,1.43,2.03,1.99,3.12c0.37,0.72,0.76,1.48,0.45,2.44
					c-0.28,0.88-0.71,1.58-1.34,2.22c-1.29,1.32-2.71,2.42-4.43,2.95c0,0.26-0.09,0.55,0.02,0.68c0.5,0.63,0.98,1.31,1.6,1.81
					c1.03,0.81,1.62,1.9,2.19,3.01c0.47,0.94,0.89,1.87,1.92,2.34c0.46,0.21,0.88,0.49,1.32,0.73c0.71,0.4,1.43,0.78,2.12,1.21
					c0.56,0.35,1.42,0.4,1.48,1.35C523.11,245.93,523.03,245.99,522.95,246.03z M498.67,230.94c0.97,0.41,1.87,0.96,2.81,1.43
					c0.33,0.16,0.71,0.24,1.04,0.39c0.15,0.07,0.24,0.25,0.36,0.38c-0.16,0.11-0.31,0.31-0.47,0.32c-0.27,0.01-0.55-0.07-0.81-0.17
					c-1.67-0.68-3.34-1.38-5.01-2.06c-1.31-0.53-2.59-1.17-3.95-1.52c-1.72-0.45-3.5-0.68-5.25-0.99c-0.27-0.05-0.56-0.05-0.88,0.07
					c0.21,0.09,0.41,0.18,0.62,0.27c2.01,0.89,4.19,1.21,6.28,1.8c1.36,0.39,2.7,0.89,4.03,1.37c0.38,0.14,0.74,0.37,1.07,0.62
					c0.15,0.12,0.21,0.37,0.3,0.56c-0.22,0.04-0.46,0.16-0.64,0.1c-0.64-0.2-1.24-0.49-1.88-0.68c-1.38-0.41-2.7-1.02-4.2-1.06
					c-0.78-0.02-1.55-0.41-2.31-0.65c-0.57-0.19-1.13-0.41-1.75-0.64c0.36,0.57,0.61,1.15,1.02,1.59c0.27,0.29,0.73,0.45,1.13,0.54
					c0.51,0.11,1.06,0.09,1.59,0.13c1,0.06,2,0.05,2.99,0.19c0.68,0.1,1.17,0.58,1.41,1.24c-2.12-0.12-4.22-0.25-6.38-0.37
					c-0.28,0.24-0.65,0.56-1.12,0.97c0.4,0.1,0.77,0.3,1.13,0.28c1.93-0.08,3.85-0.21,5.78-0.31c1.98-0.11,3.96-0.22,5.94-0.29
					c0.24-0.01,0.48,0.22,0.72,0.34c-0.24,0.2-0.46,0.54-0.72,0.59c-1.12,0.17-2.25,0.25-3.37,0.38c-0.98,0.11-1.94,0.3-2.92,0.38
					c-1.34,0.11-2.69,0.2-4.03,0.21c-2.16,0.02-4.3-0.16-6.4-0.7c-0.32-0.08-0.6-0.35-0.92-0.47c-0.6-0.23-1.23-0.41-1.84-0.62
					c-0.3-0.1-0.6-0.23-0.9-0.35c-0.04,0.06-0.08,0.12-0.12,0.18c0.6,0.41,1.16,0.91,1.81,1.21c1.72,0.8,3.5,1.42,5.42,1.51
					c0.47,0.02,0.95,0.11,1.41,0.21c0.94,0.21,1.87,0.57,2.83,0.64c0.95,0.07,1.93-0.05,2.87-0.22c1.42-0.26,2.8-0.7,4.21-0.95
					c1.85-0.33,3.47-1.24,5.2-1.87c0.76-0.28,1.55-0.48,2.32-0.72c0.01-0.06,0.03-0.12,0.04-0.18c-0.53-0.28-1.07-0.54-1.58-0.83
					c-1.3-0.74-2.55-1.57-3.88-2.23c-1.73-0.85-3.4-1.84-5.4-2.02c-0.91-0.08-1.8-0.38-2.7-0.57c-0.22-0.04-0.46-0.01-0.68-0.01
					c-0.02,0.08-0.03,0.16-0.05,0.25C494.77,229.38,496.73,230.13,498.67,230.94z"/>
			</g>
			<g>
				<path d="M522.42,233.59c-1.35-0.92-2.54-2.05-2.78-3.76c-0.19-1.37,0.01-2.74,0.47-4.05c0.76-2.17,3.13-3.22,5-2.85
					c1.86,0.36,3.61,0.97,4.91,2.56c1.13,1.39,2.05,2.78,1.55,4.64c-0.24,0.91-0.64,1.79-1.05,2.64c-0.16,0.33-0.51,0.64-0.85,0.78
					c-1.21,0.5-2.42,1.03-3.86,0.89C524.64,234.56,523.46,234.29,522.42,233.59z M529.37,231.99c0.71-0.76,1.21-2.87,0.73-3.77
					c-0.5-0.93-1.09-1.75-1.99-2.43c-0.88-0.67-1.64-1.15-2.75-1.03c-0.69,0.08-1.4,0-2.1,0.04c-0.21,0.01-0.44,0.15-0.6,0.3
					c-1.43,1.34-1.97,3-1.58,4.92c0.06,0.32,0.25,0.63,0.44,0.9c0.88,1.17,3.2,2.29,4.96,2.29
					C527.35,233.04,528.5,232.94,529.37,231.99z"/>
			</g>
			<g>
				<path d="M522.72,227.71c-0.36,0.53-0.65,1.1-0.35,1.75c0.33,0.72,0.68,1.43,1.46,1.8c1.06,0.51,2.13,1.01,3.35,0.8
					c0.27-0.05,0.53-0.22,0.76-0.38c0.14-0.1,0.22-0.28,0.34-0.41c1.17-1.36,0.88-2.48-0.22-3.93c-0.3-0.4-0.66-0.8-1.07-1.06
					c-0.58-0.37-1.25-0.63-1.92-0.95c0.15,0.61,0.36,1.05,0.35,1.49c-0.01,0.42-0.13,0.93-0.4,1.23
					C524.47,228.67,523.97,228.55,522.72,227.71z"/>
			</g>
			<g>
				<path class="st4" d="M477.13,160.71c4.61-1.18,18.86-6.14,17.84,3.67c-0.13,1.29-1.19,1.95-2.21,1.99
					c-0.03,0-0.05,0.01-0.08,0.01c-0.01,0-0.02,0-0.03,0c-0.13,0-0.27-0.01-0.41-0.04c-0.14-0.03-0.27-0.07-0.4-0.12
					c-4.23-1.72-9.64-1.18-14.14-1.4C475.4,164.71,474.76,161.31,477.13,160.71z"/>
			</g>
			<g>
				<path class="st4" d="M457.67,208.03c0.55-0.67,1.24-0.81,1.85-0.63c0.74-0.46,1.75-0.57,2.6,0.11
					c6.41,5.04,10.96,7.9,8.06,16.53c-0.34,1-1.46,1.87-2.57,1.46c-2.51-0.92-5.49-3.15-7.36-0.04c-1.62,2.69,0.23,4.49,1.98,6.32
					c2.02,2.11,5.55,4.02,5.82,7.25c0.14,1.72-1.3,6.75-2.83,7.85c-1.41,1.02-2.42,0.53-3.74-0.29c-4.04-2.5-7.76-7.31-11.13-10.66
					c-1.94-1.93-3.43-3.25-3.24-6.11C447.63,222.03,452.89,213.85,457.67,208.03z"/>
			</g>
			<g>
				<path class="st4" d="M467.19,273.68c3.3,0.3,6.57,0.31,9.84-0.32c3.13-0.59,5.83-2.08,8.84-2.95c3.89-1.12,6.02,1.69,8.46,4.46
					c7.8,8.86,13.29,19.69,19.84,29.49c0.64,0.3,1.17,0.88,1.28,1.75c0.48,3.91-3.77,5.45-7.04,5.1c-5.65-0.6-9.99-5.63-13.49-9.61
					c-4.77-5.41-9.3-10.34-15.38-14.35c-4.48-2.95-11.75-5.37-14.15-10.43C464.78,275.54,465.47,273.53,467.19,273.68z"/>
			</g>
			<g>
				<path class="st4" d="M445.87,262.09c0.97-7.35,4.47-9.53,10.91-6.79c4.65,1.98,9.04,5.16,14.24,3.01
					c1.22-0.5,2.08-1.38,3.43-1.58c2.59-0.37,3.82,1.03,6.79,0.34c0.08-0.02,0.16-0.02,0.24-0.03c0.03-0.02,0.05-0.03,0.08-0.04
					c2.32-1.38,4.3,2.3,1.99,3.67C478.81,263.49,444.38,273.35,445.87,262.09z"/>
			</g>
		</g>
		<g>
			<path class="st4" d="M454.8,304.84c3.04-4.89,2.36-11.7,1.81-17.2c-0.02-0.24-0.05-0.49-0.08-0.73
				c-0.61-3.26-1.36-6.62-1.29-9.91c0-0.01,0.01-0.02,0.01-0.03c0.04-1.43,0.51-2.64,1.85-3.12c0.09-0.04,0.19-0.07,0.29-0.09
				c0,0,0.01,0,0.01,0c0,0,0,0,0,0c0.54-0.1,1.14,0.13,1.34,0.81c0.03,0.11,0.05,0.22,0.06,0.32c0.45,1.21,0.88,2.44,1.44,3.6
				c0.12,0.25,0.25,0.5,0.38,0.75c0.21,0.33,0.42,0.65,0.6,0.95c1.17,1.94,2.23,3.94,3.65,5.72c1.68,2.11,3.6,3.69,6.03,4.86
				c1.87,0.9,3.63,1.73,5.2,3.12c1.08,0.96,1.24,1.43,0.81,2.82c-0.61,1.96-1.71,4.12-2.65,5.96c-2.17,4.25-6.73,6.12-10.85,7.95
				c-1.96,0.87-3.85,1.7-5.99,2.03c-1.28,0.2-4.17,0.86-5.38,0.15C449,310.99,453.87,306.34,454.8,304.84z"/>
		</g>
		<g>
			<g>
				<path d="M496.27,189.84c-1.2,0-2.26,0.11-3.28-0.03c-1.2-0.16-2.34-0.62-3.21-1.52c-0.15-0.16-0.25-0.49-0.19-0.7
					c0.41-1.49,0.14-2.93-0.25-4.37c-0.15-0.57-0.42-1.11-0.94-1.43c0.06,0.98,0.15,1.94,0.18,2.89c0.05,1.85-0.73,3.44-1.67,4.94
					c-0.55,0.88-1.54,1.13-2.53,1.28c-0.22,0.03-0.56-0.1-0.53,0.33c0.03,0.33,0.15,0.62,0.54,0.63c1.06,0.03,2.12-0.02,2.92-0.85
					c0.42-0.44,0.79-0.46,1.31-0.14c1.93,1.2,4,0.99,6.07,0.45c0.41-0.11,0.79-0.43,1.13-0.72
					C496.02,190.43,496.11,190.12,496.27,189.84z"/>
			</g>
			<g>
				<path d="M492.96,179.38c0.19,0.76,0.36,1.53,0.59,2.28c0.18,0.58,0.58,1.01,1.23,1.07c0.67,0.06,1.2-0.24,1.57-0.77
					c0.62-0.9,0.65-1.95,0.52-2.97c-0.09-0.69-0.33-1.39-0.63-2.03c-0.27-0.58-0.86-0.81-1.51-0.74c-0.66,0.07-1.1,0.46-1.28,1.08
					C493.27,177.97,493.13,178.65,492.96,179.38z"/>
			</g>
			<g>
				<path d="M497.47,175.04c-0.03-0.6-0.33-0.99-0.69-1.34c-0.19-0.19-0.42-0.34-0.64-0.49c-1.38-0.92-4.02-0.9-5.33,0.11
					c-0.4,0.31-0.69,0.81-0.93,1.28c-0.28,0.53,0.01,1.05,0.42,1.32c0.26,0.18,0.79,0.15,1.1,0.01c0.48-0.22,0.89-0.61,1.32-0.93
					c1.52-1.12,2.73-1.17,4.34-0.18C497.17,174.89,497.3,174.95,497.47,175.04z"/>
			</g>
			<g>
				<path class="st6" d="M480.93,184.13c0.41-0.9,1.07-1.78,2.07-2.05c1.19-0.33,2.34,0.35,2.89,1.39c0.94,1.79,0.26,4.06-1.04,5.46
					c-0.63,0.67-1.4,0.71-2.03,0.4c-0.03,0-0.05,0-0.08,0C480.19,189.06,480.12,185.93,480.93,184.13z"/>
			</g>
		</g>
	</g>
	<g>
		<path class="st7" d="M147.18,259.27c-4.19,0-8.14,2.19-11.74,6.49l-9.42,10.99l-11.43-13.3c-2.47-2.84-5.34-4.28-8.53-4.28
			c-2.3,0-4.91,1.08-7.77,3.23c-3.08,2.34-4.63,5.56-4.63,9.57c0,2.63,1.46,5.58,4.47,9.02l15.19,17.76l0.1,15.86
			c0.07,5.66,1.07,9.54,3.06,11.86c2.01,2.34,5.15,3.53,9.34,3.53c4.32,0,7.6-1.29,9.74-3.84c2.13-2.53,3.16-6.54,3.16-12.27v-14.66
			l14.19-17.35c2.1-2.5,3.65-4.59,4.61-6.21c1.03-1.73,1.55-3.42,1.55-5.01c0-2.82-1.49-5.74-4.42-8.68
			C152.85,260.18,150.33,259.27,147.18,259.27z"/>
		<path class="st7" d="M220.98,282.79c-1.37-4.51-3.16-8.25-5.33-11.12c-2.17-2.86-4.74-5.28-7.63-7.21
			c-2.89-1.93-5.79-3.3-8.63-4.1c-5.19-1.45-10.61-1.6-15.84-0.31c-2.36,0.58-4.82,1.47-7.31,2.63c-2.54,1.18-4.92,2.85-7.07,4.97
			c-2.13,2.1-4.06,4.54-5.73,7.27c-1.69,2.76-3.04,6.15-4.03,10.08c-0.99,3.91-1.49,8.26-1.49,12.95c0,5.31,0.12,9.74,0.35,13.16
			c0.24,3.47,0.58,6.48,1.02,8.94c0.47,2.62,1.18,4.58,2.19,6c1.01,1.42,2.22,2.45,3.6,3.06c1.33,0.59,3.03,0.89,5.05,0.89
			c4.73,0,8.01-0.88,10.04-2.68c2.03-1.81,3.07-4.61,3.07-8.32v-4.25h14.51V319c0,3.71,1.03,6.51,3.07,8.32
			c2.03,1.8,5.31,2.68,10.04,2.68c3.44,0,6.06-0.96,7.76-2.86c1.66-1.85,2.79-4.93,3.47-9.43c0.64-4.29,0.96-10.94,0.96-19.76
			C223.04,292.38,222.35,287.28,220.98,282.79z M185.03,279.77c1.17-1.42,2.98-2.12,5.54-2.12c1.61,0,2.95,0.28,3.95,0.82
			c0.94,0.51,1.7,1.51,2.27,2.96c0.62,1.58,0.93,3.72,0.93,6.38v6.15h-14.51v-5.95C183.22,284.01,183.83,281.23,185.03,279.77z"/>
	</g>
	<g>
		<path class="st7" d="M215.97,176.41c-1.8,0-3.38,0.14-4.69,0.43c-1.35,0.29-2.68,0.85-3.95,1.64c-1.37,0.86-2.39,2.19-3.04,3.94
			c-0.61,1.65-0.92,3.7-0.92,6.09v32.8c0,1.33-0.08,2.41-0.23,3.21c-0.14,0.75-0.44,1.51-0.88,2.28c-0.38,0.65-0.97,1.13-1.81,1.44
			c-0.94,0.35-2.2,0.53-3.74,0.53c-1.51,0-2.74-0.22-3.66-0.65c-0.85-0.4-1.53-1.11-2.05-2.17c-0.56-1.13-0.88-2.7-0.94-4.64v-32.7
			c0-4.82-1.18-8.11-3.5-9.79c-2.22-1.6-5.45-2.41-9.6-2.41c-3.5,0-6.44,1.24-8.75,3.7c-2.29,2.44-3.45,5.6-3.45,9.41v29.89
			c0,9.43,2.63,16.61,7.82,21.35c5.16,4.71,13.28,7.1,24.14,7.1c11.39,0,19.64-2.23,24.53-6.64c4.92-4.44,7.42-11.77,7.42-21.8
			v-29.89c0-4.56-1.09-7.92-3.24-9.99C223.3,177.45,220.11,176.41,215.97,176.41z"/>
		<path class="st7" d="M403.12,178.83c-2.15-1.6-5.32-2.42-9.41-2.42c-8.11,0-12.4,4.53-12.4,13.1v42.42
			c0,5.67,0.99,9.54,3.03,11.84c2.04,2.3,5.19,3.47,9.37,3.47c4.27,0,7.51-1.35,9.66-4.01c2.09-2.59,3.14-6.66,3.14-12.1v-42.52
			C406.5,183.73,405.4,180.53,403.12,178.83z"/>
		<path class="st7" d="M154.66,183.01c-6.76-5.16-14.37-7.61-22.67-7.28c0,0-0.01,0-0.01,0c-16.31-0.58-25.64,9.53-28.89,13.9
			c-0.7,0.99-1.2,1.96-1.43,2.43c-2.53,6.86-1.49,11.71-0.14,14.62c0.96,1.83,2.34,3.64,4.11,5.38c1.88,1.84,4.09,3.34,6.58,4.48
			c1.82,0.83,3.69,1.66,5.63,2.48c1.93,0.82,3.48,1.49,4.67,2l3.57,1.54c1.17,0.5,2.08,0.92,2.75,1.26
			c0.23,0.11,0.43,0.25,0.75,0.45c0.49,0.36,0.91,0.72,1.11,0.97c0.25,0.38,0.19,0.54,0.16,0.59c-0.07,0.17-0.6,1.04-4.18,1.72
			c-7.9,1.41-16.32-5.02-16.67-5.29c0,0,0,0,0,0c-3.24-2.54-7.65-2.87-11.23-0.84c-4.86,2.75-6.57,8.94-3.82,13.8
			c0.7,1.24,1.64,2.29,2.83,3.17c0.33,0.24,0.67,0.47,0.98,0.64c2.78,1.75,12.69,7.55,23.25,8.6c1.51,0.15,3.02,0.23,4.54,0.23
			c7.46,0,14.97-1.81,22.41-5.41c0.1-0.05,0.19-0.11,0.26-0.19c7.12-3.76,10.35-10,9.59-18.53c-0.3-3.42-1.61-6.4-3.89-8.85
			c-2.21-2.38-5.9-4.77-10.96-7.09c-1.56-0.73-3.47-1.58-5.74-2.53c-2.24-0.94-4.01-1.69-5.29-2.26c-1.25-0.55-2.56-1.21-3.89-1.97
			c-1.08-0.61-1.92-1.23-2.52-1.85c-0.09-0.09-0.18-0.18-0.34-0.42c-0.26-0.42-0.24-0.72-0.21-0.81c0.01-0.01,0.08-0.19,0.08-0.21
			c0.01-0.01,0.01-0.02,0.02-0.03c0.73-0.98,2.8-1.7,4.63-1.61c2.76,0.14,5.02,1,8.14,2.19c0.67,0.26,1.38,0.53,2.14,0.81
			c0.01,0.01,0.02,0.01,0.04,0.02l4.08,1.71c0.05,0.02,0.1,0.04,0.15,0.05c2.92,1.27,6.28,1.11,9.03-0.44
			c2.44-1.38,4.22-3.76,4.88-6.66C159.68,188.14,156.59,184.63,154.66,183.01z"/>
		<path class="st7" d="M294.56,183.01c-6.76-5.16-14.37-7.61-22.67-7.28c0,0-0.01,0-0.01,0c-16.31-0.58-25.64,9.53-28.89,13.9
			c-0.7,0.99-1.2,1.96-1.43,2.43c-2.53,6.86-1.49,11.71-0.14,14.62c0.96,1.83,2.34,3.64,4.11,5.38c1.88,1.84,4.09,3.34,6.58,4.48
			c1.82,0.83,3.69,1.66,5.63,2.48c1.93,0.82,3.48,1.49,4.67,2l3.57,1.54c1.17,0.5,2.08,0.92,2.75,1.26
			c0.23,0.11,0.43,0.25,0.75,0.45c0.5,0.38,0.91,0.73,1.12,0.97c0.25,0.38,0.19,0.54,0.16,0.59c-0.07,0.17-0.6,1.04-4.18,1.72
			c-7.9,1.41-16.32-5.02-16.67-5.29c0,0,0,0,0,0c-3.24-2.54-7.65-2.87-11.23-0.84c-4.86,2.75-6.57,8.94-3.82,13.8
			c0.7,1.23,1.64,2.29,2.83,3.17c0.33,0.24,0.67,0.47,0.98,0.64c2.78,1.75,12.69,7.55,23.25,8.6c1.51,0.15,3.02,0.23,4.54,0.23
			c7.46,0,14.97-1.81,22.41-5.41c0.1-0.05,0.19-0.11,0.26-0.19c7.12-3.76,10.35-10,9.59-18.53c-0.3-3.42-1.61-6.4-3.89-8.85
			c-2.21-2.38-5.9-4.77-10.96-7.09c-1.56-0.73-3.47-1.58-5.74-2.53c-2.24-0.94-4.01-1.69-5.29-2.26c-1.25-0.55-2.56-1.21-3.89-1.97
			c-1.08-0.61-1.92-1.23-2.52-1.85c-0.09-0.09-0.18-0.18-0.34-0.42c-0.26-0.42-0.24-0.72-0.21-0.81c0.01-0.01,0.08-0.19,0.08-0.21
			c0.01-0.01,0.01-0.02,0.02-0.03c0.73-0.98,2.8-1.7,4.63-1.61c2.76,0.14,5.02,1,8.14,2.19c0.67,0.26,1.38,0.53,2.14,0.81
			c0.01,0.01,0.02,0.01,0.04,0.02l4.08,1.71c0.05,0.02,0.1,0.04,0.15,0.05c2.92,1.27,6.28,1.11,9.03-0.44
			c2.44-1.38,4.22-3.76,4.88-6.66C299.57,188.14,296.48,184.63,294.56,183.01z"/>
		<path class="st7" d="M369.45,178.83c-2.15-1.6-5.32-2.42-9.41-2.42c-2.42,0-4.54,0.42-6.32,1.25c-1.84,0.86-3.35,2.33-4.49,4.35
			c-1.12,1.99-1.69,4.51-1.69,7.49v12.31h-18.23v-13.21c0-4.87-1.07-8.07-3.27-9.77c-2.09-1.61-5.3-2.43-9.53-2.43
			c-3.74,0-6.8,1.07-9.1,3.19c-2.32,2.14-3.5,5.48-3.5,9.92l0.3,42.32c0,5.66,0.97,9.55,2.96,11.88c2.01,2.34,5.15,3.53,9.34,3.53
			c4.39,0,7.67-1.28,9.75-3.8c2.05-2.49,3.05-6.52,3.05-12.31v-7.22h18.35l0.07,7.92c0,5.67,0.97,9.55,2.97,11.88
			c2.01,2.34,5.15,3.53,9.34,3.53c4.26,0,7.5-1.29,9.64-3.84c2.13-2.53,3.16-6.54,3.16-12.27v-42.52
			C372.83,183.73,371.73,180.53,369.45,178.83z"/>
	</g>
</g>
</svg>
