<?xml version="1.0" encoding="utf-8"?>
<!-- Generator: Adobe Illustrator 28.3.0, SVG Export Plug-In . SVG Version: 6.00 Build 0)  -->
<svg version="1.1" id="Layer_1" xmlns="http://www.w3.org/2000/svg" xmlns:xlink="http://www.w3.org/1999/xlink" x="0px" y="0px"
	 viewBox="0 0 640 480" style="enable-background:new 0 0 640 480;" xml:space="preserve">
<style type="text/css">
	.st0{fill:#BF2728;}
	.st1{fill:#030404;}
</style>
<g>
	<polygon class="st0" points="424.04,195.13 469.68,187.08 478.3,269.32 444.23,275.33 	"/>
	<path class="st0" d="M487.45,300.99c2,11.36-5.59,22.19-16.95,24.2c-11.36,2-22.2-5.58-24.2-16.94c-2-11.36,5.58-22.2,16.95-24.2
		C474.61,282.04,485.44,289.63,487.45,300.99"/>
	<polygon class="st0" points="245.44,228.01 230.08,272.51 200.43,235.94 152.23,244.44 215.62,325.07 223.33,368.8 225.07,368.49 
		267.77,360.96 269.52,360.65 261.75,316.63 293.62,219.51 	"/>
	<path class="st0" d="M358.18,308.69l-5.37-0.9l8.33-49.53l7.62,0.9L358.18,308.69z M348.59,296.35l-5.32-0.08L341.74,246l7.61,0.12
		L348.59,296.35z M362.64,207.34l-42.53,7.5l0,0L289.09,357.2l63.41-11.18l-0.65-3.69c-10.02-2.92-18.06-11.26-19.99-22.24v0
		l55.75-9.83c1.92,10.91-2.7,21.44-11.03,27.63l0.67,3.77l29.77-5.25l33.47-5.9L362.64,207.34z"/>
	<polygon class="st1" points="450.85,148.08 434.88,148.08 434.89,167.1 418.1,148.08 417.73,148.08 401.66,148.08 401.67,197.66 
		418.1,197.66 418.1,176.45 436.06,197.65 436.06,197.67 436.08,197.67 436.45,197.67 449.31,197.67 450.86,197.67 	"/>
	<polygon class="st1" points="367.15,179.06 387.75,179.06 387.75,166.67 367.15,166.68 367.14,160.46 392.9,160.46 392.9,148.08 
		367.14,148.08 367.14,148.08 351.18,148.08 351.18,148.08 351.18,160.47 351.18,160.47 351.18,166.68 351.18,166.68 351.18,179.06 
		351.18,179.06 351.18,185.28 351.18,185.28 351.18,197.65 351.18,197.65 367.15,197.65 367.15,197.65 392.9,197.65 392.9,185.26 
		367.15,185.27 	"/>
	<polygon class="st1" points="324.75,148.08 324.75,148.09 311.43,163.16 298.12,148.09 298.12,148.08 282.15,148.08 282.16,197.65 
		298.13,197.65 298.12,171.38 311.43,186.27 324.74,171.38 324.73,197.65 340.71,197.65 340.71,148.08 	"/>
	<path class="st1" d="M204.32,179.62c5.07-2.97,8.49-8.46,8.49-14.75c0-9.41-7.66-17.08-17.08-17.08h-12.59v0.01h-16.2l0.01,49.87
		h16.52l0-15.72h3.62l8.66,15.72h19.4L204.32,179.62z M191.2,167.35L191.2,167.35h-7.72v-6.21h7.72v0h0.01c1.71,0,3.1,1.39,3.1,3.1
		C194.3,165.96,192.92,167.35,191.2,167.35"/>
	<path class="st1" d="M243.51,178.13l4.51-11.35l4.51,11.35H243.51z M255.96,148.09H240.1l-20.33,49.55h18.93l2.82-6.67h13.01
		l2.82,6.67h18.93L255.96,148.09z"/>
	<polygon points="186.99,116.26 187.35,116.26 187.35,115.9 187.35,112.71 187.35,112.36 186.99,112.36 167.75,112.36 
		167.39,112.36 167.39,112.71 167.39,115.9 167.39,116.26 167.75,116.26 	"/>
	<path d="M166.98,118.27h-0.36v0.35v3.31v0.35h0.36h16.36c-0.64,2.52-1.93,4.41-3.86,5.62c-2.07,1.3-5.46,2.09-10.08,2.34
		l-0.42,0.02l0.09,0.41l0.75,3.28l0.07,0.29l0.29-0.01c2.4-0.08,4.75-0.37,6.98-0.87c2.26-0.51,4.3-1.46,6.08-2.84
		c1.79-1.39,3.1-3.15,3.89-5.25c0.78-2.06,1.19-4.3,1.22-6.66l0-0.36h-0.36H166.98z"/>
	<polygon points="192.94,120.97 192.58,120.97 192.58,121.32 192.58,124.69 192.58,125.04 192.94,125.04 216.17,125.04 
		216.52,125.04 216.52,124.69 216.52,121.32 216.52,120.97 216.17,120.97 	"/>
	<path d="M235.97,122.72c1.98-3.21,3.31-6.76,3.93-10.57l0.06-0.37l-0.37-0.04l-3.97-0.44l-0.34-0.04l-0.05,0.33
		c-0.45,2.87-1.51,5.73-3.14,8.5c-2.13-1.34-4.67-2.78-7.57-4.29l-0.25-0.13l-0.18,0.22l-2.24,2.7l-0.27,0.33l0.37,0.21
		c3.55,2.01,6.09,3.52,7.56,4.5c-1.37,1.5-2.99,2.87-4.82,4.08c-1.94,1.29-3.9,2.21-5.82,2.76l-0.41,0.12l0.2,0.38l1.61,3.14
		l0.13,0.26l0.28-0.08c5-1.44,9.24-4.1,12.61-7.9c2.41,1.82,4.22,3.38,5.39,4.67l0.26,0.29l0.26-0.28l2.79-3.03l0.25-0.27
		l-0.27-0.24C239.94,125.74,237.93,124.13,235.97,122.72"/>
	<path d="M266.94,118.36l-0.31-0.21l-0.19,0.32c-1.2,2.02-2.3,3.55-3.29,4.55c-0.99,1.01-2.22,2.02-3.64,3.01
		c-1.4,0.97-3.07,1.77-4.96,2.38c-1.89,0.6-4.29,1.04-7.13,1.3l-0.41,0.04l0.1,0.4l0.86,3.54l0.07,0.3l0.31-0.03
		c5.31-0.52,9.76-1.84,13.23-3.93c3.49-2.1,6.36-5.19,8.52-9.17l0.16-0.29l-0.27-0.18L266.94,118.36z"/>
	<path d="M253.71,119.01c0.96,0.54,2.07,1.22,3.31,2.01l0.28,0.18l0.2-0.27l2.31-3.14l0.23-0.32l-0.34-0.2
		c-4.13-2.39-7.57-4.14-10.22-5.2l-0.26-0.1l-0.16,0.23l-2,2.9l-0.23,0.33l0.36,0.18C250.62,117.36,252.76,118.47,253.71,119.01"/>
	<path d="M286.85,121.16h4.68l-1.2,0.51c0.32,0.28,0.7,0.66,1.16,1.13c-1.3,0.07-3.23,0.13-5.77,0.17
		C286.15,122.32,286.53,121.72,286.85,121.16 M289.51,129.74h7.17v-2.65h-7.17v-1.66c1.72-0.11,3.11-0.22,4.16-0.33l1.26,1.37
		l3.24-1.33c-0.9-0.99-2.26-2.32-4.08-3.99h3.9v-2.61h-19.07v2.61h4.19c-0.38,0.7-0.73,1.32-1.05,1.87l-3.11,0.03l0.32,2.78
		c1.64,0,3.78-0.06,6.42-0.18v1.45h-6.74v2.65h6.74v1.53H277v2.75l21.12,0.11v-2.85h-8.61V129.74z"/>
	<path d="M278.27,113.52h15.43v1.5h-15.43V113.52z M278.24,121.72l0.01-4.5h18.76v-6.01h-22.33v11.6c0,1.64-0.18,3.37-0.54,5.18
		c-0.36,1.81-0.92,3.45-1.68,4.93l2.78,1.49c0.73-1.02,1.41-2.72,2.04-5.11C277.91,126.9,278.23,124.38,278.24,121.72"/>
</g>
</svg>
